<?xml version="1.0" encoding="UTF-8" standalone="no"?>
<!DOCTYPE svg PUBLIC "-//W3C//DTD SVG 1.1//EN"
 "http://www.w3.org/Graphics/SVG/1.1/DTD/svg11.dtd">
<!-- Generated by graphviz version 12.2.1 (0)
 -->
<!-- Title: src/cfg.c Pages: 1 -->
<svg width="450pt" height="199pt"
 viewBox="0.00 0.00 450.00 199.00" xmlns="http://www.w3.org/2000/svg" xmlns:xlink="http://www.w3.org/1999/xlink">
<g id="graph0" class="graph" transform="scale(1 1) rotate(0) translate(4 195)">
<title>src/cfg.c</title>
<!-- Node1 -->
<g id="Node000001" class="node">
<title>Node1</title>
<g id="a_Node000001"><a xlink:title=" ">
<polygon fill="#999999" stroke="#666666" points="245.75,-191 189.25,-191 189.25,-170.25 245.75,-170.25 245.75,-191"/>
<text text-anchor="middle" x="217.5" y="-177.5" font-family="Helvetica,sans-Serif" font-size="10.00">src/cfg.c</text>
</a>
</g>
</g>
<!-- Node2 -->
<g id="Node000002" class="node">
<title>Node2</title>
<g id="a_Node000002"><a xlink:href="cfg_8h.html" target="_top" xlink:title="Анализирует конфигурацию в config.ini.">
<polygon fill="white" stroke="#666666" points="237.5,-134.25 197.5,-134.25 197.5,-113.5 237.5,-113.5 237.5,-134.25"/>
<text text-anchor="middle" x="217.5" y="-120.75" font-family="Helvetica,sans-Serif" font-size="10.00">cfg.h</text>
</a>
</g>
</g>
<!-- Node1&#45;&gt;Node2 -->
<g id="edge1_Node000001_Node000002" class="edge">
<title>Node1&#45;&gt;Node2</title>
<g id="a_edge1_Node000001_Node000002"><a xlink:title=" ">
<path fill="none" stroke="#63b8ff" d="M217.5,-169.84C217.5,-163.22 217.5,-154.22 217.5,-146.02"/>
<polygon fill="#63b8ff" stroke="#63b8ff" points="221,-146.09 217.5,-136.09 214,-146.09 221,-146.09"/>
</a>
</g>
</g>
<!-- Node3 -->
<g id="Node000003" class="node">
<title>Node3</title>
<g id="a_Node000003"><a xlink:title=" ">
<polygon fill="#e0e0e0" stroke="#999999" points="61,-77.5 0,-77.5 0,-56.75 61,-56.75 61,-77.5"/>
<text text-anchor="middle" x="30.5" y="-64" font-family="Helvetica,sans-Serif" font-size="10.00">stdbool.h</text>
</a>
</g>
</g>
<!-- Node2&#45;&gt;Node3 -->
<g id="edge2_Node000002_Node000003" class="edge">
<title>Node2&#45;&gt;Node3</title>
<g id="a_edge2_Node000002_Node000003"><a xlink:title=" ">
<path fill="none" stroke="#63b8ff" d="M197.13,-116.91C167.32,-108.18 111.14,-91.74 72.31,-80.37"/>
<polygon fill="#63b8ff" stroke="#63b8ff" points="73.39,-77.04 62.81,-77.59 71.43,-83.75 73.39,-77.04"/>
</a>
</g>
</g>
<!-- Node4 -->
<g id="Node000004" class="node">
<title>Node4</title>
<g id="a_Node000004"><a xlink:title=" ">
<polygon fill="#e0e0e0" stroke="#999999" points="135.75,-77.5 79.25,-77.5 79.25,-56.75 135.75,-56.75 135.75,-77.5"/>
<text text-anchor="middle" x="107.5" y="-64" font-family="Helvetica,sans-Serif" font-size="10.00">getopt.h</text>
</a>
</g>
</g>
<!-- Node2&#45;&gt;Node4 -->
<g id="edge3_Node000002_Node000004" class="edge">
<title>Node2&#45;&gt;Node4</title>
<g id="a_edge3_Node000002_Node000004"><a xlink:title=" ">
<path fill="none" stroke="#63b8ff" d="M197.83,-113.09C180.94,-104.68 156.33,-92.43 137.07,-82.84"/>
<polygon fill="#63b8ff" stroke="#63b8ff" points="138.86,-79.83 128.35,-78.5 135.74,-86.09 138.86,-79.83"/>
</a>
</g>
</g>
<!-- Node5 -->
<g id="Node000005" class="node">
<title>Node5</title>
<g id="a_Node000005"><a xlink:title=" ">
<polygon fill="#e0e0e0" stroke="#999999" points="318,-20.75 269,-20.75 269,0 318,0 318,-20.75"/>
<text text-anchor="middle" x="293.5" y="-7.25" font-family="Helvetica,sans-Serif" font-size="10.00">stdio.h</text>
</a>
</g>
</g>
<!-- Node2&#45;&gt;Node5 -->
<g id="edge4_Node000002_Node000005" class="edge">
<title>Node2&#45;&gt;Node5</title>
<g id="a_edge4_Node000002_Node000005"><a xlink:title=" ">
<path fill="none" stroke="#63b8ff" d="M205.65,-113.1C191.08,-99.87 169.76,-75.73 182.5,-56.75 199.11,-32.02 231.83,-20.76 257.46,-15.64"/>
<polygon fill="#63b8ff" stroke="#63b8ff" points="257.91,-19.11 267.16,-13.95 256.71,-12.21 257.91,-19.11"/>
</a>
</g>
</g>
<!-- Node6 -->
<g id="Node000006" class="node">
<title>Node6</title>
<g id="a_Node000006"><a xlink:title=" ">
<polygon fill="#e0e0e0" stroke="#999999" points="243.5,-77.5 191.5,-77.5 191.5,-56.75 243.5,-56.75 243.5,-77.5"/>
<text text-anchor="middle" x="217.5" y="-64" font-family="Helvetica,sans-Serif" font-size="10.00">stdlib.h</text>
</a>
</g>
</g>
<!-- Node2&#45;&gt;Node6 -->
<g id="edge5_Node000002_Node000006" class="edge">
<title>Node2&#45;&gt;Node6</title>
<g id="a_edge5_Node000002_Node000006"><a xlink:title=" ">
<path fill="none" stroke="#63b8ff" d="M217.5,-113.09C217.5,-106.47 217.5,-97.47 217.5,-89.27"/>
<polygon fill="#63b8ff" stroke="#63b8ff" points="221,-89.34 217.5,-79.34 214,-89.34 221,-89.34"/>
</a>
</g>
</g>
<!-- Node7 -->
<g id="Node000007" class="node">
<title>Node7</title>
<g id="a_Node000007"><a xlink:title=" ">
<polygon fill="#e0e0e0" stroke="#999999" points="313.88,-77.5 261.12,-77.5 261.12,-56.75 313.88,-56.75 313.88,-77.5"/>
<text text-anchor="middle" x="287.5" y="-64" font-family="Helvetica,sans-Serif" font-size="10.00">string.h</text>
</a>
</g>
</g>
<!-- Node2&#45;&gt;Node7 -->
<g id="edge6_Node000002_Node000007" class="edge">
<title>Node2&#45;&gt;Node7</title>
<g id="a_edge6_Node000002_Node000007"><a xlink:title=" ">
<path fill="none" stroke="#63b8ff" d="M230.01,-113.09C240.07,-105.22 254.41,-94 266.26,-84.74"/>
<polygon fill="#63b8ff" stroke="#63b8ff" points="268.18,-87.68 273.9,-78.76 263.87,-82.16 268.18,-87.68"/>
</a>
</g>
</g>
<!-- Node8 -->
<g id="Node000008" class="node">
<title>Node8</title>
<g id="a_Node000008"><a xlink:href="config_8h.html" target="_top" xlink:title="Константы">
<polygon fill="white" stroke="#666666" points="386.62,-77.5 332.38,-77.5 332.38,-56.75 386.62,-56.75 386.62,-77.5"/>
<text text-anchor="middle" x="359.5" y="-64" font-family="Helvetica,sans-Serif" font-size="10.00">config.h</text>
</a>
</g>
</g>
<!-- Node2&#45;&gt;Node8 -->
<g id="edge7_Node000002_Node000008" class="edge">
<title>Node2&#45;&gt;Node8</title>
<g id="a_edge7_Node000002_Node000008"><a xlink:title=" ">
<path fill="none" stroke="#63b8ff" d="M237.85,-115.03C260.09,-106.45 296.17,-92.54 323.27,-82.09"/>
<polygon fill="#63b8ff" stroke="#63b8ff" points="324.42,-85.4 332.49,-78.54 321.9,-78.87 324.42,-85.4"/>
</a>
</g>
</g>
<!-- Node9 -->
<g id="Node000009" class="node">
<title>Node9</title>
<g id="a_Node000009"><a xlink:href="ini_8h.html" target="_top" xlink:title=" ">
<polygon fill="white" stroke="#666666" points="442,-77.5 405,-77.5 405,-56.75 442,-56.75 442,-77.5"/>
<text text-anchor="middle" x="423.5" y="-64" font-family="Helvetica,sans-Serif" font-size="10.00">ini.h</text>
</a>
</g>
</g>
<!-- Node2&#45;&gt;Node9 -->
<g id="edge8_Node000002_Node000009" class="edge">
<title>Node2&#45;&gt;Node9</title>
<g id="a_edge8_Node000002_Node000009"><a xlink:title=" ">
<path fill="none" stroke="#63b8ff" d="M237.92,-118.19C269.33,-110.86 331.6,-95.92 393.79,-77.84"/>
<polygon fill="#63b8ff" stroke="#63b8ff" points="394.52,-81.27 403.13,-75.1 392.55,-74.56 394.52,-81.27"/>
</a>
</g>
</g>
<!-- Node9&#45;&gt;Node5 -->
<g id="edge9_Node000009_Node000005" class="edge">
<title>Node9&#45;&gt;Node5</title>
<g id="a_edge9_Node000009_Node000005"><a xlink:title=" ">
<path fill="none" stroke="#63b8ff" d="M404.6,-58.16C384.35,-49.64 351.82,-35.94 327.18,-25.56"/>
<polygon fill="#63b8ff" stroke="#63b8ff" points="328.79,-22.44 318.22,-21.79 326.08,-28.89 328.79,-22.44"/>
</a>
</g>
</g>
</g>
</svg>
