<?xml version="1.0" encoding="UTF-8" standalone="no"?>
<!DOCTYPE svg PUBLIC "-//W3C//DTD SVG 1.1//EN"
 "http://www.w3.org/Graphics/SVG/1.1/DTD/svg11.dtd">
<!-- Generated by graphviz version 12.2.1 (0)
 -->
<!-- Title: analyser Pages: 1 -->
<svg width="228pt" height="29pt"
 viewBox="0.00 0.00 227.75 28.75" xmlns="http://www.w3.org/2000/svg" xmlns:xlink="http://www.w3.org/1999/xlink">
<g id="graph0" class="graph" transform="scale(1 1) rotate(0) translate(4 24.75)">
<title>analyser</title>
<!-- Node1 -->
<g id="Node000001" class="node">
<title>Node1</title>
<g id="a_Node000001"><a xlink:title=" ">
<polygon fill="#999999" stroke="#666666" points="219.75,-20.75 161.75,-20.75 161.75,0 219.75,0 219.75,-20.75"/>
<text text-anchor="middle" x="190.75" y="-7.25" font-family="Helvetica,sans-Serif" font-size="10.00">analyser</text>
</a>
</g>
</g>
<!-- Node2 -->
<g id="Node000002" class="node">
<title>Node2</title>
<g id="a_Node000002"><a xlink:href="cfg_8c.html#ad73952ea092a41b4806ab170eb62f548" target="_top" xlink:title="Загружает ini в переменную config.">
<polygon fill="white" stroke="#666666" points="125.75,-20.75 76.75,-20.75 76.75,0 125.75,0 125.75,-20.75"/>
<text text-anchor="middle" x="101.25" y="-7.25" font-family="Helvetica,sans-Serif" font-size="10.00">loadIni</text>
</a>
</g>
</g>
<!-- Node1&#45;&gt;Node2 -->
<g id="edge1_Node000001_Node000002" class="edge">
<title>Node1&#45;&gt;Node2</title>
<g id="a_edge1_Node000001_Node000002"><a xlink:title=" ">
<path fill="none" stroke="#63b8ff" d="M150.16,-10.38C141.89,-10.38 133.43,-10.38 125.96,-10.38"/>
<polygon fill="#63b8ff" stroke="#63b8ff" points="150.07,-13.88 160.07,-10.38 150.07,-6.88 150.07,-13.88"/>
</a>
</g>
</g>
<!-- Node3 -->
<g id="Node000003" class="node">
<title>Node3</title>
<g id="a_Node000003"><a xlink:href="main_8c.html#a0ddf1224851353fc92bfbff6f499fa97" target="_top" xlink:title="Точка входа в программу">
<polygon fill="white" stroke="#666666" points="40.75,-20.75 0,-20.75 0,0 40.75,0 40.75,-20.75"/>
<text text-anchor="middle" x="20.38" y="-7.25" font-family="Helvetica,sans-Serif" font-size="10.00">main</text>
</a>
</g>
</g>
<!-- Node2&#45;&gt;Node3 -->
<g id="edge2_Node000002_Node000003" class="edge">
<title>Node2&#45;&gt;Node3</title>
<g id="a_edge2_Node000002_Node000003"><a xlink:title=" ">
<path fill="none" stroke="#63b8ff" d="M65.2,-10.38C56.91,-10.38 48.36,-10.38 41.04,-10.38"/>
<polygon fill="#63b8ff" stroke="#63b8ff" points="65.07,-13.88 75.07,-10.38 65.07,-6.88 65.07,-13.88"/>
</a>
</g>
</g>
</g>
</svg>
