<?xml version="1.0" encoding="UTF-8" standalone="no"?>
<!DOCTYPE svg PUBLIC "-//W3C//DTD SVG 1.1//EN"
 "http://www.w3.org/Graphics/SVG/1.1/DTD/svg11.dtd">
<!-- Generated by graphviz version 12.2.1 (0)
 -->
<!-- Title: loadIni Pages: 1 -->
<svg width="591pt" height="146pt"
 viewBox="0.00 0.00 591.25 145.75" xmlns="http://www.w3.org/2000/svg" xmlns:xlink="http://www.w3.org/1999/xlink">
<g id="graph0" class="graph" transform="scale(1 1) rotate(0) translate(4 141.75)">
<title>loadIni</title>
<!-- Node1 -->
<g id="Node000001" class="node">
<title>Node1</title>
<g id="a_Node000001"><a xlink:title="Загружает ini в переменную config.">
<polygon fill="#999999" stroke="#666666" points="49,-97.75 0,-97.75 0,-77 49,-77 49,-97.75"/>
<text text-anchor="middle" x="24.5" y="-84.25" font-family="Helvetica,sans-Serif" font-size="10.00">loadIni</text>
</a>
</g>
</g>
<!-- Node2 -->
<g id="Node000002" class="node">
<title>Node2</title>
<g id="a_Node000002"><a xlink:href="cfg_8c.html#a802ab649b7fede02c3ecbf5723fcfb8b" target="_top" xlink:title=" ">
<polygon fill="white" stroke="#666666" points="144.12,-117.75 86.12,-117.75 86.12,-97 144.12,-97 144.12,-117.75"/>
<text text-anchor="middle" x="115.12" y="-104.25" font-family="Helvetica,sans-Serif" font-size="10.00">analyser</text>
</a>
</g>
</g>
<!-- Node1&#45;&gt;Node2 -->
<g id="edge1_Node000001_Node000002" class="edge">
<title>Node1&#45;&gt;Node2</title>
<g id="a_edge1_Node000001_Node000002"><a xlink:title=" ">
<path fill="none" stroke="#63b8ff" d="M49.25,-92.73C57.09,-94.5 66.04,-96.52 74.73,-98.49"/>
<polygon fill="#63b8ff" stroke="#63b8ff" points="73.9,-101.88 84.42,-100.67 75.44,-95.06 73.9,-101.88"/>
</a>
</g>
</g>
<!-- Node3 -->
<g id="Node000003" class="node">
<title>Node3</title>
<g id="a_Node000003"><a xlink:href="ini_8c.html#a2fab292681265b7774e2a2885abb758c" target="_top" xlink:title=" ">
<polygon fill="white" stroke="#666666" points="145.25,-78.75 85,-78.75 85,-58 145.25,-58 145.25,-78.75"/>
<text text-anchor="middle" x="115.12" y="-65.25" font-family="Helvetica,sans-Serif" font-size="10.00">ini_parse</text>
</a>
</g>
</g>
<!-- Node1&#45;&gt;Node3 -->
<g id="edge2_Node000001_Node000003" class="edge">
<title>Node1&#45;&gt;Node3</title>
<g id="a_edge2_Node000001_Node000003"><a xlink:title=" ">
<path fill="none" stroke="#63b8ff" d="M49.25,-82.28C56.72,-80.68 65.2,-78.86 73.5,-77.08"/>
<polygon fill="#63b8ff" stroke="#63b8ff" points="74.08,-80.54 83.12,-75.02 72.61,-73.7 74.08,-80.54"/>
</a>
</g>
</g>
<!-- Node4 -->
<g id="Node000004" class="node">
<title>Node4</title>
<g id="a_Node000004"><a xlink:href="ini_8c.html#a876bf8b62ade275320db827b929f9289" target="_top" xlink:title=" ">
<polygon fill="white" stroke="#666666" points="261.75,-78.75 181.25,-78.75 181.25,-58 261.75,-58 261.75,-78.75"/>
<text text-anchor="middle" x="221.5" y="-65.25" font-family="Helvetica,sans-Serif" font-size="10.00">ini_parse_file</text>
</a>
</g>
</g>
<!-- Node3&#45;&gt;Node4 -->
<g id="edge3_Node000003_Node000004" class="edge">
<title>Node3&#45;&gt;Node4</title>
<g id="a_edge3_Node000003_Node000004"><a xlink:title=" ">
<path fill="none" stroke="#63b8ff" d="M145.48,-68.38C152.94,-68.38 161.17,-68.38 169.37,-68.38"/>
<polygon fill="#63b8ff" stroke="#63b8ff" points="169.34,-71.88 179.34,-68.38 169.34,-64.88 169.34,-71.88"/>
</a>
</g>
</g>
<!-- Node5 -->
<g id="Node000005" class="node">
<title>Node5</title>
<g id="a_Node000005"><a xlink:href="ini_8c.html#ad8b766ac18397b0b262559203ea7f602" target="_top" xlink:title=" ">
<polygon fill="white" stroke="#666666" points="397.75,-78.75 297.75,-78.75 297.75,-58 397.75,-58 397.75,-78.75"/>
<text text-anchor="middle" x="347.75" y="-65.25" font-family="Helvetica,sans-Serif" font-size="10.00">ini_parse_stream</text>
</a>
</g>
</g>
<!-- Node4&#45;&gt;Node5 -->
<g id="edge4_Node000004_Node000005" class="edge">
<title>Node4&#45;&gt;Node5</title>
<g id="a_edge4_Node000004_Node000005"><a xlink:title=" ">
<path fill="none" stroke="#63b8ff" d="M262.16,-68.38C269.78,-68.38 277.93,-68.38 286.05,-68.38"/>
<polygon fill="#63b8ff" stroke="#63b8ff" points="285.93,-71.88 295.93,-68.38 285.93,-64.88 285.93,-71.88"/>
</a>
</g>
</g>
<!-- Node6 -->
<g id="Node000006" class="node">
<title>Node6</title>
<g id="a_Node000006"><a xlink:href="ini_8c.html#a94d886b4c60efdbc34fafd51d6fa6aef" target="_top" xlink:title=" ">
<polygon fill="white" stroke="#666666" points="583.25,-137.75 433.75,-137.75 433.75,-117 583.25,-117 583.25,-137.75"/>
<text text-anchor="middle" x="508.5" y="-124.25" font-family="Helvetica,sans-Serif" font-size="10.00">ini_find_chars_or_comment</text>
</a>
</g>
</g>
<!-- Node5&#45;&gt;Node6 -->
<g id="edge5_Node000005_Node000006" class="edge">
<title>Node5&#45;&gt;Node6</title>
<g id="a_edge5_Node000005_Node000006"><a xlink:title=" ">
<path fill="none" stroke="#63b8ff" d="M369.65,-79.14C386.61,-87.59 411.31,-99.25 433.75,-107.38 439.74,-109.55 446.08,-111.61 452.43,-113.52"/>
<polygon fill="#63b8ff" stroke="#63b8ff" points="451.03,-116.76 461.61,-116.18 452.98,-110.03 451.03,-116.76"/>
</a>
</g>
</g>
<!-- Node7 -->
<g id="Node000007" class="node">
<title>Node7</title>
<g id="a_Node000007"><a xlink:href="ini_8c.html#a3dcb94a4fb0053e4c85ee6fa56cb48b5" target="_top" xlink:title=" ">
<polygon fill="white" stroke="#666666" points="536.75,-98.75 480.25,-98.75 480.25,-78 536.75,-78 536.75,-98.75"/>
<text text-anchor="middle" x="508.5" y="-85.25" font-family="Helvetica,sans-Serif" font-size="10.00">ini_lskip</text>
</a>
</g>
</g>
<!-- Node5&#45;&gt;Node7 -->
<g id="edge6_Node000005_Node000007" class="edge">
<title>Node5&#45;&gt;Node7</title>
<g id="a_edge6_Node000005_Node000007"><a xlink:title=" ">
<path fill="none" stroke="#63b8ff" d="M398.11,-74.59C420.84,-77.46 447.42,-80.81 468.69,-83.49"/>
<polygon fill="#63b8ff" stroke="#63b8ff" points="468.04,-86.93 478.4,-84.71 468.92,-79.99 468.04,-86.93"/>
</a>
</g>
</g>
<!-- Node8 -->
<g id="Node000008" class="node">
<title>Node8</title>
<g id="a_Node000008"><a xlink:href="ini_8c.html#a6720662d19174eab055f3a2d3ec5825c" target="_top" xlink:title=" ">
<polygon fill="white" stroke="#666666" points="537.88,-59.75 479.12,-59.75 479.12,-39 537.88,-39 537.88,-59.75"/>
<text text-anchor="middle" x="508.5" y="-46.25" font-family="Helvetica,sans-Serif" font-size="10.00">ini_rstrip</text>
</a>
</g>
</g>
<!-- Node5&#45;&gt;Node8 -->
<g id="edge7_Node000005_Node000008" class="edge">
<title>Node5&#45;&gt;Node8</title>
<g id="a_edge7_Node000005_Node000008"><a xlink:title=" ">
<path fill="none" stroke="#63b8ff" d="M398.11,-62.47C420.53,-59.78 446.71,-56.65 467.83,-54.12"/>
<polygon fill="#63b8ff" stroke="#63b8ff" points="467.97,-57.63 477.48,-52.97 467.14,-50.68 467.97,-57.63"/>
</a>
</g>
</g>
<!-- Node9 -->
<g id="Node000009" class="node">
<title>Node9</title>
<g id="a_Node000009"><a xlink:href="ini_8c.html#a167d3a11167d87db33c4d770f698367f" target="_top" xlink:title=" ">
<polygon fill="white" stroke="#666666" points="546.12,-20.75 470.88,-20.75 470.88,0 546.12,0 546.12,-20.75"/>
<text text-anchor="middle" x="508.5" y="-7.25" font-family="Helvetica,sans-Serif" font-size="10.00">ini_strncpy0</text>
</a>
</g>
</g>
<!-- Node5&#45;&gt;Node9 -->
<g id="edge8_Node000005_Node000009" class="edge">
<title>Node5&#45;&gt;Node9</title>
<g id="a_edge8_Node000005_Node000009"><a xlink:title=" ">
<path fill="none" stroke="#63b8ff" d="M370.38,-57.58C387.34,-49.39 411.67,-38.25 433.75,-30.38 441.92,-27.46 450.72,-24.73 459.3,-22.28"/>
<polygon fill="#63b8ff" stroke="#63b8ff" points="460.22,-25.66 468.93,-19.63 458.36,-18.91 460.22,-25.66"/>
</a>
</g>
</g>
</g>
</svg>
