<?xml version="1.0" encoding="UTF-8" standalone="no"?>
<!DOCTYPE svg PUBLIC "-//W3C//DTD SVG 1.1//EN"
 "http://www.w3.org/Graphics/SVG/1.1/DTD/svg11.dtd">
<!-- Generated by graphviz version 12.2.1 (0)
 -->
<!-- Title: src/config.h Pages: 1 -->
<svg width="304pt" height="199pt"
 viewBox="0.00 0.00 304.00 199.00" xmlns="http://www.w3.org/2000/svg" xmlns:xlink="http://www.w3.org/1999/xlink">
<g id="graph0" class="graph" transform="scale(1 1) rotate(0) translate(4 195)">
<title>src/config.h</title>
<!-- Node1 -->
<g id="Node000001" class="node">
<title>Node1</title>
<g id="a_Node000001"><a xlink:title="Конфигурация">
<polygon fill="#999999" stroke="#666666" points="150.88,-191 79.38,-191 79.38,-170.25 150.88,-170.25 150.88,-191"/>
<text text-anchor="middle" x="115.12" y="-177.5" font-family="Helvetica,sans-Serif" font-size="10.00">src/config.h</text>
</a>
</g>
</g>
<!-- Node2 -->
<g id="Node000002" class="node">
<title>Node2</title>
<g id="a_Node000002"><a xlink:href="fs_8h.html" target="_top" xlink:title="Модуль для работы с файловой системой">
<polygon fill="white" stroke="#666666" points="140.75,-134.25 89.5,-134.25 89.5,-113.5 140.75,-113.5 140.75,-134.25"/>
<text text-anchor="middle" x="115.12" y="-120.75" font-family="Helvetica,sans-Serif" font-size="10.00">src/fs.h</text>
</a>
</g>
</g>
<!-- Node1&#45;&gt;Node2 -->
<g id="edge1_Node000001_Node000002" class="edge">
<title>Node1&#45;&gt;Node2</title>
<g id="a_edge1_Node000001_Node000002"><a xlink:title=" ">
<path fill="none" stroke="#63b8ff" d="M115.12,-158.38C115.12,-150.16 115.12,-141.18 115.12,-134.58"/>
<polygon fill="#63b8ff" stroke="#63b8ff" points="111.63,-158.32 115.13,-168.32 118.63,-158.32 111.63,-158.32"/>
</a>
</g>
</g>
<!-- Node5 -->
<g id="Node000005" class="node">
<title>Node5</title>
<g id="a_Node000005"><a xlink:href="yt__dlp_8h.html" target="_top" xlink:title="Модуль для работы с yt&#45;dlp.">
<polygon fill="white" stroke="#666666" points="72.25,-77.5 0,-77.5 0,-56.75 72.25,-56.75 72.25,-77.5"/>
<text text-anchor="middle" x="36.12" y="-64" font-family="Helvetica,sans-Serif" font-size="10.00">src/yt_dlp.h</text>
</a>
</g>
</g>
<!-- Node1&#45;&gt;Node5 -->
<g id="edge10_Node000001_Node000005" class="edge">
<title>Node1&#45;&gt;Node5</title>
<g id="a_edge10_Node000001_Node000005"><a xlink:title=" ">
<path fill="none" stroke="#63b8ff" d="M100.34,-161.06C93.98,-152.93 86.55,-143.22 80.12,-134.25 65.98,-114.53 50.49,-90.67 42.19,-77.68"/>
<polygon fill="#63b8ff" stroke="#63b8ff" points="97.54,-163.16 106.48,-168.85 103.03,-158.83 97.54,-163.16"/>
</a>
</g>
</g>
<!-- Node7 -->
<g id="Node000007" class="node">
<title>Node7</title>
<g id="a_Node000007"><a xlink:href="user_8h.html" target="_top" xlink:title="Модуль для работы с юзером">
<polygon fill="white" stroke="#666666" points="237.38,-134.25 174.88,-134.25 174.88,-113.5 237.38,-113.5 237.38,-134.25"/>
<text text-anchor="middle" x="206.12" y="-120.75" font-family="Helvetica,sans-Serif" font-size="10.00">src/user.h</text>
</a>
</g>
</g>
<!-- Node1&#45;&gt;Node7 -->
<g id="edge7_Node000001_Node000007" class="edge">
<title>Node1&#45;&gt;Node7</title>
<g id="a_edge7_Node000001_Node000007"><a xlink:title=" ">
<path fill="none" stroke="#63b8ff" d="M141.09,-164.01C156.84,-154.53 176.45,-142.73 190,-134.58"/>
<polygon fill="#63b8ff" stroke="#63b8ff" points="139.46,-160.9 132.69,-169.06 143.06,-166.9 139.46,-160.9"/>
</a>
</g>
</g>
<!-- Node3 -->
<g id="Node000003" class="node">
<title>Node3</title>
<g id="a_Node000003"><a xlink:href="fs_8c.html" target="_top" xlink:title=" ">
<polygon fill="white" stroke="#666666" points="140.38,-77.5 89.88,-77.5 89.88,-56.75 140.38,-56.75 140.38,-77.5"/>
<text text-anchor="middle" x="115.12" y="-64" font-family="Helvetica,sans-Serif" font-size="10.00">src/fs.c</text>
</a>
</g>
</g>
<!-- Node2&#45;&gt;Node3 -->
<g id="edge2_Node000002_Node000003" class="edge">
<title>Node2&#45;&gt;Node3</title>
<g id="a_edge2_Node000002_Node000003"><a xlink:title=" ">
<path fill="none" stroke="#63b8ff" d="M115.12,-101.63C115.12,-93.41 115.12,-84.43 115.12,-77.83"/>
<polygon fill="#63b8ff" stroke="#63b8ff" points="111.63,-101.57 115.13,-111.57 118.63,-101.57 111.63,-101.57"/>
</a>
</g>
</g>
<!-- Node4 -->
<g id="Node000004" class="node">
<title>Node4</title>
<g id="a_Node000004"><a xlink:href="main_8c.html" target="_top" xlink:title="Прога для комфортного кача с YouTube.">
<polygon fill="white" stroke="#666666" points="201.25,-20.75 135,-20.75 135,0 201.25,0 201.25,-20.75"/>
<text text-anchor="middle" x="168.12" y="-7.25" font-family="Helvetica,sans-Serif" font-size="10.00">src/main.c</text>
</a>
</g>
</g>
<!-- Node2&#45;&gt;Node4 -->
<g id="edge3_Node000002_Node000004" class="edge">
<title>Node2&#45;&gt;Node4</title>
<g id="a_edge3_Node000002_Node000004"><a xlink:title=" ">
<path fill="none" stroke="#63b8ff" d="M131.32,-104.47C137.59,-96.59 144.39,-87.02 149.12,-77.5 158.48,-58.68 163.96,-34.48 166.46,-21.2"/>
<polygon fill="#63b8ff" stroke="#63b8ff" points="128.79,-102.04 125.07,-111.96 134.16,-106.53 128.79,-102.04"/>
</a>
</g>
</g>
<!-- Node2&#45;&gt;Node5 -->
<g id="edge4_Node000002_Node000005" class="edge">
<title>Node2&#45;&gt;Node5</title>
<g id="a_edge4_Node000002_Node000005"><a xlink:title=" ">
<path fill="none" stroke="#63b8ff" d="M91.8,-106.71C78.26,-97.33 61.66,-85.82 50.13,-77.83"/>
<polygon fill="#63b8ff" stroke="#63b8ff" points="89.54,-109.41 99.76,-112.22 93.53,-103.65 89.54,-109.41"/>
</a>
</g>
</g>
<!-- Node5&#45;&gt;Node4 -->
<g id="edge5_Node000005_Node000004" class="edge">
<title>Node5&#45;&gt;Node4</title>
<g id="a_edge5_Node000005_Node000004"><a xlink:title=" ">
<path fill="none" stroke="#63b8ff" d="M70.24,-51.97C93.63,-42.27 124.05,-29.66 144.73,-21.08"/>
<polygon fill="#63b8ff" stroke="#63b8ff" points="69.02,-48.69 61.12,-55.76 71.7,-55.16 69.02,-48.69"/>
</a>
</g>
</g>
<!-- Node6 -->
<g id="Node000006" class="node">
<title>Node6</title>
<g id="a_Node000006"><a xlink:href="yt__dlp_8c.html" target="_top" xlink:title=" ">
<polygon fill="white" stroke="#666666" points="71.88,-20.75 0.38,-20.75 0.38,0 71.88,0 71.88,-20.75"/>
<text text-anchor="middle" x="36.12" y="-7.25" font-family="Helvetica,sans-Serif" font-size="10.00">src/yt_dlp.c</text>
</a>
</g>
</g>
<!-- Node5&#45;&gt;Node6 -->
<g id="edge6_Node000005_Node000006" class="edge">
<title>Node5&#45;&gt;Node6</title>
<g id="a_edge6_Node000005_Node000006"><a xlink:title=" ">
<path fill="none" stroke="#63b8ff" d="M36.12,-44.88C36.12,-36.66 36.12,-27.68 36.12,-21.08"/>
<polygon fill="#63b8ff" stroke="#63b8ff" points="32.63,-44.82 36.13,-54.82 39.63,-44.82 32.63,-44.82"/>
</a>
</g>
</g>
<!-- Node7&#45;&gt;Node4 -->
<g id="edge8_Node000007_Node000004" class="edge">
<title>Node7&#45;&gt;Node4</title>
<g id="a_edge8_Node000007_Node000004"><a xlink:title=" ">
<path fill="none" stroke="#63b8ff" d="M199.23,-102.63C191.02,-78.56 177.65,-39.34 171.46,-21.18"/>
<polygon fill="#63b8ff" stroke="#63b8ff" points="195.86,-103.6 202.4,-111.94 202.48,-101.34 195.86,-103.6"/>
</a>
</g>
</g>
<!-- Node8 -->
<g id="Node000008" class="node">
<title>Node8</title>
<g id="a_Node000008"><a xlink:href="user_8c.html" target="_top" xlink:title=" ">
<polygon fill="white" stroke="#666666" points="296,-77.5 234.25,-77.5 234.25,-56.75 296,-56.75 296,-77.5"/>
<text text-anchor="middle" x="265.12" y="-64" font-family="Helvetica,sans-Serif" font-size="10.00">src/user.c</text>
</a>
</g>
</g>
<!-- Node7&#45;&gt;Node8 -->
<g id="edge9_Node000007_Node000008" class="edge">
<title>Node7&#45;&gt;Node8</title>
<g id="a_edge9_Node000007_Node000008"><a xlink:title=" ">
<path fill="none" stroke="#63b8ff" d="M225.03,-105.33C234.85,-96.22 246.47,-85.43 254.67,-77.83"/>
<polygon fill="#63b8ff" stroke="#63b8ff" points="222.73,-102.69 217.78,-112.06 227.49,-107.82 222.73,-102.69"/>
</a>
</g>
</g>
</g>
</svg>
