<?xml version="1.0" encoding="UTF-8" standalone="no"?>
<!DOCTYPE svg PUBLIC "-//W3C//DTD SVG 1.1//EN"
 "http://www.w3.org/Graphics/SVG/1.1/DTD/svg11.dtd">
<!-- Generated by graphviz version 12.2.1 (0)
 -->
<!-- Title: src/config.h Pages: 1 -->
<svg width="431pt" height="256pt"
 viewBox="0.00 0.00 431.00 255.75" xmlns="http://www.w3.org/2000/svg" xmlns:xlink="http://www.w3.org/1999/xlink">
<g id="graph0" class="graph" transform="scale(1 1) rotate(0) translate(4 251.75)">
<title>src/config.h</title>
<!-- Node1 -->
<g id="Node000001" class="node">
<title>Node1</title>
<g id="a_Node000001"><a xlink:title="Константы">
<polygon fill="#999999" stroke="#666666" points="219.88,-247.75 148.38,-247.75 148.38,-227 219.88,-227 219.88,-247.75"/>
<text text-anchor="middle" x="184.12" y="-234.25" font-family="Helvetica,sans-Serif" font-size="10.00">src/config.h</text>
</a>
</g>
</g>
<!-- Node2 -->
<g id="Node000002" class="node">
<title>Node2</title>
<g id="a_Node000002"><a xlink:href="cfg_8h.html" target="_top" xlink:title="Анализирует конфигурацию в config.ini.">
<polygon fill="white" stroke="#666666" points="212.75,-191 155.5,-191 155.5,-170.25 212.75,-170.25 212.75,-191"/>
<text text-anchor="middle" x="184.12" y="-177.5" font-family="Helvetica,sans-Serif" font-size="10.00">src/cfg.h</text>
</a>
</g>
</g>
<!-- Node1&#45;&gt;Node2 -->
<g id="edge1_Node000001_Node000002" class="edge">
<title>Node1&#45;&gt;Node2</title>
<g id="a_edge1_Node000001_Node000002"><a xlink:title=" ">
<path fill="none" stroke="#63b8ff" d="M184.12,-215.13C184.12,-206.91 184.12,-197.93 184.12,-191.33"/>
<polygon fill="#63b8ff" stroke="#63b8ff" points="180.63,-215.07 184.13,-225.07 187.63,-215.07 180.63,-215.07"/>
</a>
</g>
</g>
<!-- Node4 -->
<g id="Node000004" class="node">
<title>Node4</title>
<g id="a_Node000004"><a xlink:href="fs_8h.html" target="_top" xlink:title="Модуль для работы с файловой системой">
<polygon fill="white" stroke="#666666" points="153.75,-134.25 102.5,-134.25 102.5,-113.5 153.75,-113.5 153.75,-134.25"/>
<text text-anchor="middle" x="128.12" y="-120.75" font-family="Helvetica,sans-Serif" font-size="10.00">src/fs.h</text>
</a>
</g>
</g>
<!-- Node1&#45;&gt;Node4 -->
<g id="edge11_Node000001_Node000004" class="edge">
<title>Node1&#45;&gt;Node4</title>
<g id="a_edge11_Node000001_Node000004"><a xlink:title=" ">
<path fill="none" stroke="#63b8ff" d="M165.82,-218.23C158.8,-210.41 151.26,-200.82 146.12,-191 136.32,-172.23 131.45,-147.59 129.39,-134.32"/>
<polygon fill="#63b8ff" stroke="#63b8ff" points="163.19,-220.55 172.61,-225.41 168.28,-215.74 163.19,-220.55"/>
</a>
</g>
</g>
<!-- Node6 -->
<g id="Node000006" class="node">
<title>Node6</title>
<g id="a_Node000006"><a xlink:href="main_8c.html" target="_top" xlink:title="Прога для комфортного кача с YouTube.">
<polygon fill="white" stroke="#666666" points="239.25,-20.75 173,-20.75 173,0 239.25,0 239.25,-20.75"/>
<text text-anchor="middle" x="206.12" y="-7.25" font-family="Helvetica,sans-Serif" font-size="10.00">src/main.c</text>
</a>
</g>
</g>
<!-- Node1&#45;&gt;Node6 -->
<g id="edge12_Node000001_Node000006" class="edge">
<title>Node1&#45;&gt;Node6</title>
<g id="a_edge12_Node000001_Node000006"><a xlink:title=" ">
<path fill="none" stroke="#63b8ff" d="M206.67,-219.73C229.16,-201.6 262.28,-170.31 276.12,-134.25 293.38,-89.33 243.18,-41.17 218.7,-21.06"/>
<polygon fill="#63b8ff" stroke="#63b8ff" points="204.7,-216.83 198.97,-225.75 209.01,-222.35 204.7,-216.83"/>
</a>
</g>
</g>
<!-- Node7 -->
<g id="Node000007" class="node">
<title>Node7</title>
<g id="a_Node000007"><a xlink:href="yt__dlp_8h.html" target="_top" xlink:title="Модуль для работы с yt&#45;dlp.">
<polygon fill="white" stroke="#666666" points="72.25,-77.5 0,-77.5 0,-56.75 72.25,-56.75 72.25,-77.5"/>
<text text-anchor="middle" x="36.12" y="-64" font-family="Helvetica,sans-Serif" font-size="10.00">src/yt_dlp.h</text>
</a>
</g>
</g>
<!-- Node1&#45;&gt;Node7 -->
<g id="edge16_Node000001_Node000007" class="edge">
<title>Node1&#45;&gt;Node7</title>
<g id="a_edge16_Node000001_Node000007"><a xlink:title=" ">
<path fill="none" stroke="#63b8ff" d="M160.36,-219.93C134.97,-201.42 94.78,-169.33 68.12,-134.25 54.39,-116.18 44.28,-91.27 39.4,-77.77"/>
<polygon fill="#63b8ff" stroke="#63b8ff" points="158.22,-222.7 168.39,-225.68 162.29,-217.01 158.22,-222.7"/>
</a>
</g>
</g>
<!-- Node9 -->
<g id="Node000009" class="node">
<title>Node9</title>
<g id="a_Node000009"><a xlink:href="user_8h.html" target="_top" xlink:title="Модуль для работы с юзером">
<polygon fill="white" stroke="#666666" points="385.38,-191 322.88,-191 322.88,-170.25 385.38,-170.25 385.38,-191"/>
<text text-anchor="middle" x="354.12" y="-177.5" font-family="Helvetica,sans-Serif" font-size="10.00">src/user.h</text>
</a>
</g>
</g>
<!-- Node1&#45;&gt;Node9 -->
<g id="edge13_Node000001_Node000009" class="edge">
<title>Node1&#45;&gt;Node9</title>
<g id="a_edge13_Node000001_Node000009"><a xlink:title=" ">
<path fill="none" stroke="#63b8ff" d="M225.19,-223.15C255.55,-213.37 296.23,-200.27 323.71,-191.42"/>
<polygon fill="#63b8ff" stroke="#63b8ff" points="224.4,-219.73 215.96,-226.12 226.55,-226.39 224.4,-219.73"/>
</a>
</g>
</g>
<!-- Node3 -->
<g id="Node000003" class="node">
<title>Node3</title>
<g id="a_Node000003"><a xlink:href="cfg_8c.html" target="_top" xlink:title=" ">
<polygon fill="white" stroke="#666666" points="267.38,-134.25 210.88,-134.25 210.88,-113.5 267.38,-113.5 267.38,-134.25"/>
<text text-anchor="middle" x="239.12" y="-120.75" font-family="Helvetica,sans-Serif" font-size="10.00">src/cfg.c</text>
</a>
</g>
</g>
<!-- Node2&#45;&gt;Node3 -->
<g id="edge2_Node000002_Node000003" class="edge">
<title>Node2&#45;&gt;Node3</title>
<g id="a_edge2_Node000002_Node000003"><a xlink:title=" ">
<path fill="none" stroke="#63b8ff" d="M202.03,-161.8C211.12,-152.75 221.81,-142.11 229.38,-134.58"/>
<polygon fill="#63b8ff" stroke="#63b8ff" points="199.65,-159.23 195.03,-168.77 204.59,-164.19 199.65,-159.23"/>
</a>
</g>
</g>
<!-- Node2&#45;&gt;Node4 -->
<g id="edge3_Node000002_Node000004" class="edge">
<title>Node2&#45;&gt;Node4</title>
<g id="a_edge3_Node000002_Node000004"><a xlink:title=" ">
<path fill="none" stroke="#63b8ff" d="M165.89,-161.8C156.64,-152.75 145.75,-142.11 138.05,-134.58"/>
<polygon fill="#63b8ff" stroke="#63b8ff" points="163.43,-164.29 173.03,-168.78 168.33,-159.29 163.43,-164.29"/>
</a>
</g>
</g>
<!-- Node2&#45;&gt;Node6 -->
<g id="edge9_Node000002_Node000006" class="edge">
<title>Node2&#45;&gt;Node6</title>
<g id="a_edge9_Node000002_Node000006"><a xlink:title=" ">
<path fill="none" stroke="#63b8ff" d="M186.83,-158.91C191.61,-122.4 201.34,-47.96 204.84,-21.22"/>
<polygon fill="#63b8ff" stroke="#63b8ff" points="183.39,-158.23 185.57,-168.6 190.33,-159.13 183.39,-158.23"/>
</a>
</g>
</g>
<!-- Node2&#45;&gt;Node7 -->
<g id="edge10_Node000002_Node000007" class="edge">
<title>Node2&#45;&gt;Node7</title>
<g id="a_edge10_Node000002_Node000007"><a xlink:title=" ">
<path fill="none" stroke="#63b8ff" d="M147.46,-165.35C130.05,-157.6 109.51,-146.99 93.12,-134.25 71.59,-117.5 52.16,-91.61 42.52,-77.72"/>
<polygon fill="#63b8ff" stroke="#63b8ff" points="145.87,-168.48 156.44,-169.2 148.63,-162.05 145.87,-168.48"/>
</a>
</g>
</g>
<!-- Node5 -->
<g id="Node000005" class="node">
<title>Node5</title>
<g id="a_Node000005"><a xlink:href="fs_8c.html" target="_top" xlink:title=" ">
<polygon fill="white" stroke="#666666" points="140.38,-77.5 89.88,-77.5 89.88,-56.75 140.38,-56.75 140.38,-77.5"/>
<text text-anchor="middle" x="115.12" y="-64" font-family="Helvetica,sans-Serif" font-size="10.00">src/fs.c</text>
</a>
</g>
</g>
<!-- Node4&#45;&gt;Node5 -->
<g id="edge4_Node000004_Node000005" class="edge">
<title>Node4&#45;&gt;Node5</title>
<g id="a_edge4_Node000004_Node000005"><a xlink:title=" ">
<path fill="none" stroke="#63b8ff" d="M123.15,-101.92C121.18,-93.63 119.01,-84.5 117.43,-77.83"/>
<polygon fill="#63b8ff" stroke="#63b8ff" points="119.74,-102.69 125.45,-111.61 126.55,-101.08 119.74,-102.69"/>
</a>
</g>
</g>
<!-- Node4&#45;&gt;Node6 -->
<g id="edge5_Node000004_Node000006" class="edge">
<title>Node4&#45;&gt;Node6</title>
<g id="a_edge5_Node000004_Node000006"><a xlink:title=" ">
<path fill="none" stroke="#63b8ff" d="M141.37,-103.94C158.12,-79.99 186.33,-39.67 199.27,-21.18"/>
<polygon fill="#63b8ff" stroke="#63b8ff" points="138.51,-101.93 135.64,-112.13 144.24,-105.94 138.51,-101.93"/>
</a>
</g>
</g>
<!-- Node4&#45;&gt;Node7 -->
<g id="edge6_Node000004_Node000007" class="edge">
<title>Node4&#45;&gt;Node7</title>
<g id="a_edge6_Node000004_Node000007"><a xlink:title=" ">
<path fill="none" stroke="#63b8ff" d="M101.88,-107.26C85.95,-97.78 66.12,-85.98 52.43,-77.83"/>
<polygon fill="#63b8ff" stroke="#63b8ff" points="99.99,-110.21 110.38,-112.31 103.57,-104.19 99.99,-110.21"/>
</a>
</g>
</g>
<!-- Node7&#45;&gt;Node6 -->
<g id="edge7_Node000007_Node000006" class="edge">
<title>Node7&#45;&gt;Node6</title>
<g id="a_edge7_Node000007_Node000006"><a xlink:title=" ">
<path fill="none" stroke="#63b8ff" d="M77.19,-52.9C107.55,-43.12 148.23,-30.02 175.71,-21.17"/>
<polygon fill="#63b8ff" stroke="#63b8ff" points="76.4,-49.48 67.96,-55.87 78.55,-56.14 76.4,-49.48"/>
</a>
</g>
</g>
<!-- Node8 -->
<g id="Node000008" class="node">
<title>Node8</title>
<g id="a_Node000008"><a xlink:href="yt__dlp_8c.html" target="_top" xlink:title=" ">
<polygon fill="white" stroke="#666666" points="71.88,-20.75 0.38,-20.75 0.38,0 71.88,0 71.88,-20.75"/>
<text text-anchor="middle" x="36.12" y="-7.25" font-family="Helvetica,sans-Serif" font-size="10.00">src/yt_dlp.c</text>
</a>
</g>
</g>
<!-- Node7&#45;&gt;Node8 -->
<g id="edge8_Node000007_Node000008" class="edge">
<title>Node7&#45;&gt;Node8</title>
<g id="a_edge8_Node000007_Node000008"><a xlink:title=" ">
<path fill="none" stroke="#63b8ff" d="M36.12,-44.88C36.12,-36.66 36.12,-27.68 36.12,-21.08"/>
<polygon fill="#63b8ff" stroke="#63b8ff" points="32.63,-44.82 36.13,-54.82 39.63,-44.82 32.63,-44.82"/>
</a>
</g>
</g>
<!-- Node9&#45;&gt;Node6 -->
<g id="edge14_Node000009_Node000006" class="edge">
<title>Node9&#45;&gt;Node6</title>
<g id="a_edge14_Node000009_Node000006"><a xlink:title=" ">
<path fill="none" stroke="#63b8ff" d="M351.58,-158.93C347.29,-132.19 336.23,-85.64 309.12,-56.75 290.54,-36.94 261.77,-25.27 239.36,-18.73"/>
<polygon fill="#63b8ff" stroke="#63b8ff" points="348.07,-159.09 352.94,-168.5 355,-158.11 348.07,-159.09"/>
</a>
</g>
</g>
<!-- Node10 -->
<g id="Node000010" class="node">
<title>Node10</title>
<g id="a_Node000010"><a xlink:href="user_8c.html" target="_top" xlink:title=" ">
<polygon fill="white" stroke="#666666" points="423,-134.25 361.25,-134.25 361.25,-113.5 423,-113.5 423,-134.25"/>
<text text-anchor="middle" x="392.12" y="-120.75" font-family="Helvetica,sans-Serif" font-size="10.00">src/user.c</text>
</a>
</g>
</g>
<!-- Node9&#45;&gt;Node10 -->
<g id="edge15_Node000009_Node000010" class="edge">
<title>Node9&#45;&gt;Node10</title>
<g id="a_edge15_Node000009_Node000010"><a xlink:title=" ">
<path fill="none" stroke="#63b8ff" d="M367.48,-160.39C373.53,-151.66 380.43,-141.72 385.39,-134.58"/>
<polygon fill="#63b8ff" stroke="#63b8ff" points="364.61,-158.38 361.78,-168.59 370.36,-162.37 364.61,-158.38"/>
</a>
</g>
</g>
</g>
</svg>
