<?xml version="1.0" encoding="UTF-8" standalone="no"?>
<!DOCTYPE svg PUBLIC "-//W3C//DTD SVG 1.1//EN"
 "http://www.w3.org/Graphics/SVG/1.1/DTD/svg11.dtd">
<!-- Generated by graphviz version 12.2.1 (0)
 -->
<!-- Title: src/config.h Pages: 1 -->
<svg width="342pt" height="199pt"
 viewBox="0.00 0.00 342.00 199.00" xmlns="http://www.w3.org/2000/svg" xmlns:xlink="http://www.w3.org/1999/xlink">
<g id="graph0" class="graph" transform="scale(1 1) rotate(0) translate(4 195)">
<title>src/config.h</title>
<!-- Node1 -->
<g id="Node000001" class="node">
<title>Node1</title>
<g id="a_Node000001"><a xlink:title="Конфигурация">
<polygon fill="#999999" stroke="#666666" points="213.88,-191 142.38,-191 142.38,-170.25 213.88,-170.25 213.88,-191"/>
<text text-anchor="middle" x="178.12" y="-177.5" font-family="Helvetica,sans-Serif" font-size="10.00">src/config.h</text>
</a>
</g>
</g>
<!-- Node2 -->
<g id="Node000002" class="node">
<title>Node2</title>
<g id="a_Node000002"><a xlink:href="fs_8h.html" target="_top" xlink:title="Модуль для работы с файловой системой">
<polygon fill="white" stroke="#666666" points="158.75,-134.25 107.5,-134.25 107.5,-113.5 158.75,-113.5 158.75,-134.25"/>
<text text-anchor="middle" x="133.12" y="-120.75" font-family="Helvetica,sans-Serif" font-size="10.00">src/fs.h</text>
</a>
</g>
</g>
<!-- Node1&#45;&gt;Node2 -->
<g id="edge1_Node000001_Node000002" class="edge">
<title>Node1&#45;&gt;Node2</title>
<g id="a_edge1_Node000001_Node000002"><a xlink:title=" ">
<path fill="none" stroke="#63b8ff" d="M162.78,-160.96C155.5,-152.09 147.1,-141.87 141.1,-134.58"/>
<polygon fill="#63b8ff" stroke="#63b8ff" points="160.07,-163.16 169.12,-168.67 165.47,-158.72 160.07,-163.16"/>
</a>
</g>
</g>
<!-- Node4 -->
<g id="Node000004" class="node">
<title>Node4</title>
<g id="a_Node000004"><a xlink:href="main_8c.html" target="_top" xlink:title="Прога для комфортного кача с YouTube.">
<polygon fill="white" stroke="#666666" points="220.25,-20.75 154,-20.75 154,0 220.25,0 220.25,-20.75"/>
<text text-anchor="middle" x="187.12" y="-7.25" font-family="Helvetica,sans-Serif" font-size="10.00">src/main.c</text>
</a>
</g>
</g>
<!-- Node1&#45;&gt;Node4 -->
<g id="edge7_Node000001_Node000004" class="edge">
<title>Node1&#45;&gt;Node4</title>
<g id="a_edge7_Node000001_Node000004"><a xlink:title=" ">
<path fill="none" stroke="#63b8ff" d="M179.23,-158.91C181.19,-122.4 185.17,-47.96 186.6,-21.22"/>
<polygon fill="#63b8ff" stroke="#63b8ff" points="175.75,-158.41 178.72,-168.59 182.74,-158.79 175.75,-158.41"/>
</a>
</g>
</g>
<!-- Node5 -->
<g id="Node000005" class="node">
<title>Node5</title>
<g id="a_Node000005"><a xlink:href="yt__dlp_8h.html" target="_top" xlink:title="Модуль для работы с yt&#45;dlp.">
<polygon fill="white" stroke="#666666" points="72.25,-77.5 0,-77.5 0,-56.75 72.25,-56.75 72.25,-77.5"/>
<text text-anchor="middle" x="36.12" y="-64" font-family="Helvetica,sans-Serif" font-size="10.00">src/yt_dlp.h</text>
</a>
</g>
</g>
<!-- Node1&#45;&gt;Node5 -->
<g id="edge11_Node000001_Node000005" class="edge">
<title>Node1&#45;&gt;Node5</title>
<g id="a_edge11_Node000001_Node000005"><a xlink:title=" ">
<path fill="none" stroke="#63b8ff" d="M146.91,-164.73C131.53,-156.71 113.11,-146.04 98.12,-134.25 76.11,-116.93 54.74,-91.72 43.75,-77.98"/>
<polygon fill="#63b8ff" stroke="#63b8ff" points="145.15,-167.76 155.65,-169.16 148.31,-161.52 145.15,-167.76"/>
</a>
</g>
</g>
<!-- Node7 -->
<g id="Node000007" class="node">
<title>Node7</title>
<g id="a_Node000007"><a xlink:href="user_8h.html" target="_top" xlink:title="Модуль для работы с юзером">
<polygon fill="white" stroke="#666666" points="296.38,-134.25 233.88,-134.25 233.88,-113.5 296.38,-113.5 296.38,-134.25"/>
<text text-anchor="middle" x="265.12" y="-120.75" font-family="Helvetica,sans-Serif" font-size="10.00">src/user.h</text>
</a>
</g>
</g>
<!-- Node1&#45;&gt;Node7 -->
<g id="edge8_Node000001_Node000007" class="edge">
<title>Node1&#45;&gt;Node7</title>
<g id="a_edge8_Node000001_Node000007"><a xlink:title=" ">
<path fill="none" stroke="#63b8ff" d="M203.38,-163.73C218.36,-154.3 236.88,-142.65 249.71,-134.58"/>
<polygon fill="#63b8ff" stroke="#63b8ff" points="201.56,-160.74 194.96,-169.03 205.29,-166.67 201.56,-160.74"/>
</a>
</g>
</g>
<!-- Node3 -->
<g id="Node000003" class="node">
<title>Node3</title>
<g id="a_Node000003"><a xlink:href="fs_8c.html" target="_top" xlink:title=" ">
<polygon fill="white" stroke="#666666" points="140.38,-77.5 89.88,-77.5 89.88,-56.75 140.38,-56.75 140.38,-77.5"/>
<text text-anchor="middle" x="115.12" y="-64" font-family="Helvetica,sans-Serif" font-size="10.00">src/fs.c</text>
</a>
</g>
</g>
<!-- Node2&#45;&gt;Node3 -->
<g id="edge2_Node000002_Node000003" class="edge">
<title>Node2&#45;&gt;Node3</title>
<g id="a_edge2_Node000002_Node000003"><a xlink:title=" ">
<path fill="none" stroke="#63b8ff" d="M126.33,-102.21C123.58,-93.84 120.54,-84.58 118.32,-77.83"/>
<polygon fill="#63b8ff" stroke="#63b8ff" points="122.99,-103.24 129.43,-111.65 129.64,-101.06 122.99,-103.24"/>
</a>
</g>
</g>
<!-- Node2&#45;&gt;Node4 -->
<g id="edge3_Node000002_Node000004" class="edge">
<title>Node2&#45;&gt;Node4</title>
<g id="a_edge3_Node000002_Node000004"><a xlink:title=" ">
<path fill="none" stroke="#63b8ff" d="M142.61,-103.29C154.24,-79.27 173.5,-39.5 182.38,-21.18"/>
<polygon fill="#63b8ff" stroke="#63b8ff" points="139.6,-101.48 138.39,-112.01 145.9,-104.53 139.6,-101.48"/>
</a>
</g>
</g>
<!-- Node2&#45;&gt;Node5 -->
<g id="edge4_Node000002_Node000005" class="edge">
<title>Node2&#45;&gt;Node5</title>
<g id="a_edge4_Node000002_Node000005"><a xlink:title=" ">
<path fill="none" stroke="#63b8ff" d="M105.93,-107.53C89.06,-98 67.89,-86.06 53.32,-77.83"/>
<polygon fill="#63b8ff" stroke="#63b8ff" points="104.04,-110.48 114.47,-112.34 107.48,-104.38 104.04,-110.48"/>
</a>
</g>
</g>
<!-- Node5&#45;&gt;Node4 -->
<g id="edge5_Node000005_Node000004" class="edge">
<title>Node5&#45;&gt;Node4</title>
<g id="a_edge5_Node000005_Node000004"><a xlink:title=" ">
<path fill="none" stroke="#63b8ff" d="M73.67,-52.51C100.52,-42.78 136.02,-29.9 160.11,-21.17"/>
<polygon fill="#63b8ff" stroke="#63b8ff" points="72.75,-49.12 64.54,-55.82 75.14,-55.7 72.75,-49.12"/>
</a>
</g>
</g>
<!-- Node6 -->
<g id="Node000006" class="node">
<title>Node6</title>
<g id="a_Node000006"><a xlink:href="yt__dlp_8c.html" target="_top" xlink:title=" ">
<polygon fill="white" stroke="#666666" points="71.88,-20.75 0.38,-20.75 0.38,0 71.88,0 71.88,-20.75"/>
<text text-anchor="middle" x="36.12" y="-7.25" font-family="Helvetica,sans-Serif" font-size="10.00">src/yt_dlp.c</text>
</a>
</g>
</g>
<!-- Node5&#45;&gt;Node6 -->
<g id="edge6_Node000005_Node000006" class="edge">
<title>Node5&#45;&gt;Node6</title>
<g id="a_edge6_Node000005_Node000006"><a xlink:title=" ">
<path fill="none" stroke="#63b8ff" d="M36.12,-44.88C36.12,-36.66 36.12,-27.68 36.12,-21.08"/>
<polygon fill="#63b8ff" stroke="#63b8ff" points="32.63,-44.82 36.13,-54.82 39.63,-44.82 32.63,-44.82"/>
</a>
</g>
</g>
<!-- Node7&#45;&gt;Node4 -->
<g id="edge9_Node000007_Node000004" class="edge">
<title>Node7&#45;&gt;Node4</title>
<g id="a_edge9_Node000007_Node000004"><a xlink:title=" ">
<path fill="none" stroke="#63b8ff" d="M252.45,-103.92C243.52,-90.64 231.22,-72.52 220.12,-56.75 211.38,-44.32 201.04,-30.19 194.29,-21.05"/>
<polygon fill="#63b8ff" stroke="#63b8ff" points="249.49,-105.78 257.97,-112.14 255.3,-101.88 249.49,-105.78"/>
</a>
</g>
</g>
<!-- Node8 -->
<g id="Node000008" class="node">
<title>Node8</title>
<g id="a_Node000008"><a xlink:href="user_8c.html" target="_top" xlink:title=" ">
<polygon fill="white" stroke="#666666" points="334,-77.5 272.25,-77.5 272.25,-56.75 334,-56.75 334,-77.5"/>
<text text-anchor="middle" x="303.12" y="-64" font-family="Helvetica,sans-Serif" font-size="10.00">src/user.c</text>
</a>
</g>
</g>
<!-- Node7&#45;&gt;Node8 -->
<g id="edge10_Node000007_Node000008" class="edge">
<title>Node7&#45;&gt;Node8</title>
<g id="a_edge10_Node000007_Node000008"><a xlink:title=" ">
<path fill="none" stroke="#63b8ff" d="M278.48,-103.64C284.53,-94.91 291.43,-84.97 296.39,-77.83"/>
<polygon fill="#63b8ff" stroke="#63b8ff" points="275.61,-101.63 272.78,-111.84 281.36,-105.62 275.61,-101.63"/>
</a>
</g>
</g>
</g>
</svg>
