<?xml version="1.0" encoding="UTF-8" standalone="no"?>
<!DOCTYPE svg PUBLIC "-//W3C//DTD SVG 1.1//EN"
 "http://www.w3.org/Graphics/SVG/1.1/DTD/svg11.dtd">
<!-- Generated by graphviz version 12.2.1 (0)
 -->
<!-- Title: src/fs.h Pages: 1 -->
<svg width="209pt" height="142pt"
 viewBox="0.00 0.00 209.00 142.25" xmlns="http://www.w3.org/2000/svg" xmlns:xlink="http://www.w3.org/1999/xlink">
<g id="graph0" class="graph" transform="scale(1 1) rotate(0) translate(4 138.25)">
<title>src/fs.h</title>
<!-- Node1 -->
<g id="Node000001" class="node">
<title>Node1</title>
<g id="a_Node000001"><a xlink:title="Модуль для работы с файловой системой">
<polygon fill="#999999" stroke="#666666" points="103.88,-134.25 52.62,-134.25 52.62,-113.5 103.88,-113.5 103.88,-134.25"/>
<text text-anchor="middle" x="78.25" y="-120.75" font-family="Helvetica,sans-Serif" font-size="10.00">src/fs.h</text>
</a>
</g>
</g>
<!-- Node2 -->
<g id="Node000002" class="node">
<title>Node2</title>
<g id="a_Node000002"><a xlink:href="fs_8c.html" target="_top" xlink:title=" ">
<polygon fill="white" stroke="#666666" points="50.5,-77.5 0,-77.5 0,-56.75 50.5,-56.75 50.5,-77.5"/>
<text text-anchor="middle" x="25.25" y="-64" font-family="Helvetica,sans-Serif" font-size="10.00">src/fs.c</text>
</a>
</g>
</g>
<!-- Node1&#45;&gt;Node2 -->
<g id="edge1_Node000001_Node000002" class="edge">
<title>Node1&#45;&gt;Node2</title>
<g id="a_edge1_Node000001_Node000002"><a xlink:title=" ">
<path fill="none" stroke="#63b8ff" d="M61,-105.05C52.23,-96 41.93,-85.36 34.64,-77.83"/>
<polygon fill="#63b8ff" stroke="#63b8ff" points="58.25,-107.25 67.72,-112 63.28,-102.38 58.25,-107.25"/>
</a>
</g>
</g>
<!-- Node3 -->
<g id="Node000003" class="node">
<title>Node3</title>
<g id="a_Node000003"><a xlink:href="main_8c.html" target="_top" xlink:title="Прога для комфортного кача с YouTube.">
<polygon fill="white" stroke="#666666" points="111.38,-20.75 45.12,-20.75 45.12,0 111.38,0 111.38,-20.75"/>
<text text-anchor="middle" x="78.25" y="-7.25" font-family="Helvetica,sans-Serif" font-size="10.00">src/main.c</text>
</a>
</g>
</g>
<!-- Node1&#45;&gt;Node3 -->
<g id="edge2_Node000001_Node000003" class="edge">
<title>Node1&#45;&gt;Node3</title>
<g id="a_edge2_Node000001_Node000003"><a xlink:title=" ">
<path fill="none" stroke="#63b8ff" d="M78.25,-101.97C78.25,-77.84 78.25,-39.17 78.25,-21.18"/>
<polygon fill="#63b8ff" stroke="#63b8ff" points="74.75,-101.85 78.25,-111.86 81.75,-101.86 74.75,-101.85"/>
</a>
</g>
</g>
<!-- Node4 -->
<g id="Node000004" class="node">
<title>Node4</title>
<g id="a_Node000004"><a xlink:href="yt__dlp_8h.html" target="_top" xlink:title="Модуль для работы с yt&#45;dlp.">
<polygon fill="white" stroke="#666666" points="178.38,-77.5 106.12,-77.5 106.12,-56.75 178.38,-56.75 178.38,-77.5"/>
<text text-anchor="middle" x="142.25" y="-64" font-family="Helvetica,sans-Serif" font-size="10.00">src/yt_dlp.h</text>
</a>
</g>
</g>
<!-- Node1&#45;&gt;Node4 -->
<g id="edge3_Node000001_Node000004" class="edge">
<title>Node1&#45;&gt;Node4</title>
<g id="a_edge3_Node000001_Node000004"><a xlink:title=" ">
<path fill="none" stroke="#63b8ff" d="M98.43,-105.61C109.15,-96.44 121.92,-85.51 130.91,-77.83"/>
<polygon fill="#63b8ff" stroke="#63b8ff" points="96.17,-102.94 90.84,-112.1 100.72,-108.26 96.17,-102.94"/>
</a>
</g>
</g>
<!-- Node4&#45;&gt;Node3 -->
<g id="edge4_Node000004_Node000003" class="edge">
<title>Node4&#45;&gt;Node3</title>
<g id="a_edge4_Node000004_Node000003"><a xlink:title=" ">
<path fill="none" stroke="#63b8ff" d="M122.07,-48.86C111.35,-39.69 98.58,-28.76 89.59,-21.08"/>
<polygon fill="#63b8ff" stroke="#63b8ff" points="119.78,-51.51 129.66,-55.35 124.33,-46.19 119.78,-51.51"/>
</a>
</g>
</g>
<!-- Node5 -->
<g id="Node000005" class="node">
<title>Node5</title>
<g id="a_Node000005"><a xlink:href="yt__dlp_8c.html" target="_top" xlink:title=" ">
<polygon fill="white" stroke="#666666" points="201,-20.75 129.5,-20.75 129.5,0 201,0 201,-20.75"/>
<text text-anchor="middle" x="165.25" y="-7.25" font-family="Helvetica,sans-Serif" font-size="10.00">src/yt_dlp.c</text>
</a>
</g>
</g>
<!-- Node4&#45;&gt;Node5 -->
<g id="edge5_Node000004_Node000005" class="edge">
<title>Node4&#45;&gt;Node5</title>
<g id="a_edge5_Node000004_Node000005"><a xlink:title=" ">
<path fill="none" stroke="#63b8ff" d="M150.81,-45.74C154.36,-37.3 158.3,-27.91 161.17,-21.08"/>
<polygon fill="#63b8ff" stroke="#63b8ff" points="147.59,-44.37 146.95,-54.94 154.05,-47.08 147.59,-44.37"/>
</a>
</g>
</g>
</g>
</svg>
