<?xml version="1.0" encoding="UTF-8" standalone="no"?>
<!DOCTYPE svg PUBLIC "-//W3C//DTD SVG 1.1//EN"
 "http://www.w3.org/Graphics/SVG/1.1/DTD/svg11.dtd">
<!-- Generated by graphviz version 12.2.1 (0)
 -->
<!-- Title: src/fs.h Pages: 1 -->
<svg width="420pt" height="86pt"
 viewBox="0.00 0.00 420.38 85.50" xmlns="http://www.w3.org/2000/svg" xmlns:xlink="http://www.w3.org/1999/xlink">
<g id="graph0" class="graph" transform="scale(1 1) rotate(0) translate(4 81.5)">
<title>src/fs.h</title>
<!-- Node1 -->
<g id="Node000001" class="node">
<title>Node1</title>
<g id="a_Node000001"><a xlink:title=" ">
<polygon fill="#999999" stroke="#666666" points="222.88,-77.5 171.62,-77.5 171.62,-56.75 222.88,-56.75 222.88,-77.5"/>
<text text-anchor="middle" x="197.25" y="-64" font-family="Helvetica,sans-Serif" font-size="10.00">src/fs.h</text>
</a>
</g>
</g>
<!-- Node2 -->
<g id="Node000002" class="node">
<title>Node2</title>
<g id="a_Node000002"><a xlink:title=" ">
<polygon fill="#e0e0e0" stroke="#999999" points="50.5,-20.75 0,-20.75 0,0 50.5,0 50.5,-20.75"/>
<text text-anchor="middle" x="25.25" y="-7.25" font-family="Helvetica,sans-Serif" font-size="10.00">errno.h</text>
</a>
</g>
</g>
<!-- Node1&#45;&gt;Node2 -->
<g id="edge1_Node000001_Node000002" class="edge">
<title>Node1&#45;&gt;Node2</title>
<g id="a_edge1_Node000001_Node000002"><a xlink:title=" ">
<path fill="none" stroke="#63b8ff" d="M171.13,-57.81C141.96,-48.52 94.54,-33.43 61.72,-22.98"/>
<polygon fill="#63b8ff" stroke="#63b8ff" points="62.81,-19.66 52.22,-19.96 60.68,-26.33 62.81,-19.66"/>
</a>
</g>
</g>
<!-- Node3 -->
<g id="Node000003" class="node">
<title>Node3</title>
<g id="a_Node000003"><a xlink:title=" ">
<polygon fill="#e0e0e0" stroke="#999999" points="117.75,-20.75 68.75,-20.75 68.75,0 117.75,0 117.75,-20.75"/>
<text text-anchor="middle" x="93.25" y="-7.25" font-family="Helvetica,sans-Serif" font-size="10.00">stdio.h</text>
</a>
</g>
</g>
<!-- Node1&#45;&gt;Node3 -->
<g id="edge2_Node000001_Node000003" class="edge">
<title>Node1&#45;&gt;Node3</title>
<g id="a_edge2_Node000001_Node000003"><a xlink:title=" ">
<path fill="none" stroke="#63b8ff" d="M178.66,-56.34C162.83,-48.01 139.85,-35.91 121.71,-26.36"/>
<polygon fill="#63b8ff" stroke="#63b8ff" points="123.5,-23.34 113.02,-21.78 120.24,-29.54 123.5,-23.34"/>
</a>
</g>
</g>
<!-- Node4 -->
<g id="Node000004" class="node">
<title>Node4</title>
<g id="a_Node000004"><a xlink:title=" ">
<polygon fill="#e0e0e0" stroke="#999999" points="188.25,-20.75 136.25,-20.75 136.25,0 188.25,0 188.25,-20.75"/>
<text text-anchor="middle" x="162.25" y="-7.25" font-family="Helvetica,sans-Serif" font-size="10.00">stdlib.h</text>
</a>
</g>
</g>
<!-- Node1&#45;&gt;Node4 -->
<g id="edge3_Node000001_Node000004" class="edge">
<title>Node1&#45;&gt;Node4</title>
<g id="a_edge3_Node000001_Node000004"><a xlink:title=" ">
<path fill="none" stroke="#63b8ff" d="M190.99,-56.34C186.41,-49.17 180.05,-39.23 174.48,-30.51"/>
<polygon fill="#63b8ff" stroke="#63b8ff" points="177.6,-28.89 169.27,-22.35 171.71,-32.66 177.6,-28.89"/>
</a>
</g>
</g>
<!-- Node5 -->
<g id="Node000005" class="node">
<title>Node5</title>
<g id="a_Node000005"><a xlink:title=" ">
<polygon fill="#e0e0e0" stroke="#999999" points="258.62,-20.75 205.88,-20.75 205.88,0 258.62,0 258.62,-20.75"/>
<text text-anchor="middle" x="232.25" y="-7.25" font-family="Helvetica,sans-Serif" font-size="10.00">string.h</text>
</a>
</g>
</g>
<!-- Node1&#45;&gt;Node5 -->
<g id="edge4_Node000001_Node000005" class="edge">
<title>Node1&#45;&gt;Node5</title>
<g id="a_edge4_Node000001_Node000005"><a xlink:title=" ">
<path fill="none" stroke="#63b8ff" d="M203.51,-56.34C208.09,-49.17 214.45,-39.23 220.02,-30.51"/>
<polygon fill="#63b8ff" stroke="#63b8ff" points="222.79,-32.66 225.23,-22.35 216.9,-28.89 222.79,-32.66"/>
</a>
</g>
</g>
<!-- Node6 -->
<g id="Node000006" class="node">
<title>Node6</title>
<g id="a_Node000006"><a xlink:title=" ">
<polygon fill="#e0e0e0" stroke="#999999" points="339.88,-20.75 276.62,-20.75 276.62,0 339.88,0 339.88,-20.75"/>
<text text-anchor="middle" x="308.25" y="-7.25" font-family="Helvetica,sans-Serif" font-size="10.00">sys/stat.h</text>
</a>
</g>
</g>
<!-- Node1&#45;&gt;Node6 -->
<g id="edge5_Node000001_Node000006" class="edge">
<title>Node1&#45;&gt;Node6</title>
<g id="a_edge5_Node000001_Node000006"><a xlink:title=" ">
<path fill="none" stroke="#63b8ff" d="M217.09,-56.34C234.14,-47.93 258.97,-35.68 278.41,-26.09"/>
<polygon fill="#63b8ff" stroke="#63b8ff" points="279.8,-29.31 287.22,-21.75 276.7,-23.03 279.8,-29.31"/>
</a>
</g>
</g>
<!-- Node7 -->
<g id="Node000007" class="node">
<title>Node7</title>
<g id="a_Node000007"><a xlink:href="config_8h.html" target="_top" xlink:title=" ">
<polygon fill="white" stroke="#666666" points="412.38,-20.75 358.12,-20.75 358.12,0 412.38,0 412.38,-20.75"/>
<text text-anchor="middle" x="385.25" y="-7.25" font-family="Helvetica,sans-Serif" font-size="10.00">config.h</text>
</a>
</g>
</g>
<!-- Node1&#45;&gt;Node7 -->
<g id="edge6_Node000001_Node000007" class="edge">
<title>Node1&#45;&gt;Node7</title>
<g id="a_edge6_Node000001_Node000007"><a xlink:title=" ">
<path fill="none" stroke="#63b8ff" d="M223,-58.63C254.99,-49.31 309.85,-33.33 346.83,-22.57"/>
<polygon fill="#63b8ff" stroke="#63b8ff" points="347.6,-25.98 356.23,-19.83 345.65,-19.26 347.6,-25.98"/>
</a>
</g>
</g>
</g>
</svg>
