<?xml version="1.0" encoding="UTF-8" standalone="no"?>
<!DOCTYPE svg PUBLIC "-//W3C//DTD SVG 1.1//EN"
 "http://www.w3.org/Graphics/SVG/1.1/DTD/svg11.dtd">
<!-- Generated by graphviz version 12.2.1 (0)
 -->
<!-- Title: src/fs.c Pages: 1 -->
<svg width="420pt" height="142pt"
 viewBox="0.00 0.00 420.38 142.25" xmlns="http://www.w3.org/2000/svg" xmlns:xlink="http://www.w3.org/1999/xlink">
<g id="graph0" class="graph" transform="scale(1 1) rotate(0) translate(4 138.25)">
<title>src/fs.c</title>
<!-- Node1 -->
<g id="Node000001" class="node">
<title>Node1</title>
<g id="a_Node000001"><a xlink:title=" ">
<polygon fill="#999999" stroke="#666666" points="222.5,-134.25 172,-134.25 172,-113.5 222.5,-113.5 222.5,-134.25"/>
<text text-anchor="middle" x="197.25" y="-120.75" font-family="Helvetica,sans-Serif" font-size="10.00">src/fs.c</text>
</a>
</g>
</g>
<!-- Node2 -->
<g id="Node000002" class="node">
<title>Node2</title>
<g id="a_Node000002"><a xlink:href="fs_8h.html" target="_top" xlink:title=" ">
<polygon fill="white" stroke="#666666" points="214.25,-77.5 180.25,-77.5 180.25,-56.75 214.25,-56.75 214.25,-77.5"/>
<text text-anchor="middle" x="197.25" y="-64" font-family="Helvetica,sans-Serif" font-size="10.00">fs.h</text>
</a>
</g>
</g>
<!-- Node1&#45;&gt;Node2 -->
<g id="edge1_Node000001_Node000002" class="edge">
<title>Node1&#45;&gt;Node2</title>
<g id="a_edge1_Node000001_Node000002"><a xlink:title=" ">
<path fill="none" stroke="#63b8ff" d="M197.25,-113.09C197.25,-106.47 197.25,-97.47 197.25,-89.27"/>
<polygon fill="#63b8ff" stroke="#63b8ff" points="200.75,-89.34 197.25,-79.34 193.75,-89.34 200.75,-89.34"/>
</a>
</g>
</g>
<!-- Node3 -->
<g id="Node000003" class="node">
<title>Node3</title>
<g id="a_Node000003"><a xlink:title=" ">
<polygon fill="#e0e0e0" stroke="#999999" points="50.5,-20.75 0,-20.75 0,0 50.5,0 50.5,-20.75"/>
<text text-anchor="middle" x="25.25" y="-7.25" font-family="Helvetica,sans-Serif" font-size="10.00">errno.h</text>
</a>
</g>
</g>
<!-- Node2&#45;&gt;Node3 -->
<g id="edge2_Node000002_Node000003" class="edge">
<title>Node2&#45;&gt;Node3</title>
<g id="a_edge2_Node000002_Node000003"><a xlink:title=" ">
<path fill="none" stroke="#63b8ff" d="M179.81,-60.57C152.18,-51.78 97.75,-34.45 61.43,-22.89"/>
<polygon fill="#63b8ff" stroke="#63b8ff" points="62.82,-19.66 52.23,-19.96 60.7,-26.33 62.82,-19.66"/>
</a>
</g>
</g>
<!-- Node4 -->
<g id="Node000004" class="node">
<title>Node4</title>
<g id="a_Node000004"><a xlink:title=" ">
<polygon fill="#e0e0e0" stroke="#999999" points="117.75,-20.75 68.75,-20.75 68.75,0 117.75,0 117.75,-20.75"/>
<text text-anchor="middle" x="93.25" y="-7.25" font-family="Helvetica,sans-Serif" font-size="10.00">stdio.h</text>
</a>
</g>
</g>
<!-- Node2&#45;&gt;Node4 -->
<g id="edge3_Node000002_Node000004" class="edge">
<title>Node2&#45;&gt;Node4</title>
<g id="a_edge3_Node000002_Node000004"><a xlink:title=" ">
<path fill="none" stroke="#63b8ff" d="M180.08,-57.08C164.28,-48.77 140.55,-36.28 121.89,-26.45"/>
<polygon fill="#63b8ff" stroke="#63b8ff" points="123.67,-23.44 113.19,-21.87 120.41,-29.63 123.67,-23.44"/>
</a>
</g>
</g>
<!-- Node5 -->
<g id="Node000005" class="node">
<title>Node5</title>
<g id="a_Node000005"><a xlink:title=" ">
<polygon fill="#e0e0e0" stroke="#999999" points="188.25,-20.75 136.25,-20.75 136.25,0 188.25,0 188.25,-20.75"/>
<text text-anchor="middle" x="162.25" y="-7.25" font-family="Helvetica,sans-Serif" font-size="10.00">stdlib.h</text>
</a>
</g>
</g>
<!-- Node2&#45;&gt;Node5 -->
<g id="edge4_Node000002_Node000005" class="edge">
<title>Node2&#45;&gt;Node5</title>
<g id="a_edge4_Node000002_Node000005"><a xlink:title=" ">
<path fill="none" stroke="#63b8ff" d="M190.99,-56.34C186.41,-49.17 180.05,-39.23 174.48,-30.51"/>
<polygon fill="#63b8ff" stroke="#63b8ff" points="177.6,-28.89 169.27,-22.35 171.71,-32.66 177.6,-28.89"/>
</a>
</g>
</g>
<!-- Node6 -->
<g id="Node000006" class="node">
<title>Node6</title>
<g id="a_Node000006"><a xlink:title=" ">
<polygon fill="#e0e0e0" stroke="#999999" points="258.62,-20.75 205.88,-20.75 205.88,0 258.62,0 258.62,-20.75"/>
<text text-anchor="middle" x="232.25" y="-7.25" font-family="Helvetica,sans-Serif" font-size="10.00">string.h</text>
</a>
</g>
</g>
<!-- Node2&#45;&gt;Node6 -->
<g id="edge5_Node000002_Node000006" class="edge">
<title>Node2&#45;&gt;Node6</title>
<g id="a_edge5_Node000002_Node000006"><a xlink:title=" ">
<path fill="none" stroke="#63b8ff" d="M203.51,-56.34C208.09,-49.17 214.45,-39.23 220.02,-30.51"/>
<polygon fill="#63b8ff" stroke="#63b8ff" points="222.79,-32.66 225.23,-22.35 216.9,-28.89 222.79,-32.66"/>
</a>
</g>
</g>
<!-- Node7 -->
<g id="Node000007" class="node">
<title>Node7</title>
<g id="a_Node000007"><a xlink:title=" ">
<polygon fill="#e0e0e0" stroke="#999999" points="339.88,-20.75 276.62,-20.75 276.62,0 339.88,0 339.88,-20.75"/>
<text text-anchor="middle" x="308.25" y="-7.25" font-family="Helvetica,sans-Serif" font-size="10.00">sys/stat.h</text>
</a>
</g>
</g>
<!-- Node2&#45;&gt;Node7 -->
<g id="edge6_Node000002_Node000007" class="edge">
<title>Node2&#45;&gt;Node7</title>
<g id="a_edge6_Node000002_Node000007"><a xlink:title=" ">
<path fill="none" stroke="#63b8ff" d="M214.59,-57.57C231.62,-49.17 257.95,-36.19 278.35,-26.12"/>
<polygon fill="#63b8ff" stroke="#63b8ff" points="279.63,-29.4 287.05,-21.83 276.53,-23.12 279.63,-29.4"/>
</a>
</g>
</g>
<!-- Node8 -->
<g id="Node000008" class="node">
<title>Node8</title>
<g id="a_Node000008"><a xlink:href="config_8h.html" target="_top" xlink:title=" ">
<polygon fill="white" stroke="#666666" points="412.38,-20.75 358.12,-20.75 358.12,0 412.38,0 412.38,-20.75"/>
<text text-anchor="middle" x="385.25" y="-7.25" font-family="Helvetica,sans-Serif" font-size="10.00">config.h</text>
</a>
</g>
</g>
<!-- Node2&#45;&gt;Node8 -->
<g id="edge7_Node000002_Node000008" class="edge">
<title>Node2&#45;&gt;Node8</title>
<g id="a_edge7_Node000002_Node000008"><a xlink:title=" ">
<path fill="none" stroke="#63b8ff" d="M214.6,-61.07C244.51,-52.36 306.46,-34.32 346.92,-22.54"/>
<polygon fill="#63b8ff" stroke="#63b8ff" points="347.64,-25.97 356.26,-19.82 345.68,-19.25 347.64,-25.97"/>
</a>
</g>
</g>
</g>
</svg>
