<?xml version="1.0" encoding="UTF-8" standalone="no"?>
<!DOCTYPE svg PUBLIC "-//W3C//DTD SVG 1.1//EN"
 "http://www.w3.org/Graphics/SVG/1.1/DTD/svg11.dtd">
<!-- Generated by graphviz version 12.2.1 (0)
 -->
<!-- Title: drayLogPath Pages: 1 -->
<svg width="550pt" height="68pt"
 viewBox="0.00 0.00 550.00 67.75" xmlns="http://www.w3.org/2000/svg" xmlns:xlink="http://www.w3.org/1999/xlink">
<g id="graph0" class="graph" transform="scale(1 1) rotate(0) translate(4 63.75)">
<title>drayLogPath</title>
<!-- Node1 -->
<g id="Node000001" class="node">
<title>Node1</title>
<g id="a_Node000001"><a xlink:title="Вычисляет путь к DRAY_LOG.">
<polygon fill="#999999" stroke="#666666" points="542,-39.75 466,-39.75 466,-19 542,-19 542,-39.75"/>
<text text-anchor="middle" x="504" y="-26.25" font-family="Helvetica,sans-Serif" font-size="10.00">drayLogPath</text>
</a>
</g>
</g>
<!-- Node2 -->
<g id="Node000002" class="node">
<title>Node2</title>
<g id="a_Node000002"><a xlink:href="fs_8c.html#a65ecb49246f4d74a183116704b7968a0" target="_top" xlink:title="Проверка, есть ли ID видео в логе">
<polygon fill="white" stroke="#666666" points="430,-59.75 309,-59.75 309,-39 430,-39 430,-59.75"/>
<text text-anchor="middle" x="369.5" y="-46.25" font-family="Helvetica,sans-Serif" font-size="10.00">is_video_downloaded</text>
</a>
</g>
</g>
<!-- Node1&#45;&gt;Node2 -->
<g id="edge1_Node000001_Node000002" class="edge">
<title>Node1&#45;&gt;Node2</title>
<g id="a_edge1_Node000001_Node000002"><a xlink:title=" ">
<path fill="none" stroke="#63b8ff" d="M454.52,-36.69C446.64,-37.88 438.4,-39.13 430.29,-40.35"/>
<polygon fill="#63b8ff" stroke="#63b8ff" points="454.88,-40.18 464.24,-35.23 453.83,-33.26 454.88,-40.18"/>
</a>
</g>
</g>
<!-- Node6 -->
<g id="Node000006" class="node">
<title>Node6</title>
<g id="a_Node000006"><a xlink:href="fs_8c.html#ac7135dd56474a60b51b7121ced937914" target="_top" xlink:title="Запись ID видео в лог">
<polygon fill="white" stroke="#666666" points="408.25,-20.75 330.75,-20.75 330.75,0 408.25,0 408.25,-20.75"/>
<text text-anchor="middle" x="369.5" y="-7.25" font-family="Helvetica,sans-Serif" font-size="10.00">log_video_id</text>
</a>
</g>
</g>
<!-- Node1&#45;&gt;Node6 -->
<g id="edge5_Node000001_Node000006" class="edge">
<title>Node1&#45;&gt;Node6</title>
<g id="a_edge5_Node000001_Node000006"><a xlink:title=" ">
<path fill="none" stroke="#63b8ff" d="M454.45,-22.41C439.26,-20.24 422.74,-17.87 408.4,-15.81"/>
<polygon fill="#63b8ff" stroke="#63b8ff" points="453.84,-25.86 464.24,-23.82 454.84,-18.93 453.84,-25.86"/>
</a>
</g>
</g>
<!-- Node3 -->
<g id="Node000003" class="node">
<title>Node3</title>
<g id="a_Node000003"><a xlink:href="yt__dlp_8c.html#aac411bed2012a2feac84bce1d514d1c7" target="_top" xlink:title="Получение и обработка ID видео из плейлиста">
<polygon fill="white" stroke="#666666" points="273,-39.75 158.75,-39.75 158.75,-19 273,-19 273,-39.75"/>
<text text-anchor="middle" x="215.88" y="-26.25" font-family="Helvetica,sans-Serif" font-size="10.00">process_playlist_ids</text>
</a>
</g>
</g>
<!-- Node2&#45;&gt;Node3 -->
<g id="edge2_Node000002_Node000003" class="edge">
<title>Node2&#45;&gt;Node3</title>
<g id="a_edge2_Node000002_Node000003"><a xlink:title=" ">
<path fill="none" stroke="#63b8ff" d="M297.32,-39.99C289.29,-38.93 281.2,-37.86 273.4,-36.83"/>
<polygon fill="#63b8ff" stroke="#63b8ff" points="296.7,-43.43 307.07,-41.27 297.62,-36.49 296.7,-43.43"/>
</a>
</g>
</g>
<!-- Node4 -->
<g id="Node000004" class="node">
<title>Node4</title>
<g id="a_Node000004"><a xlink:href="yt__dlp_8c.html#ad12a3554ed1a8bd9992ac6c7ae709bdd" target="_top" xlink:title="Скачка url с запрошенным режимом">
<polygon fill="white" stroke="#666666" points="122.75,-39.75 76.75,-39.75 76.75,-19 122.75,-19 122.75,-39.75"/>
<text text-anchor="middle" x="99.75" y="-26.25" font-family="Helvetica,sans-Serif" font-size="10.00">yt_dlp</text>
</a>
</g>
</g>
<!-- Node3&#45;&gt;Node4 -->
<g id="edge3_Node000003_Node000004" class="edge">
<title>Node3&#45;&gt;Node4</title>
<g id="a_edge3_Node000003_Node000004"><a xlink:title=" ">
<path fill="none" stroke="#63b8ff" d="M147.04,-29.38C138.43,-29.38 130.17,-29.38 123.06,-29.38"/>
<polygon fill="#63b8ff" stroke="#63b8ff" points="146.97,-32.88 156.97,-29.38 146.97,-25.88 146.97,-32.88"/>
</a>
</g>
</g>
<!-- Node5 -->
<g id="Node000005" class="node">
<title>Node5</title>
<g id="a_Node000005"><a xlink:href="main_8c.html#a0ddf1224851353fc92bfbff6f499fa97" target="_top" xlink:title=" ">
<polygon fill="white" stroke="#666666" points="40.75,-39.75 0,-39.75 0,-19 40.75,-19 40.75,-39.75"/>
<text text-anchor="middle" x="20.38" y="-26.25" font-family="Helvetica,sans-Serif" font-size="10.00">main</text>
</a>
</g>
</g>
<!-- Node4&#45;&gt;Node5 -->
<g id="edge4_Node000004_Node000005" class="edge">
<title>Node4&#45;&gt;Node5</title>
<g id="a_edge4_Node000004_Node000005"><a xlink:title=" ">
<path fill="none" stroke="#63b8ff" d="M65.12,-29.38C56.91,-29.38 48.39,-29.38 41.07,-29.38"/>
<polygon fill="#63b8ff" stroke="#63b8ff" points="64.86,-32.88 74.86,-29.38 64.86,-25.88 64.86,-32.88"/>
</a>
</g>
</g>
<!-- Node6&#45;&gt;Node3 -->
<g id="edge6_Node000006_Node000003" class="edge">
<title>Node6&#45;&gt;Node3</title>
<g id="a_edge6_Node000006_Node000003"><a xlink:title=" ">
<path fill="none" stroke="#63b8ff" d="M319.27,-16.54C304.64,-18.38 288.5,-20.4 273.44,-22.29"/>
<polygon fill="#63b8ff" stroke="#63b8ff" points="319.64,-20.02 329.13,-15.31 318.77,-13.08 319.64,-20.02"/>
</a>
</g>
</g>
</g>
</svg>
