<?xml version="1.0" encoding="UTF-8" standalone="no"?>
<!DOCTYPE svg PUBLIC "-//W3C//DTD SVG 1.1//EN"
 "http://www.w3.org/Graphics/SVG/1.1/DTD/svg11.dtd">
<!-- Generated by graphviz version 12.2.1 (0)
 -->
<!-- Title: src/fs.h Pages: 1 -->
<svg width="465pt" height="199pt"
 viewBox="0.00 0.00 465.04 199.00" xmlns="http://www.w3.org/2000/svg" xmlns:xlink="http://www.w3.org/1999/xlink">
<g id="graph0" class="graph" transform="scale(1 1) rotate(0) translate(4 195)">
<title>src/fs.h</title>
<!-- Node1 -->
<g id="Node000001" class="node">
<title>Node1</title>
<g id="a_Node000001"><a xlink:title="Модуль для работы с файловой системой">
<polygon fill="#999999" stroke="#666666" points="233.54,-191 182.29,-191 182.29,-170.25 233.54,-170.25 233.54,-191"/>
<text text-anchor="middle" x="207.91" y="-177.5" font-family="Helvetica,sans-Serif" font-size="10.00">src/fs.h</text>
</a>
</g>
</g>
<!-- Node2 -->
<g id="Node000002" class="node">
<title>Node2</title>
<g id="a_Node000002"><a xlink:title=" ">
<polygon fill="#e0e0e0" stroke="#999999" points="126.41,-20.75 77.41,-20.75 77.41,0 126.41,0 126.41,-20.75"/>
<text text-anchor="middle" x="101.91" y="-7.25" font-family="Helvetica,sans-Serif" font-size="10.00">stdio.h</text>
</a>
</g>
</g>
<!-- Node1&#45;&gt;Node2 -->
<g id="edge1_Node000001_Node000002" class="edge">
<title>Node1&#45;&gt;Node2</title>
<g id="a_edge1_Node000001_Node000002"><a xlink:title=" ">
<path fill="none" stroke="#63b8ff" d="M182.14,-175.79C136.31,-167.42 41.88,-142.7 3.91,-77.5 -13,-48.45 31.84,-29.51 66.34,-19.63"/>
<polygon fill="#63b8ff" stroke="#63b8ff" points="66.87,-23.11 75.62,-17.13 65.06,-16.35 66.87,-23.11"/>
</a>
</g>
</g>
<!-- Node3 -->
<g id="Node000003" class="node">
<title>Node3</title>
<g id="a_Node000003"><a xlink:title=" ">
<polygon fill="#e0e0e0" stroke="#999999" points="64.91,-77.5 12.91,-77.5 12.91,-56.75 64.91,-56.75 64.91,-77.5"/>
<text text-anchor="middle" x="38.91" y="-64" font-family="Helvetica,sans-Serif" font-size="10.00">stdlib.h</text>
</a>
</g>
</g>
<!-- Node1&#45;&gt;Node3 -->
<g id="edge2_Node000001_Node000003" class="edge">
<title>Node1&#45;&gt;Node3</title>
<g id="a_edge2_Node000001_Node000003"><a xlink:title=" ">
<path fill="none" stroke="#63b8ff" d="M193.21,-169.93C164,-150.65 98.4,-107.37 62.87,-83.93"/>
<polygon fill="#63b8ff" stroke="#63b8ff" points="65.24,-81.3 54.97,-78.72 61.39,-87.14 65.24,-81.3"/>
</a>
</g>
</g>
<!-- Node4 -->
<g id="Node000004" class="node">
<title>Node4</title>
<g id="a_Node000004"><a xlink:title=" ">
<polygon fill="#e0e0e0" stroke="#999999" points="384.29,-77.5 331.54,-77.5 331.54,-56.75 384.29,-56.75 384.29,-77.5"/>
<text text-anchor="middle" x="357.91" y="-64" font-family="Helvetica,sans-Serif" font-size="10.00">string.h</text>
</a>
</g>
</g>
<!-- Node1&#45;&gt;Node4 -->
<g id="edge3_Node000001_Node000004" class="edge">
<title>Node1&#45;&gt;Node4</title>
<g id="a_edge3_Node000001_Node000004"><a xlink:title=" ">
<path fill="none" stroke="#63b8ff" d="M220.96,-169.93C246.67,-150.81 304.12,-108.11 335.84,-84.54"/>
<polygon fill="#63b8ff" stroke="#63b8ff" points="337.64,-87.56 343.57,-78.78 333.46,-81.94 337.64,-87.56"/>
</a>
</g>
</g>
<!-- Node5 -->
<g id="Node000005" class="node">
<title>Node5</title>
<g id="a_Node000005"><a xlink:href="cfg_8h.html" target="_top" xlink:title="Анализирует конфигурацию в config.ini.">
<polygon fill="white" stroke="#666666" points="227.91,-134.25 187.91,-134.25 187.91,-113.5 227.91,-113.5 227.91,-134.25"/>
<text text-anchor="middle" x="207.91" y="-120.75" font-family="Helvetica,sans-Serif" font-size="10.00">cfg.h</text>
</a>
</g>
</g>
<!-- Node1&#45;&gt;Node5 -->
<g id="edge4_Node000001_Node000005" class="edge">
<title>Node1&#45;&gt;Node5</title>
<g id="a_edge4_Node000001_Node000005"><a xlink:title=" ">
<path fill="none" stroke="#63b8ff" d="M207.91,-169.84C207.91,-163.22 207.91,-154.22 207.91,-146.02"/>
<polygon fill="#63b8ff" stroke="#63b8ff" points="211.41,-146.09 207.91,-136.09 204.41,-146.09 211.41,-146.09"/>
</a>
</g>
</g>
<!-- Node8 -->
<g id="Node000008" class="node">
<title>Node8</title>
<g id="a_Node000008"><a xlink:href="config_8h.html" target="_top" xlink:title="Константы">
<polygon fill="white" stroke="#666666" points="457.04,-77.5 402.79,-77.5 402.79,-56.75 457.04,-56.75 457.04,-77.5"/>
<text text-anchor="middle" x="429.91" y="-64" font-family="Helvetica,sans-Serif" font-size="10.00">config.h</text>
</a>
</g>
</g>
<!-- Node1&#45;&gt;Node8 -->
<g id="edge13_Node000001_Node000008" class="edge">
<title>Node1&#45;&gt;Node8</title>
<g id="a_edge13_Node000001_Node000008"><a xlink:title=" ">
<path fill="none" stroke="#63b8ff" d="M227.23,-169.93C266.1,-150.4 353.99,-106.26 400.22,-83.04"/>
<polygon fill="#63b8ff" stroke="#63b8ff" points="401.77,-86.18 409.14,-78.56 398.63,-79.92 401.77,-86.18"/>
</a>
</g>
</g>
<!-- Node5&#45;&gt;Node2 -->
<g id="edge7_Node000005_Node000002" class="edge">
<title>Node5&#45;&gt;Node2</title>
<g id="a_edge7_Node000005_Node000002"><a xlink:title=" ">
<path fill="none" stroke="#63b8ff" d="M198.88,-113.37C181.21,-94.78 141.83,-53.36 119.06,-29.41"/>
<polygon fill="#63b8ff" stroke="#63b8ff" points="121.7,-27.11 112.27,-22.27 116.63,-31.93 121.7,-27.11"/>
</a>
</g>
</g>
<!-- Node5&#45;&gt;Node3 -->
<g id="edge8_Node000005_Node000003" class="edge">
<title>Node5&#45;&gt;Node3</title>
<g id="a_edge8_Node000005_Node000003"><a xlink:title=" ">
<path fill="none" stroke="#63b8ff" d="M187.53,-116.27C159.88,-107.31 110.02,-91.16 75.73,-80.05"/>
<polygon fill="#63b8ff" stroke="#63b8ff" points="77.23,-76.86 66.64,-77.11 75.07,-83.52 77.23,-76.86"/>
</a>
</g>
</g>
<!-- Node5&#45;&gt;Node4 -->
<g id="edge9_Node000005_Node000004" class="edge">
<title>Node5&#45;&gt;Node4</title>
<g id="a_edge9_Node000005_Node000004"><a xlink:title=" ">
<path fill="none" stroke="#63b8ff" d="M228.14,-115.49C251.76,-106.87 291.3,-92.44 320.54,-81.77"/>
<polygon fill="#63b8ff" stroke="#63b8ff" points="321.57,-85.12 329.76,-78.4 319.17,-78.54 321.57,-85.12"/>
</a>
</g>
</g>
<!-- Node6 -->
<g id="Node000006" class="node">
<title>Node6</title>
<g id="a_Node000006"><a xlink:title=" ">
<polygon fill="#e0e0e0" stroke="#999999" points="238.41,-77.5 177.41,-77.5 177.41,-56.75 238.41,-56.75 238.41,-77.5"/>
<text text-anchor="middle" x="207.91" y="-64" font-family="Helvetica,sans-Serif" font-size="10.00">stdbool.h</text>
</a>
</g>
</g>
<!-- Node5&#45;&gt;Node6 -->
<g id="edge5_Node000005_Node000006" class="edge">
<title>Node5&#45;&gt;Node6</title>
<g id="a_edge5_Node000005_Node000006"><a xlink:title=" ">
<path fill="none" stroke="#63b8ff" d="M207.91,-113.09C207.91,-106.47 207.91,-97.47 207.91,-89.27"/>
<polygon fill="#63b8ff" stroke="#63b8ff" points="211.41,-89.34 207.91,-79.34 204.41,-89.34 211.41,-89.34"/>
</a>
</g>
</g>
<!-- Node7 -->
<g id="Node000007" class="node">
<title>Node7</title>
<g id="a_Node000007"><a xlink:title=" ">
<polygon fill="#e0e0e0" stroke="#999999" points="313.16,-77.5 256.66,-77.5 256.66,-56.75 313.16,-56.75 313.16,-77.5"/>
<text text-anchor="middle" x="284.91" y="-64" font-family="Helvetica,sans-Serif" font-size="10.00">getopt.h</text>
</a>
</g>
</g>
<!-- Node5&#45;&gt;Node7 -->
<g id="edge6_Node000005_Node000007" class="edge">
<title>Node5&#45;&gt;Node7</title>
<g id="a_edge6_Node000005_Node000007"><a xlink:title=" ">
<path fill="none" stroke="#63b8ff" d="M221.68,-113.09C232.85,-105.15 248.83,-93.78 261.94,-84.46"/>
<polygon fill="#63b8ff" stroke="#63b8ff" points="263.91,-87.35 270.03,-78.71 259.86,-81.65 263.91,-87.35"/>
</a>
</g>
</g>
<!-- Node5&#45;&gt;Node8 -->
<g id="edge10_Node000005_Node000008" class="edge">
<title>Node5&#45;&gt;Node8</title>
<g id="a_edge10_Node000005_Node000008"><a xlink:title=" ">
<path fill="none" stroke="#63b8ff" d="M228.18,-117.96C260.44,-110.12 325.7,-94.22 391.46,-77.85"/>
<polygon fill="#63b8ff" stroke="#63b8ff" points="392.12,-81.29 400.97,-75.48 390.42,-74.5 392.12,-81.29"/>
</a>
</g>
</g>
<!-- Node9 -->
<g id="Node000009" class="node">
<title>Node9</title>
<g id="a_Node000009"><a xlink:href="ini_8h.html" target="_top" xlink:title=" ">
<polygon fill="white" stroke="#666666" points="120.41,-77.5 83.41,-77.5 83.41,-56.75 120.41,-56.75 120.41,-77.5"/>
<text text-anchor="middle" x="101.91" y="-64" font-family="Helvetica,sans-Serif" font-size="10.00">ini.h</text>
</a>
</g>
</g>
<!-- Node5&#45;&gt;Node9 -->
<g id="edge11_Node000005_Node000009" class="edge">
<title>Node5&#45;&gt;Node9</title>
<g id="a_edge11_Node000005_Node000009"><a xlink:title=" ">
<path fill="none" stroke="#63b8ff" d="M188.96,-113.09C172.84,-104.76 149.41,-92.66 130.92,-83.11"/>
<polygon fill="#63b8ff" stroke="#63b8ff" points="132.54,-80 122.05,-78.52 129.32,-86.22 132.54,-80"/>
</a>
</g>
</g>
<!-- Node9&#45;&gt;Node2 -->
<g id="edge12_Node000009_Node000002" class="edge">
<title>Node9&#45;&gt;Node2</title>
<g id="a_edge12_Node000009_Node000002"><a xlink:title=" ">
<path fill="none" stroke="#63b8ff" d="M101.91,-56.34C101.91,-49.72 101.91,-40.72 101.91,-32.52"/>
<polygon fill="#63b8ff" stroke="#63b8ff" points="105.41,-32.59 101.91,-22.59 98.41,-32.59 105.41,-32.59"/>
</a>
</g>
</g>
</g>
</svg>
