<?xml version="1.0" encoding="UTF-8" standalone="no"?>
<!DOCTYPE svg PUBLIC "-//W3C//DTD SVG 1.1//EN"
 "http://www.w3.org/Graphics/SVG/1.1/DTD/svg11.dtd">
<!-- Generated by graphviz version 12.2.1 (0)
 -->
<!-- Title: src/ini.c Pages: 1 -->
<svg width="198pt" height="142pt"
 viewBox="0.00 0.00 197.82 142.25" xmlns="http://www.w3.org/2000/svg" xmlns:xlink="http://www.w3.org/1999/xlink">
<g id="graph0" class="graph" transform="scale(1 1) rotate(0) translate(4 138.25)">
<title>src/ini.c</title>
<!-- Node1 -->
<g id="Node000001" class="node">
<title>Node1</title>
<g id="a_Node000001"><a xlink:title=" ">
<polygon fill="#999999" stroke="#666666" points="100.07,-134.25 46.57,-134.25 46.57,-113.5 100.07,-113.5 100.07,-134.25"/>
<text text-anchor="middle" x="73.32" y="-120.75" font-family="Helvetica,sans-Serif" font-size="10.00">src/ini.c</text>
</a>
</g>
</g>
<!-- Node2 -->
<g id="Node000002" class="node">
<title>Node2</title>
<g id="a_Node000002"><a xlink:title=" ">
<polygon fill="#e0e0e0" stroke="#999999" points="101.82,-20.75 52.82,-20.75 52.82,0 101.82,0 101.82,-20.75"/>
<text text-anchor="middle" x="77.32" y="-7.25" font-family="Helvetica,sans-Serif" font-size="10.00">stdio.h</text>
</a>
</g>
</g>
<!-- Node1&#45;&gt;Node2 -->
<g id="edge1_Node000001_Node000002" class="edge">
<title>Node1&#45;&gt;Node2</title>
<g id="a_edge1_Node000001_Node000002"><a xlink:title=" ">
<path fill="none" stroke="#63b8ff" d="M48.42,-113.08C23.22,-101.58 -10.24,-80.96 3.32,-56.75 11.73,-41.72 27.38,-31.07 42.12,-23.88"/>
<polygon fill="#63b8ff" stroke="#63b8ff" points="43.48,-27.11 51.2,-19.86 40.64,-20.71 43.48,-27.11"/>
</a>
</g>
</g>
<!-- Node3 -->
<g id="Node000003" class="node">
<title>Node3</title>
<g id="a_Node000003"><a xlink:title=" ">
<polygon fill="#e0e0e0" stroke="#999999" points="64.32,-77.5 12.32,-77.5 12.32,-56.75 64.32,-56.75 64.32,-77.5"/>
<text text-anchor="middle" x="38.32" y="-64" font-family="Helvetica,sans-Serif" font-size="10.00">ctype.h</text>
</a>
</g>
</g>
<!-- Node1&#45;&gt;Node3 -->
<g id="edge2_Node000001_Node000003" class="edge">
<title>Node1&#45;&gt;Node3</title>
<g id="a_edge2_Node000001_Node000003"><a xlink:title=" ">
<path fill="none" stroke="#63b8ff" d="M67.06,-113.09C62.49,-105.92 56.13,-95.98 50.55,-87.26"/>
<polygon fill="#63b8ff" stroke="#63b8ff" points="53.67,-85.64 45.34,-79.1 47.78,-89.41 53.67,-85.64"/>
</a>
</g>
</g>
<!-- Node4 -->
<g id="Node000004" class="node">
<title>Node4</title>
<g id="a_Node000004"><a xlink:title=" ">
<polygon fill="#e0e0e0" stroke="#999999" points="134.7,-77.5 81.95,-77.5 81.95,-56.75 134.7,-56.75 134.7,-77.5"/>
<text text-anchor="middle" x="108.32" y="-64" font-family="Helvetica,sans-Serif" font-size="10.00">string.h</text>
</a>
</g>
</g>
<!-- Node1&#45;&gt;Node4 -->
<g id="edge3_Node000001_Node000004" class="edge">
<title>Node1&#45;&gt;Node4</title>
<g id="a_edge3_Node000001_Node000004"><a xlink:title=" ">
<path fill="none" stroke="#63b8ff" d="M79.58,-113.09C84.16,-105.92 90.52,-95.98 96.09,-87.26"/>
<polygon fill="#63b8ff" stroke="#63b8ff" points="98.87,-89.41 101.3,-79.1 92.97,-85.64 98.87,-89.41"/>
</a>
</g>
</g>
<!-- Node5 -->
<g id="Node000005" class="node">
<title>Node5</title>
<g id="a_Node000005"><a xlink:href="ini_8h.html" target="_top" xlink:title=" ">
<polygon fill="white" stroke="#666666" points="189.82,-77.5 152.82,-77.5 152.82,-56.75 189.82,-56.75 189.82,-77.5"/>
<text text-anchor="middle" x="171.32" y="-64" font-family="Helvetica,sans-Serif" font-size="10.00">ini.h</text>
</a>
</g>
</g>
<!-- Node1&#45;&gt;Node5 -->
<g id="edge4_Node000001_Node000005" class="edge">
<title>Node1&#45;&gt;Node5</title>
<g id="a_edge4_Node000001_Node000005"><a xlink:title=" ">
<path fill="none" stroke="#63b8ff" d="M90.84,-113.09C105.61,-104.83 127,-92.88 144.02,-83.38"/>
<polygon fill="#63b8ff" stroke="#63b8ff" points="145.61,-86.5 152.63,-78.57 142.19,-80.39 145.61,-86.5"/>
</a>
</g>
</g>
<!-- Node5&#45;&gt;Node2 -->
<g id="edge5_Node000005_Node000002" class="edge">
<title>Node5&#45;&gt;Node2</title>
<g id="a_edge5_Node000005_Node000002"><a xlink:title=" ">
<path fill="none" stroke="#63b8ff" d="M154.52,-56.34C140.35,-48.08 119.83,-36.13 103.51,-26.63"/>
<polygon fill="#63b8ff" stroke="#63b8ff" points="105.69,-23.85 95.29,-21.84 102.17,-29.9 105.69,-23.85"/>
</a>
</g>
</g>
</g>
</svg>
