<?xml version="1.0" encoding="UTF-8" standalone="no"?>
<!DOCTYPE svg PUBLIC "-//W3C//DTD SVG 1.1//EN"
 "http://www.w3.org/Graphics/SVG/1.1/DTD/svg11.dtd">
<!-- Generated by graphviz version 12.2.1 (0)
 -->
<!-- Title: ini_parse Pages: 1 -->
<svg width="506pt" height="146pt"
 viewBox="0.00 0.00 506.25 145.75" xmlns="http://www.w3.org/2000/svg" xmlns:xlink="http://www.w3.org/1999/xlink">
<g id="graph0" class="graph" transform="scale(1 1) rotate(0) translate(4 141.75)">
<title>ini_parse</title>
<!-- Node1 -->
<g id="Node000001" class="node">
<title>Node1</title>
<g id="a_Node000001"><a xlink:title=" ">
<polygon fill="#999999" stroke="#666666" points="60.25,-78.75 0,-78.75 0,-58 60.25,-58 60.25,-78.75"/>
<text text-anchor="middle" x="30.12" y="-65.25" font-family="Helvetica,sans-Serif" font-size="10.00">ini_parse</text>
</a>
</g>
</g>
<!-- Node2 -->
<g id="Node000002" class="node">
<title>Node2</title>
<g id="a_Node000002"><a xlink:href="ini_8c.html#a876bf8b62ade275320db827b929f9289" target="_top" xlink:title=" ">
<polygon fill="white" stroke="#666666" points="176.75,-78.75 96.25,-78.75 96.25,-58 176.75,-58 176.75,-78.75"/>
<text text-anchor="middle" x="136.5" y="-65.25" font-family="Helvetica,sans-Serif" font-size="10.00">ini_parse_file</text>
</a>
</g>
</g>
<!-- Node1&#45;&gt;Node2 -->
<g id="edge1_Node000001_Node000002" class="edge">
<title>Node1&#45;&gt;Node2</title>
<g id="a_edge1_Node000001_Node000002"><a xlink:title=" ">
<path fill="none" stroke="#63b8ff" d="M60.48,-68.38C67.94,-68.38 76.17,-68.38 84.37,-68.38"/>
<polygon fill="#63b8ff" stroke="#63b8ff" points="84.34,-71.88 94.34,-68.38 84.34,-64.88 84.34,-71.88"/>
</a>
</g>
</g>
<!-- Node3 -->
<g id="Node000003" class="node">
<title>Node3</title>
<g id="a_Node000003"><a xlink:href="ini_8c.html#ad8b766ac18397b0b262559203ea7f602" target="_top" xlink:title=" ">
<polygon fill="white" stroke="#666666" points="312.75,-78.75 212.75,-78.75 212.75,-58 312.75,-58 312.75,-78.75"/>
<text text-anchor="middle" x="262.75" y="-65.25" font-family="Helvetica,sans-Serif" font-size="10.00">ini_parse_stream</text>
</a>
</g>
</g>
<!-- Node2&#45;&gt;Node3 -->
<g id="edge2_Node000002_Node000003" class="edge">
<title>Node2&#45;&gt;Node3</title>
<g id="a_edge2_Node000002_Node000003"><a xlink:title=" ">
<path fill="none" stroke="#63b8ff" d="M177.16,-68.38C184.78,-68.38 192.93,-68.38 201.05,-68.38"/>
<polygon fill="#63b8ff" stroke="#63b8ff" points="200.93,-71.88 210.93,-68.38 200.93,-64.88 200.93,-71.88"/>
</a>
</g>
</g>
<!-- Node4 -->
<g id="Node000004" class="node">
<title>Node4</title>
<g id="a_Node000004"><a xlink:href="ini_8c.html#a94d886b4c60efdbc34fafd51d6fa6aef" target="_top" xlink:title=" ">
<polygon fill="white" stroke="#666666" points="498.25,-137.75 348.75,-137.75 348.75,-117 498.25,-117 498.25,-137.75"/>
<text text-anchor="middle" x="423.5" y="-124.25" font-family="Helvetica,sans-Serif" font-size="10.00">ini_find_chars_or_comment</text>
</a>
</g>
</g>
<!-- Node3&#45;&gt;Node4 -->
<g id="edge3_Node000003_Node000004" class="edge">
<title>Node3&#45;&gt;Node4</title>
<g id="a_edge3_Node000003_Node000004"><a xlink:title=" ">
<path fill="none" stroke="#63b8ff" d="M284.65,-79.14C301.61,-87.59 326.31,-99.25 348.75,-107.38 354.74,-109.55 361.08,-111.61 367.43,-113.52"/>
<polygon fill="#63b8ff" stroke="#63b8ff" points="366.03,-116.76 376.61,-116.18 367.98,-110.03 366.03,-116.76"/>
</a>
</g>
</g>
<!-- Node5 -->
<g id="Node000005" class="node">
<title>Node5</title>
<g id="a_Node000005"><a xlink:href="ini_8c.html#a3dcb94a4fb0053e4c85ee6fa56cb48b5" target="_top" xlink:title=" ">
<polygon fill="white" stroke="#666666" points="451.75,-98.75 395.25,-98.75 395.25,-78 451.75,-78 451.75,-98.75"/>
<text text-anchor="middle" x="423.5" y="-85.25" font-family="Helvetica,sans-Serif" font-size="10.00">ini_lskip</text>
</a>
</g>
</g>
<!-- Node3&#45;&gt;Node5 -->
<g id="edge4_Node000003_Node000005" class="edge">
<title>Node3&#45;&gt;Node5</title>
<g id="a_edge4_Node000003_Node000005"><a xlink:title=" ">
<path fill="none" stroke="#63b8ff" d="M313.11,-74.59C335.84,-77.46 362.42,-80.81 383.69,-83.49"/>
<polygon fill="#63b8ff" stroke="#63b8ff" points="383.04,-86.93 393.4,-84.71 383.92,-79.99 383.04,-86.93"/>
</a>
</g>
</g>
<!-- Node6 -->
<g id="Node000006" class="node">
<title>Node6</title>
<g id="a_Node000006"><a xlink:href="ini_8c.html#a6720662d19174eab055f3a2d3ec5825c" target="_top" xlink:title=" ">
<polygon fill="white" stroke="#666666" points="452.88,-59.75 394.12,-59.75 394.12,-39 452.88,-39 452.88,-59.75"/>
<text text-anchor="middle" x="423.5" y="-46.25" font-family="Helvetica,sans-Serif" font-size="10.00">ini_rstrip</text>
</a>
</g>
</g>
<!-- Node3&#45;&gt;Node6 -->
<g id="edge5_Node000003_Node000006" class="edge">
<title>Node3&#45;&gt;Node6</title>
<g id="a_edge5_Node000003_Node000006"><a xlink:title=" ">
<path fill="none" stroke="#63b8ff" d="M313.11,-62.47C335.53,-59.78 361.71,-56.65 382.83,-54.12"/>
<polygon fill="#63b8ff" stroke="#63b8ff" points="382.97,-57.63 392.48,-52.97 382.14,-50.68 382.97,-57.63"/>
</a>
</g>
</g>
<!-- Node7 -->
<g id="Node000007" class="node">
<title>Node7</title>
<g id="a_Node000007"><a xlink:href="ini_8c.html#a167d3a11167d87db33c4d770f698367f" target="_top" xlink:title=" ">
<polygon fill="white" stroke="#666666" points="461.12,-20.75 385.88,-20.75 385.88,0 461.12,0 461.12,-20.75"/>
<text text-anchor="middle" x="423.5" y="-7.25" font-family="Helvetica,sans-Serif" font-size="10.00">ini_strncpy0</text>
</a>
</g>
</g>
<!-- Node3&#45;&gt;Node7 -->
<g id="edge6_Node000003_Node000007" class="edge">
<title>Node3&#45;&gt;Node7</title>
<g id="a_edge6_Node000003_Node000007"><a xlink:title=" ">
<path fill="none" stroke="#63b8ff" d="M285.38,-57.58C302.34,-49.39 326.67,-38.25 348.75,-30.38 356.92,-27.46 365.72,-24.73 374.3,-22.28"/>
<polygon fill="#63b8ff" stroke="#63b8ff" points="375.22,-25.66 383.93,-19.63 373.36,-18.91 375.22,-25.66"/>
</a>
</g>
</g>
</g>
</svg>
