<?xml version="1.0" encoding="UTF-8" standalone="no"?>
<!DOCTYPE svg PUBLIC "-//W3C//DTD SVG 1.1//EN"
 "http://www.w3.org/Graphics/SVG/1.1/DTD/svg11.dtd">
<!-- Generated by graphviz version 12.2.1 (0)
 -->
<!-- Title: ini_parse_file Pages: 1 -->
<svg width="410pt" height="146pt"
 viewBox="0.00 0.00 410.00 145.75" xmlns="http://www.w3.org/2000/svg" xmlns:xlink="http://www.w3.org/1999/xlink">
<g id="graph0" class="graph" transform="scale(1 1) rotate(0) translate(4 141.75)">
<title>ini_parse_file</title>
<!-- Node1 -->
<g id="Node000001" class="node">
<title>Node1</title>
<g id="a_Node000001"><a xlink:title=" ">
<polygon fill="#999999" stroke="#666666" points="80.5,-78.75 0,-78.75 0,-58 80.5,-58 80.5,-78.75"/>
<text text-anchor="middle" x="40.25" y="-65.25" font-family="Helvetica,sans-Serif" font-size="10.00">ini_parse_file</text>
</a>
</g>
</g>
<!-- Node2 -->
<g id="Node000002" class="node">
<title>Node2</title>
<g id="a_Node000002"><a xlink:href="ini_8c.html#ad8b766ac18397b0b262559203ea7f602" target="_top" xlink:title=" ">
<polygon fill="white" stroke="#666666" points="216.5,-78.75 116.5,-78.75 116.5,-58 216.5,-58 216.5,-78.75"/>
<text text-anchor="middle" x="166.5" y="-65.25" font-family="Helvetica,sans-Serif" font-size="10.00">ini_parse_stream</text>
</a>
</g>
</g>
<!-- Node1&#45;&gt;Node2 -->
<g id="edge1_Node000001_Node000002" class="edge">
<title>Node1&#45;&gt;Node2</title>
<g id="a_edge1_Node000001_Node000002"><a xlink:title=" ">
<path fill="none" stroke="#63b8ff" d="M80.91,-68.38C88.53,-68.38 96.68,-68.38 104.8,-68.38"/>
<polygon fill="#63b8ff" stroke="#63b8ff" points="104.68,-71.88 114.68,-68.38 104.68,-64.88 104.68,-71.88"/>
</a>
</g>
</g>
<!-- Node3 -->
<g id="Node000003" class="node">
<title>Node3</title>
<g id="a_Node000003"><a xlink:href="ini_8c.html#a94d886b4c60efdbc34fafd51d6fa6aef" target="_top" xlink:title=" ">
<polygon fill="white" stroke="#666666" points="402,-137.75 252.5,-137.75 252.5,-117 402,-117 402,-137.75"/>
<text text-anchor="middle" x="327.25" y="-124.25" font-family="Helvetica,sans-Serif" font-size="10.00">ini_find_chars_or_comment</text>
</a>
</g>
</g>
<!-- Node2&#45;&gt;Node3 -->
<g id="edge2_Node000002_Node000003" class="edge">
<title>Node2&#45;&gt;Node3</title>
<g id="a_edge2_Node000002_Node000003"><a xlink:title=" ">
<path fill="none" stroke="#63b8ff" d="M188.4,-79.14C205.36,-87.59 230.06,-99.25 252.5,-107.38 258.49,-109.55 264.83,-111.61 271.18,-113.52"/>
<polygon fill="#63b8ff" stroke="#63b8ff" points="269.78,-116.76 280.36,-116.18 271.73,-110.03 269.78,-116.76"/>
</a>
</g>
</g>
<!-- Node4 -->
<g id="Node000004" class="node">
<title>Node4</title>
<g id="a_Node000004"><a xlink:href="ini_8c.html#a3dcb94a4fb0053e4c85ee6fa56cb48b5" target="_top" xlink:title=" ">
<polygon fill="white" stroke="#666666" points="355.5,-98.75 299,-98.75 299,-78 355.5,-78 355.5,-98.75"/>
<text text-anchor="middle" x="327.25" y="-85.25" font-family="Helvetica,sans-Serif" font-size="10.00">ini_lskip</text>
</a>
</g>
</g>
<!-- Node2&#45;&gt;Node4 -->
<g id="edge3_Node000002_Node000004" class="edge">
<title>Node2&#45;&gt;Node4</title>
<g id="a_edge3_Node000002_Node000004"><a xlink:title=" ">
<path fill="none" stroke="#63b8ff" d="M216.86,-74.59C239.59,-77.46 266.17,-80.81 287.44,-83.49"/>
<polygon fill="#63b8ff" stroke="#63b8ff" points="286.79,-86.93 297.15,-84.71 287.67,-79.99 286.79,-86.93"/>
</a>
</g>
</g>
<!-- Node5 -->
<g id="Node000005" class="node">
<title>Node5</title>
<g id="a_Node000005"><a xlink:href="ini_8c.html#a6720662d19174eab055f3a2d3ec5825c" target="_top" xlink:title=" ">
<polygon fill="white" stroke="#666666" points="356.62,-59.75 297.88,-59.75 297.88,-39 356.62,-39 356.62,-59.75"/>
<text text-anchor="middle" x="327.25" y="-46.25" font-family="Helvetica,sans-Serif" font-size="10.00">ini_rstrip</text>
</a>
</g>
</g>
<!-- Node2&#45;&gt;Node5 -->
<g id="edge4_Node000002_Node000005" class="edge">
<title>Node2&#45;&gt;Node5</title>
<g id="a_edge4_Node000002_Node000005"><a xlink:title=" ">
<path fill="none" stroke="#63b8ff" d="M216.86,-62.47C239.28,-59.78 265.46,-56.65 286.58,-54.12"/>
<polygon fill="#63b8ff" stroke="#63b8ff" points="286.72,-57.63 296.23,-52.97 285.89,-50.68 286.72,-57.63"/>
</a>
</g>
</g>
<!-- Node6 -->
<g id="Node000006" class="node">
<title>Node6</title>
<g id="a_Node000006"><a xlink:href="ini_8c.html#a167d3a11167d87db33c4d770f698367f" target="_top" xlink:title=" ">
<polygon fill="white" stroke="#666666" points="364.88,-20.75 289.62,-20.75 289.62,0 364.88,0 364.88,-20.75"/>
<text text-anchor="middle" x="327.25" y="-7.25" font-family="Helvetica,sans-Serif" font-size="10.00">ini_strncpy0</text>
</a>
</g>
</g>
<!-- Node2&#45;&gt;Node6 -->
<g id="edge5_Node000002_Node000006" class="edge">
<title>Node2&#45;&gt;Node6</title>
<g id="a_edge5_Node000002_Node000006"><a xlink:title=" ">
<path fill="none" stroke="#63b8ff" d="M189.13,-57.58C206.09,-49.39 230.42,-38.25 252.5,-30.38 260.67,-27.46 269.47,-24.73 278.05,-22.28"/>
<polygon fill="#63b8ff" stroke="#63b8ff" points="278.97,-25.66 287.68,-19.63 277.11,-18.91 278.97,-25.66"/>
</a>
</g>
</g>
</g>
</svg>
