<?xml version="1.0" encoding="UTF-8" standalone="no"?>
<!DOCTYPE svg PUBLIC "-//W3C//DTD SVG 1.1//EN"
 "http://www.w3.org/Graphics/SVG/1.1/DTD/svg11.dtd">
<!-- Generated by graphviz version 12.2.1 (0)
 -->
<!-- Title: src/ini.h Pages: 1 -->
<svg width="309pt" height="256pt"
 viewBox="0.00 0.00 309.00 255.75" xmlns="http://www.w3.org/2000/svg" xmlns:xlink="http://www.w3.org/1999/xlink">
<g id="graph0" class="graph" transform="scale(1 1) rotate(0) translate(4 251.75)">
<title>src/ini.h</title>
<!-- Node1 -->
<g id="Node000001" class="node">
<title>Node1</title>
<g id="a_Node000001"><a xlink:title=" ">
<polygon fill="#999999" stroke="#666666" points="200.38,-247.75 146.12,-247.75 146.12,-227 200.38,-227 200.38,-247.75"/>
<text text-anchor="middle" x="173.25" y="-234.25" font-family="Helvetica,sans-Serif" font-size="10.00">src/ini.h</text>
</a>
</g>
</g>
<!-- Node2 -->
<g id="Node000002" class="node">
<title>Node2</title>
<g id="a_Node000002"><a xlink:href="cfg_8h.html" target="_top" xlink:title="Анализирует конфигурацию в config.ini.">
<polygon fill="white" stroke="#666666" points="165.88,-191 108.62,-191 108.62,-170.25 165.88,-170.25 165.88,-191"/>
<text text-anchor="middle" x="137.25" y="-177.5" font-family="Helvetica,sans-Serif" font-size="10.00">src/cfg.h</text>
</a>
</g>
</g>
<!-- Node1&#45;&gt;Node2 -->
<g id="edge1_Node000001_Node000002" class="edge">
<title>Node1&#45;&gt;Node2</title>
<g id="a_edge1_Node000001_Node000002"><a xlink:title=" ">
<path fill="none" stroke="#63b8ff" d="M160.6,-217.14C154.86,-208.41 148.33,-198.47 143.63,-191.33"/>
<polygon fill="#63b8ff" stroke="#63b8ff" points="157.56,-218.89 165.98,-225.32 163.41,-215.04 157.56,-218.89"/>
</a>
</g>
</g>
<!-- Node9 -->
<g id="Node000009" class="node">
<title>Node9</title>
<g id="a_Node000009"><a xlink:href="ini_8c.html" target="_top" xlink:title=" ">
<polygon fill="white" stroke="#666666" points="237,-191 183.5,-191 183.5,-170.25 237,-170.25 237,-191"/>
<text text-anchor="middle" x="210.25" y="-177.5" font-family="Helvetica,sans-Serif" font-size="10.00">src/ini.c</text>
</a>
</g>
</g>
<!-- Node1&#45;&gt;Node9 -->
<g id="edge11_Node000001_Node000009" class="edge">
<title>Node1&#45;&gt;Node9</title>
<g id="a_edge11_Node000001_Node000009"><a xlink:title=" ">
<path fill="none" stroke="#63b8ff" d="M186.25,-217.14C192.15,-208.41 198.87,-198.47 203.69,-191.33"/>
<polygon fill="#63b8ff" stroke="#63b8ff" points="183.41,-215.09 180.71,-225.33 189.21,-219.01 183.41,-215.09"/>
</a>
</g>
</g>
<!-- Node3 -->
<g id="Node000003" class="node">
<title>Node3</title>
<g id="a_Node000003"><a xlink:href="cfg_8c.html" target="_top" xlink:title=" ">
<polygon fill="white" stroke="#666666" points="56.5,-134.25 0,-134.25 0,-113.5 56.5,-113.5 56.5,-134.25"/>
<text text-anchor="middle" x="28.25" y="-120.75" font-family="Helvetica,sans-Serif" font-size="10.00">src/cfg.c</text>
</a>
</g>
</g>
<!-- Node2&#45;&gt;Node3 -->
<g id="edge2_Node000002_Node000003" class="edge">
<title>Node2&#45;&gt;Node3</title>
<g id="a_edge2_Node000002_Node000003"><a xlink:title=" ">
<path fill="none" stroke="#63b8ff" d="M107.49,-164.68C88.41,-155.09 64.18,-142.92 47.57,-134.58"/>
<polygon fill="#63b8ff" stroke="#63b8ff" points="105.9,-167.8 116.41,-169.16 109.05,-161.54 105.9,-167.8"/>
</a>
</g>
</g>
<!-- Node4 -->
<g id="Node000004" class="node">
<title>Node4</title>
<g id="a_Node000004"><a xlink:href="fs_8h.html" target="_top" xlink:title="Модуль для работы с файловой системой">
<polygon fill="white" stroke="#666666" points="189.88,-134.25 138.62,-134.25 138.62,-113.5 189.88,-113.5 189.88,-134.25"/>
<text text-anchor="middle" x="164.25" y="-120.75" font-family="Helvetica,sans-Serif" font-size="10.00">src/fs.h</text>
</a>
</g>
</g>
<!-- Node2&#45;&gt;Node4 -->
<g id="edge3_Node000002_Node000004" class="edge">
<title>Node2&#45;&gt;Node4</title>
<g id="a_edge3_Node000002_Node000004"><a xlink:title=" ">
<path fill="none" stroke="#63b8ff" d="M147.16,-159.53C151.36,-151.02 156.06,-141.49 159.46,-134.58"/>
<polygon fill="#63b8ff" stroke="#63b8ff" points="144.03,-157.96 142.75,-168.48 150.31,-161.06 144.03,-157.96"/>
</a>
</g>
</g>
<!-- Node6 -->
<g id="Node000006" class="node">
<title>Node6</title>
<g id="a_Node000006"><a xlink:href="main_8c.html" target="_top" xlink:title="Прога для комфортного кача с YouTube.">
<polygon fill="white" stroke="#666666" points="211.38,-20.75 145.12,-20.75 145.12,0 211.38,0 211.38,-20.75"/>
<text text-anchor="middle" x="178.25" y="-7.25" font-family="Helvetica,sans-Serif" font-size="10.00">src/main.c</text>
</a>
</g>
</g>
<!-- Node2&#45;&gt;Node6 -->
<g id="edge9_Node000002_Node000006" class="edge">
<title>Node2&#45;&gt;Node6</title>
<g id="a_edge9_Node000002_Node000006"><a xlink:title=" ">
<path fill="none" stroke="#63b8ff" d="M123.45,-160.6C107.07,-135.47 84.24,-90.47 103.25,-56.75 112.89,-39.65 131.86,-28.26 148.31,-21.17"/>
<polygon fill="#63b8ff" stroke="#63b8ff" points="120.34,-162.24 128.87,-168.52 126.11,-158.29 120.34,-162.24"/>
</a>
</g>
</g>
<!-- Node7 -->
<g id="Node000007" class="node">
<title>Node7</title>
<g id="a_Node000007"><a xlink:href="yt__dlp_8h.html" target="_top" xlink:title="Модуль для работы с yt&#45;dlp.">
<polygon fill="white" stroke="#666666" points="290.38,-77.5 218.12,-77.5 218.12,-56.75 290.38,-56.75 290.38,-77.5"/>
<text text-anchor="middle" x="254.25" y="-64" font-family="Helvetica,sans-Serif" font-size="10.00">src/yt_dlp.h</text>
</a>
</g>
</g>
<!-- Node2&#45;&gt;Node7 -->
<g id="edge10_Node000002_Node000007" class="edge">
<title>Node2&#45;&gt;Node7</title>
<g id="a_edge10_Node000002_Node000007"><a xlink:title=" ">
<path fill="none" stroke="#63b8ff" d="M162.12,-163.51C173.91,-155.37 187.86,-144.95 199.25,-134.25 218.62,-116.05 237.64,-91.19 247.44,-77.73"/>
<polygon fill="#63b8ff" stroke="#63b8ff" points="160.42,-160.44 154.09,-168.93 164.34,-166.24 160.42,-160.44"/>
</a>
</g>
</g>
<!-- Node5 -->
<g id="Node000005" class="node">
<title>Node5</title>
<g id="a_Node000005"><a xlink:href="fs_8c.html" target="_top" xlink:title=" ">
<polygon fill="white" stroke="#666666" points="162.5,-77.5 112,-77.5 112,-56.75 162.5,-56.75 162.5,-77.5"/>
<text text-anchor="middle" x="137.25" y="-64" font-family="Helvetica,sans-Serif" font-size="10.00">src/fs.c</text>
</a>
</g>
</g>
<!-- Node4&#45;&gt;Node5 -->
<g id="edge4_Node000004_Node000005" class="edge">
<title>Node4&#45;&gt;Node5</title>
<g id="a_edge4_Node000004_Node000005"><a xlink:title=" ">
<path fill="none" stroke="#63b8ff" d="M154.34,-102.78C150.14,-94.27 145.44,-84.74 142.04,-77.83"/>
<polygon fill="#63b8ff" stroke="#63b8ff" points="151.19,-104.31 158.75,-111.73 157.47,-101.21 151.19,-104.31"/>
</a>
</g>
</g>
<!-- Node4&#45;&gt;Node6 -->
<g id="edge5_Node000004_Node000006" class="edge">
<title>Node4&#45;&gt;Node6</title>
<g id="a_edge5_Node000004_Node000006"><a xlink:title=" ">
<path fill="none" stroke="#63b8ff" d="M167.69,-101.93C168.9,-94.26 170.21,-85.5 171.25,-77.5 173.87,-57.35 176.2,-33.65 177.39,-20.81"/>
<polygon fill="#63b8ff" stroke="#63b8ff" points="164.26,-101.23 166.13,-111.66 171.17,-102.35 164.26,-101.23"/>
</a>
</g>
</g>
<!-- Node4&#45;&gt;Node7 -->
<g id="edge6_Node000004_Node000007" class="edge">
<title>Node4&#45;&gt;Node7</title>
<g id="a_edge6_Node000004_Node000007"><a xlink:title=" ">
<path fill="none" stroke="#63b8ff" d="M189.93,-107.26C205.51,-97.78 224.9,-85.98 238.3,-77.83"/>
<polygon fill="#63b8ff" stroke="#63b8ff" points="188.36,-104.11 181.63,-112.3 192,-110.09 188.36,-104.11"/>
</a>
</g>
</g>
<!-- Node7&#45;&gt;Node6 -->
<g id="edge7_Node000007_Node000006" class="edge">
<title>Node7&#45;&gt;Node6</title>
<g id="a_edge7_Node000007_Node000006"><a xlink:title=" ">
<path fill="none" stroke="#63b8ff" d="M231.43,-49.69C218.48,-40.36 202.71,-29 191.72,-21.08"/>
<polygon fill="#63b8ff" stroke="#63b8ff" points="229.28,-52.45 239.43,-55.45 233.37,-46.77 229.28,-52.45"/>
</a>
</g>
</g>
<!-- Node8 -->
<g id="Node000008" class="node">
<title>Node8</title>
<g id="a_Node000008"><a xlink:href="yt__dlp_8c.html" target="_top" xlink:title=" ">
<polygon fill="white" stroke="#666666" points="301,-20.75 229.5,-20.75 229.5,0 301,0 301,-20.75"/>
<text text-anchor="middle" x="265.25" y="-7.25" font-family="Helvetica,sans-Serif" font-size="10.00">src/yt_dlp.c</text>
</a>
</g>
</g>
<!-- Node7&#45;&gt;Node8 -->
<g id="edge8_Node000007_Node000008" class="edge">
<title>Node7&#45;&gt;Node8</title>
<g id="a_edge8_Node000007_Node000008"><a xlink:title=" ">
<path fill="none" stroke="#63b8ff" d="M258.46,-45.17C260.13,-36.88 261.96,-27.75 263.3,-21.08"/>
<polygon fill="#63b8ff" stroke="#63b8ff" points="255.05,-44.36 256.51,-54.85 261.92,-45.74 255.05,-44.36"/>
</a>
</g>
</g>
</g>
</svg>
