<?xml version="1.0" encoding="UTF-8" standalone="no"?>
<!DOCTYPE svg PUBLIC "-//W3C//DTD SVG 1.1//EN"
 "http://www.w3.org/Graphics/SVG/1.1/DTD/svg11.dtd">
<!-- Generated by graphviz version 12.2.1 (0)
 -->
<!-- Title: ini_parse_file Pages: 1 -->
<svg width="347pt" height="29pt"
 viewBox="0.00 0.00 346.50 28.75" xmlns="http://www.w3.org/2000/svg" xmlns:xlink="http://www.w3.org/1999/xlink">
<g id="graph0" class="graph" transform="scale(1 1) rotate(0) translate(4 24.75)">
<title>ini_parse_file</title>
<!-- Node1 -->
<g id="Node000001" class="node">
<title>Node1</title>
<g id="a_Node000001"><a xlink:title=" ">
<polygon fill="#999999" stroke="#666666" points="338.5,-20.75 258,-20.75 258,0 338.5,0 338.5,-20.75"/>
<text text-anchor="middle" x="298.25" y="-7.25" font-family="Helvetica,sans-Serif" font-size="10.00">ini_parse_file</text>
</a>
</g>
</g>
<!-- Node2 -->
<g id="Node000002" class="node">
<title>Node2</title>
<g id="a_Node000002"><a xlink:href="ini_8c.html#a2fab292681265b7774e2a2885abb758c" target="_top" xlink:title=" ">
<polygon fill="white" stroke="#666666" points="222,-20.75 161.75,-20.75 161.75,0 222,0 222,-20.75"/>
<text text-anchor="middle" x="191.88" y="-7.25" font-family="Helvetica,sans-Serif" font-size="10.00">ini_parse</text>
</a>
</g>
</g>
<!-- Node1&#45;&gt;Node2 -->
<g id="edge1_Node000001_Node000002" class="edge">
<title>Node1&#45;&gt;Node2</title>
<g id="a_edge1_Node000001_Node000002"><a xlink:title=" ">
<path fill="none" stroke="#63b8ff" d="M246.56,-10.38C238.24,-10.38 229.87,-10.38 222.3,-10.38"/>
<polygon fill="#63b8ff" stroke="#63b8ff" points="246.28,-13.88 256.28,-10.38 246.28,-6.88 246.28,-13.88"/>
</a>
</g>
</g>
<!-- Node3 -->
<g id="Node000003" class="node">
<title>Node3</title>
<g id="a_Node000003"><a xlink:href="cfg_8c.html#ad73952ea092a41b4806ab170eb62f548" target="_top" xlink:title="Загружает ini в переменную config.">
<polygon fill="white" stroke="#666666" points="125.75,-20.75 76.75,-20.75 76.75,0 125.75,0 125.75,-20.75"/>
<text text-anchor="middle" x="101.25" y="-7.25" font-family="Helvetica,sans-Serif" font-size="10.00">loadIni</text>
</a>
</g>
</g>
<!-- Node2&#45;&gt;Node3 -->
<g id="edge2_Node000002_Node000003" class="edge">
<title>Node2&#45;&gt;Node3</title>
<g id="a_edge2_Node000002_Node000003"><a xlink:title=" ">
<path fill="none" stroke="#63b8ff" d="M149.99,-10.38C141.79,-10.38 133.42,-10.38 126.04,-10.38"/>
<polygon fill="#63b8ff" stroke="#63b8ff" points="149.85,-13.88 159.85,-10.38 149.85,-6.88 149.85,-13.88"/>
</a>
</g>
</g>
<!-- Node4 -->
<g id="Node000004" class="node">
<title>Node4</title>
<g id="a_Node000004"><a xlink:href="main_8c.html#a0ddf1224851353fc92bfbff6f499fa97" target="_top" xlink:title="Точка входа в программу">
<polygon fill="white" stroke="#666666" points="40.75,-20.75 0,-20.75 0,0 40.75,0 40.75,-20.75"/>
<text text-anchor="middle" x="20.38" y="-7.25" font-family="Helvetica,sans-Serif" font-size="10.00">main</text>
</a>
</g>
</g>
<!-- Node3&#45;&gt;Node4 -->
<g id="edge3_Node000003_Node000004" class="edge">
<title>Node3&#45;&gt;Node4</title>
<g id="a_edge3_Node000003_Node000004"><a xlink:title=" ">
<path fill="none" stroke="#63b8ff" d="M65.2,-10.38C56.91,-10.38 48.36,-10.38 41.04,-10.38"/>
<polygon fill="#63b8ff" stroke="#63b8ff" points="65.07,-13.88 75.07,-10.38 65.07,-6.88 65.07,-13.88"/>
</a>
</g>
</g>
</g>
</svg>
