<?xml version="1.0" encoding="UTF-8" standalone="no"?>
<!DOCTYPE svg PUBLIC "-//W3C//DTD SVG 1.1//EN"
 "http://www.w3.org/Graphics/SVG/1.1/DTD/svg11.dtd">
<!-- Generated by graphviz version 12.2.1 (0)
 -->
<!-- Title: ini_parse_string Pages: 1 -->
<svg width="423pt" height="146pt"
 viewBox="0.00 0.00 422.75 145.75" xmlns="http://www.w3.org/2000/svg" xmlns:xlink="http://www.w3.org/1999/xlink">
<g id="graph0" class="graph" transform="scale(1 1) rotate(0) translate(4 141.75)">
<title>ini_parse_string</title>
<!-- Node1 -->
<g id="Node000001" class="node">
<title>Node1</title>
<g id="a_Node000001"><a xlink:title=" ">
<polygon fill="#999999" stroke="#666666" points="93.25,-58.75 0,-58.75 0,-38 93.25,-38 93.25,-58.75"/>
<text text-anchor="middle" x="46.62" y="-45.25" font-family="Helvetica,sans-Serif" font-size="10.00">ini_parse_string</text>
</a>
</g>
</g>
<!-- Node2 -->
<g id="Node000002" class="node">
<title>Node2</title>
<g id="a_Node000002"><a xlink:href="ini_8c.html#ad8b766ac18397b0b262559203ea7f602" target="_top" xlink:title=" ">
<polygon fill="white" stroke="#666666" points="229.25,-78.75 129.25,-78.75 129.25,-58 229.25,-58 229.25,-78.75"/>
<text text-anchor="middle" x="179.25" y="-65.25" font-family="Helvetica,sans-Serif" font-size="10.00">ini_parse_stream</text>
</a>
</g>
</g>
<!-- Node1&#45;&gt;Node2 -->
<g id="edge1_Node000001_Node000002" class="edge">
<title>Node1&#45;&gt;Node2</title>
<g id="a_edge1_Node000001_Node000002"><a xlink:title=" ">
<path fill="none" stroke="#63b8ff" d="M93.68,-55.43C101.47,-56.62 109.66,-57.87 117.75,-59.11"/>
<polygon fill="#63b8ff" stroke="#63b8ff" points="117.16,-62.56 127.57,-60.62 118.22,-55.64 117.16,-62.56"/>
</a>
</g>
</g>
<!-- Node7 -->
<g id="Node000007" class="node">
<title>Node7</title>
<g id="a_Node000007"><a xlink:href="ini_8c.html#a6626dbff8a6fc901e374bdfac73ed2fb" target="_top" xlink:title=" ">
<polygon fill="white" stroke="#666666" points="228.12,-39.75 130.38,-39.75 130.38,-19 228.12,-19 228.12,-39.75"/>
<text text-anchor="middle" x="179.25" y="-26.25" font-family="Helvetica,sans-Serif" font-size="10.00">ini_reader_string</text>
</a>
</g>
</g>
<!-- Node1&#45;&gt;Node7 -->
<g id="edge6_Node000001_Node000007" class="edge">
<title>Node1&#45;&gt;Node7</title>
<g id="a_edge6_Node000001_Node000007"><a xlink:title=" ">
<path fill="none" stroke="#63b8ff" d="M93.68,-41.68C101.76,-40.5 110.27,-39.26 118.65,-38.04"/>
<polygon fill="#63b8ff" stroke="#63b8ff" points="119.07,-41.52 128.46,-36.62 118.06,-34.59 119.07,-41.52"/>
</a>
</g>
</g>
<!-- Node3 -->
<g id="Node000003" class="node">
<title>Node3</title>
<g id="a_Node000003"><a xlink:href="ini_8c.html#a94d886b4c60efdbc34fafd51d6fa6aef" target="_top" xlink:title=" ">
<polygon fill="white" stroke="#666666" points="414.75,-137.75 265.25,-137.75 265.25,-117 414.75,-117 414.75,-137.75"/>
<text text-anchor="middle" x="340" y="-124.25" font-family="Helvetica,sans-Serif" font-size="10.00">ini_find_chars_or_comment</text>
</a>
</g>
</g>
<!-- Node2&#45;&gt;Node3 -->
<g id="edge2_Node000002_Node000003" class="edge">
<title>Node2&#45;&gt;Node3</title>
<g id="a_edge2_Node000002_Node000003"><a xlink:title=" ">
<path fill="none" stroke="#63b8ff" d="M201.15,-79.14C218.11,-87.59 242.81,-99.25 265.25,-107.38 271.24,-109.55 277.58,-111.61 283.93,-113.52"/>
<polygon fill="#63b8ff" stroke="#63b8ff" points="282.53,-116.76 293.11,-116.18 284.48,-110.03 282.53,-116.76"/>
</a>
</g>
</g>
<!-- Node4 -->
<g id="Node000004" class="node">
<title>Node4</title>
<g id="a_Node000004"><a xlink:href="ini_8c.html#a3dcb94a4fb0053e4c85ee6fa56cb48b5" target="_top" xlink:title=" ">
<polygon fill="white" stroke="#666666" points="368.25,-98.75 311.75,-98.75 311.75,-78 368.25,-78 368.25,-98.75"/>
<text text-anchor="middle" x="340" y="-85.25" font-family="Helvetica,sans-Serif" font-size="10.00">ini_lskip</text>
</a>
</g>
</g>
<!-- Node2&#45;&gt;Node4 -->
<g id="edge3_Node000002_Node000004" class="edge">
<title>Node2&#45;&gt;Node4</title>
<g id="a_edge3_Node000002_Node000004"><a xlink:title=" ">
<path fill="none" stroke="#63b8ff" d="M229.61,-74.59C252.34,-77.46 278.92,-80.81 300.19,-83.49"/>
<polygon fill="#63b8ff" stroke="#63b8ff" points="299.54,-86.93 309.9,-84.71 300.42,-79.99 299.54,-86.93"/>
</a>
</g>
</g>
<!-- Node5 -->
<g id="Node000005" class="node">
<title>Node5</title>
<g id="a_Node000005"><a xlink:href="ini_8c.html#a6720662d19174eab055f3a2d3ec5825c" target="_top" xlink:title=" ">
<polygon fill="white" stroke="#666666" points="369.38,-59.75 310.62,-59.75 310.62,-39 369.38,-39 369.38,-59.75"/>
<text text-anchor="middle" x="340" y="-46.25" font-family="Helvetica,sans-Serif" font-size="10.00">ini_rstrip</text>
</a>
</g>
</g>
<!-- Node2&#45;&gt;Node5 -->
<g id="edge4_Node000002_Node000005" class="edge">
<title>Node2&#45;&gt;Node5</title>
<g id="a_edge4_Node000002_Node000005"><a xlink:title=" ">
<path fill="none" stroke="#63b8ff" d="M229.61,-62.47C252.03,-59.78 278.21,-56.65 299.33,-54.12"/>
<polygon fill="#63b8ff" stroke="#63b8ff" points="299.47,-57.63 308.98,-52.97 298.64,-50.68 299.47,-57.63"/>
</a>
</g>
</g>
<!-- Node6 -->
<g id="Node000006" class="node">
<title>Node6</title>
<g id="a_Node000006"><a xlink:href="ini_8c.html#a167d3a11167d87db33c4d770f698367f" target="_top" xlink:title=" ">
<polygon fill="white" stroke="#666666" points="377.62,-20.75 302.38,-20.75 302.38,0 377.62,0 377.62,-20.75"/>
<text text-anchor="middle" x="340" y="-7.25" font-family="Helvetica,sans-Serif" font-size="10.00">ini_strncpy0</text>
</a>
</g>
</g>
<!-- Node2&#45;&gt;Node6 -->
<g id="edge5_Node000002_Node000006" class="edge">
<title>Node2&#45;&gt;Node6</title>
<g id="a_edge5_Node000002_Node000006"><a xlink:title=" ">
<path fill="none" stroke="#63b8ff" d="M207.88,-57.53C214.89,-54.66 222.39,-51.49 229.25,-48.38 245.54,-40.99 248.53,-36.75 265.25,-30.38 273.53,-27.22 282.51,-24.35 291.26,-21.83"/>
<polygon fill="#63b8ff" stroke="#63b8ff" points="291.98,-25.26 300.69,-19.23 290.12,-18.51 291.98,-25.26"/>
</a>
</g>
</g>
</g>
</svg>
