<?xml version="1.0" encoding="UTF-8" standalone="no"?>
<!DOCTYPE svg PUBLIC "-//W3C//DTD SVG 1.1//EN"
 "http://www.w3.org/Graphics/SVG/1.1/DTD/svg11.dtd">
<!-- Generated by graphviz version 12.2.1 (0)
 -->
<!-- Title: ini_parse_stream Pages: 1 -->
<svg width="495pt" height="68pt"
 viewBox="0.00 0.00 495.25 67.75" xmlns="http://www.w3.org/2000/svg" xmlns:xlink="http://www.w3.org/1999/xlink">
<g id="graph0" class="graph" transform="scale(1 1) rotate(0) translate(4 63.75)">
<title>ini_parse_stream</title>
<!-- Node1 -->
<g id="Node000001" class="node">
<title>Node1</title>
<g id="a_Node000001"><a xlink:title=" ">
<polygon fill="#999999" stroke="#666666" points="487.25,-39.75 387.25,-39.75 387.25,-19 487.25,-19 487.25,-39.75"/>
<text text-anchor="middle" x="437.25" y="-26.25" font-family="Helvetica,sans-Serif" font-size="10.00">ini_parse_stream</text>
</a>
</g>
</g>
<!-- Node2 -->
<g id="Node000002" class="node">
<title>Node2</title>
<g id="a_Node000002"><a xlink:href="ini_8c.html#a876bf8b62ade275320db827b929f9289" target="_top" xlink:title=" ">
<polygon fill="white" stroke="#666666" points="344.88,-59.75 264.38,-59.75 264.38,-39 344.88,-39 344.88,-59.75"/>
<text text-anchor="middle" x="304.62" y="-46.25" font-family="Helvetica,sans-Serif" font-size="10.00">ini_parse_file</text>
</a>
</g>
</g>
<!-- Node1&#45;&gt;Node2 -->
<g id="edge1_Node000001_Node000002" class="edge">
<title>Node1&#45;&gt;Node2</title>
<g id="a_edge1_Node000001_Node000002"><a xlink:title=" ">
<path fill="none" stroke="#63b8ff" d="M375.77,-38.64C365.43,-40.22 354.93,-41.83 345.32,-43.3"/>
<polygon fill="#63b8ff" stroke="#63b8ff" points="376.02,-42.14 385.37,-37.17 374.96,-35.22 376.02,-42.14"/>
</a>
</g>
</g>
<!-- Node6 -->
<g id="Node000006" class="node">
<title>Node6</title>
<g id="a_Node000006"><a xlink:href="ini_8c.html#aeb90a0b5e4226351899d28ead4eed6fa" target="_top" xlink:title=" ">
<polygon fill="white" stroke="#666666" points="351.25,-20.75 258,-20.75 258,0 351.25,0 351.25,-20.75"/>
<text text-anchor="middle" x="304.62" y="-7.25" font-family="Helvetica,sans-Serif" font-size="10.00">ini_parse_string</text>
</a>
</g>
</g>
<!-- Node1&#45;&gt;Node6 -->
<g id="edge5_Node000001_Node000006" class="edge">
<title>Node1&#45;&gt;Node6</title>
<g id="a_edge5_Node000001_Node000006"><a xlink:title=" ">
<path fill="none" stroke="#63b8ff" d="M375.59,-20.55C367.54,-19.38 359.38,-18.19 351.63,-17.07"/>
<polygon fill="#63b8ff" stroke="#63b8ff" points="374.97,-24 385.37,-21.97 375.98,-17.07 374.97,-24"/>
</a>
</g>
</g>
<!-- Node3 -->
<g id="Node000003" class="node">
<title>Node3</title>
<g id="a_Node000003"><a xlink:href="ini_8c.html#a2fab292681265b7774e2a2885abb758c" target="_top" xlink:title=" ">
<polygon fill="white" stroke="#666666" points="222,-59.75 161.75,-59.75 161.75,-39 222,-39 222,-59.75"/>
<text text-anchor="middle" x="191.88" y="-46.25" font-family="Helvetica,sans-Serif" font-size="10.00">ini_parse</text>
</a>
</g>
</g>
<!-- Node2&#45;&gt;Node3 -->
<g id="edge2_Node000002_Node000003" class="edge">
<title>Node2&#45;&gt;Node3</title>
<g id="a_edge2_Node000002_Node000003"><a xlink:title=" ">
<path fill="none" stroke="#63b8ff" d="M252.75,-49.38C242.27,-49.38 231.58,-49.38 222.19,-49.38"/>
<polygon fill="#63b8ff" stroke="#63b8ff" points="252.44,-52.88 262.44,-49.38 252.44,-45.88 252.44,-52.88"/>
</a>
</g>
</g>
<!-- Node4 -->
<g id="Node000004" class="node">
<title>Node4</title>
<g id="a_Node000004"><a xlink:href="cfg_8c.html#ad73952ea092a41b4806ab170eb62f548" target="_top" xlink:title="Загружает ini в переменную config.">
<polygon fill="white" stroke="#666666" points="125.75,-59.75 76.75,-59.75 76.75,-39 125.75,-39 125.75,-59.75"/>
<text text-anchor="middle" x="101.25" y="-46.25" font-family="Helvetica,sans-Serif" font-size="10.00">loadIni</text>
</a>
</g>
</g>
<!-- Node3&#45;&gt;Node4 -->
<g id="edge3_Node000003_Node000004" class="edge">
<title>Node3&#45;&gt;Node4</title>
<g id="a_edge3_Node000003_Node000004"><a xlink:title=" ">
<path fill="none" stroke="#63b8ff" d="M149.99,-49.38C141.79,-49.38 133.42,-49.38 126.04,-49.38"/>
<polygon fill="#63b8ff" stroke="#63b8ff" points="149.85,-52.88 159.85,-49.38 149.85,-45.88 149.85,-52.88"/>
</a>
</g>
</g>
<!-- Node5 -->
<g id="Node000005" class="node">
<title>Node5</title>
<g id="a_Node000005"><a xlink:href="main_8c.html#a0ddf1224851353fc92bfbff6f499fa97" target="_top" xlink:title="Точка входа в программу">
<polygon fill="white" stroke="#666666" points="40.75,-59.75 0,-59.75 0,-39 40.75,-39 40.75,-59.75"/>
<text text-anchor="middle" x="20.38" y="-46.25" font-family="Helvetica,sans-Serif" font-size="10.00">main</text>
</a>
</g>
</g>
<!-- Node4&#45;&gt;Node5 -->
<g id="edge4_Node000004_Node000005" class="edge">
<title>Node4&#45;&gt;Node5</title>
<g id="a_edge4_Node000004_Node000005"><a xlink:title=" ">
<path fill="none" stroke="#63b8ff" d="M65.2,-49.38C56.91,-49.38 48.36,-49.38 41.04,-49.38"/>
<polygon fill="#63b8ff" stroke="#63b8ff" points="65.07,-52.88 75.07,-49.38 65.07,-45.88 65.07,-52.88"/>
</a>
</g>
</g>
</g>
</svg>
