<?xml version="1.0" encoding="UTF-8" standalone="no"?>
<!DOCTYPE svg PUBLIC "-//W3C//DTD SVG 1.1//EN"
 "http://www.w3.org/Graphics/SVG/1.1/DTD/svg11.dtd">
<!-- Generated by graphviz version 12.2.1 (0)
 -->
<!-- Title: ini_parse_stream Pages: 1 -->
<svg width="294pt" height="146pt"
 viewBox="0.00 0.00 293.50 145.75" xmlns="http://www.w3.org/2000/svg" xmlns:xlink="http://www.w3.org/1999/xlink">
<g id="graph0" class="graph" transform="scale(1 1) rotate(0) translate(4 141.75)">
<title>ini_parse_stream</title>
<!-- Node1 -->
<g id="Node000001" class="node">
<title>Node1</title>
<g id="a_Node000001"><a xlink:title=" ">
<polygon fill="#999999" stroke="#666666" points="100,-78.75 0,-78.75 0,-58 100,-58 100,-78.75"/>
<text text-anchor="middle" x="50" y="-65.25" font-family="Helvetica,sans-Serif" font-size="10.00">ini_parse_stream</text>
</a>
</g>
</g>
<!-- Node2 -->
<g id="Node000002" class="node">
<title>Node2</title>
<g id="a_Node000002"><a xlink:href="ini_8c.html#a94d886b4c60efdbc34fafd51d6fa6aef" target="_top" xlink:title=" ">
<polygon fill="white" stroke="#666666" points="285.5,-137.75 136,-137.75 136,-117 285.5,-117 285.5,-137.75"/>
<text text-anchor="middle" x="210.75" y="-124.25" font-family="Helvetica,sans-Serif" font-size="10.00">ini_find_chars_or_comment</text>
</a>
</g>
</g>
<!-- Node1&#45;&gt;Node2 -->
<g id="edge1_Node000001_Node000002" class="edge">
<title>Node1&#45;&gt;Node2</title>
<g id="a_edge1_Node000001_Node000002"><a xlink:title=" ">
<path fill="none" stroke="#63b8ff" d="M71.9,-79.14C88.86,-87.59 113.56,-99.25 136,-107.38 141.99,-109.55 148.33,-111.61 154.68,-113.52"/>
<polygon fill="#63b8ff" stroke="#63b8ff" points="153.28,-116.76 163.86,-116.18 155.23,-110.03 153.28,-116.76"/>
</a>
</g>
</g>
<!-- Node3 -->
<g id="Node000003" class="node">
<title>Node3</title>
<g id="a_Node000003"><a xlink:href="ini_8c.html#a3dcb94a4fb0053e4c85ee6fa56cb48b5" target="_top" xlink:title=" ">
<polygon fill="white" stroke="#666666" points="239,-98.75 182.5,-98.75 182.5,-78 239,-78 239,-98.75"/>
<text text-anchor="middle" x="210.75" y="-85.25" font-family="Helvetica,sans-Serif" font-size="10.00">ini_lskip</text>
</a>
</g>
</g>
<!-- Node1&#45;&gt;Node3 -->
<g id="edge2_Node000001_Node000003" class="edge">
<title>Node1&#45;&gt;Node3</title>
<g id="a_edge2_Node000001_Node000003"><a xlink:title=" ">
<path fill="none" stroke="#63b8ff" d="M100.36,-74.59C123.09,-77.46 149.67,-80.81 170.94,-83.49"/>
<polygon fill="#63b8ff" stroke="#63b8ff" points="170.29,-86.93 180.65,-84.71 171.17,-79.99 170.29,-86.93"/>
</a>
</g>
</g>
<!-- Node4 -->
<g id="Node000004" class="node">
<title>Node4</title>
<g id="a_Node000004"><a xlink:href="ini_8c.html#a6720662d19174eab055f3a2d3ec5825c" target="_top" xlink:title=" ">
<polygon fill="white" stroke="#666666" points="240.12,-59.75 181.38,-59.75 181.38,-39 240.12,-39 240.12,-59.75"/>
<text text-anchor="middle" x="210.75" y="-46.25" font-family="Helvetica,sans-Serif" font-size="10.00">ini_rstrip</text>
</a>
</g>
</g>
<!-- Node1&#45;&gt;Node4 -->
<g id="edge3_Node000001_Node000004" class="edge">
<title>Node1&#45;&gt;Node4</title>
<g id="a_edge3_Node000001_Node000004"><a xlink:title=" ">
<path fill="none" stroke="#63b8ff" d="M100.36,-62.47C122.78,-59.78 148.96,-56.65 170.08,-54.12"/>
<polygon fill="#63b8ff" stroke="#63b8ff" points="170.22,-57.63 179.73,-52.97 169.39,-50.68 170.22,-57.63"/>
</a>
</g>
</g>
<!-- Node5 -->
<g id="Node000005" class="node">
<title>Node5</title>
<g id="a_Node000005"><a xlink:href="ini_8c.html#a167d3a11167d87db33c4d770f698367f" target="_top" xlink:title=" ">
<polygon fill="white" stroke="#666666" points="248.38,-20.75 173.12,-20.75 173.12,0 248.38,0 248.38,-20.75"/>
<text text-anchor="middle" x="210.75" y="-7.25" font-family="Helvetica,sans-Serif" font-size="10.00">ini_strncpy0</text>
</a>
</g>
</g>
<!-- Node1&#45;&gt;Node5 -->
<g id="edge4_Node000001_Node000005" class="edge">
<title>Node1&#45;&gt;Node5</title>
<g id="a_edge4_Node000001_Node000005"><a xlink:title=" ">
<path fill="none" stroke="#63b8ff" d="M72.63,-57.58C89.59,-49.39 113.92,-38.25 136,-30.38 144.17,-27.46 152.97,-24.73 161.55,-22.28"/>
<polygon fill="#63b8ff" stroke="#63b8ff" points="162.47,-25.66 171.18,-19.63 160.61,-18.91 162.47,-25.66"/>
</a>
</g>
</g>
</g>
</svg>
