<?xml version="1.0" encoding="UTF-8" standalone="no"?>
<!DOCTYPE svg PUBLIC "-//W3C//DTD SVG 1.1//EN"
 "http://www.w3.org/Graphics/SVG/1.1/DTD/svg11.dtd">
<!-- Generated by graphviz version 12.2.1 (0)
 -->
<!-- Title: main Pages: 1 -->
<svg width="792pt" height="312pt"
 viewBox="0.00 0.00 791.75 311.75" xmlns="http://www.w3.org/2000/svg" xmlns:xlink="http://www.w3.org/1999/xlink">
<g id="graph0" class="graph" transform="scale(1 1) rotate(0) translate(4 307.75)">
<title>main</title>
<!-- Node1 -->
<g id="Node000001" class="node">
<title>Node1</title>
<g id="a_Node000001"><a xlink:title="Точка входа в программу">
<polygon fill="#999999" stroke="#666666" points="40.75,-186.75 0,-186.75 0,-166 40.75,-166 40.75,-186.75"/>
<text text-anchor="middle" x="20.38" y="-173.25" font-family="Helvetica,sans-Serif" font-size="10.00">main</text>
</a>
</g>
</g>
<!-- Node2 -->
<g id="Node000002" class="node">
<title>Node2</title>
<g id="a_Node000002"><a xlink:href="cfg_8c.html#a9f80ce5675f90546a549aaf0deab4bbe" target="_top" xlink:title="Анализирует опции командной строки">
<polygon fill="white" stroke="#666666" points="155,-303.75 76.75,-303.75 76.75,-283 155,-283 155,-303.75"/>
<text text-anchor="middle" x="115.88" y="-290.25" font-family="Helvetica,sans-Serif" font-size="10.00">getTermOpts</text>
</a>
</g>
</g>
<!-- Node1&#45;&gt;Node2 -->
<g id="edge1_Node000001_Node000002" class="edge">
<title>Node1&#45;&gt;Node2</title>
<g id="a_edge1_Node000001_Node000002"><a xlink:title=" ">
<path fill="none" stroke="#63b8ff" d="M25.12,-186.99C32.39,-206.32 50.1,-247.66 76.75,-273.38 77.78,-274.37 78.87,-275.32 80,-276.24"/>
<polygon fill="#63b8ff" stroke="#63b8ff" points="77.82,-278.99 88.06,-281.72 81.75,-273.2 77.82,-278.99"/>
</a>
</g>
</g>
<!-- Node3 -->
<g id="Node000003" class="node">
<title>Node3</title>
<g id="a_Node000003"><a xlink:href="user_8c.html#affafc76072e99451fd0ed4d9798d82f9" target="_top" xlink:title="Вытряхивает url с юзера и сохраняет его в указатель">
<polygon fill="white" stroke="#666666" points="138.88,-264.75 92.88,-264.75 92.88,-244 138.88,-244 138.88,-264.75"/>
<text text-anchor="middle" x="115.88" y="-251.25" font-family="Helvetica,sans-Serif" font-size="10.00">getUrl</text>
</a>
</g>
</g>
<!-- Node1&#45;&gt;Node3 -->
<g id="edge2_Node000001_Node000003" class="edge">
<title>Node1&#45;&gt;Node3</title>
<g id="a_edge2_Node000001_Node000003"><a xlink:title=" ">
<path fill="none" stroke="#63b8ff" d="M29.89,-187.23C40.06,-199.72 58.07,-220.3 76.75,-234.38 78.74,-235.87 80.85,-237.32 83.03,-238.7"/>
<polygon fill="#63b8ff" stroke="#63b8ff" points="81.04,-241.6 91.45,-243.57 84.55,-235.54 81.04,-241.6"/>
</a>
</g>
</g>
<!-- Node4 -->
<g id="Node000004" class="node">
<title>Node4</title>
<g id="a_Node000004"><a xlink:href="user_8c.html#a97ee70a8770dc30d06c744b24eb2fcfc" target="_top" xlink:title="Выводит хэлп">
<polygon fill="white" stroke="#666666" points="134.38,-225.75 97.38,-225.75 97.38,-205 134.38,-205 134.38,-225.75"/>
<text text-anchor="middle" x="115.88" y="-212.25" font-family="Helvetica,sans-Serif" font-size="10.00">help</text>
</a>
</g>
</g>
<!-- Node1&#45;&gt;Node4 -->
<g id="edge3_Node000001_Node000004" class="edge">
<title>Node1&#45;&gt;Node4</title>
<g id="a_edge3_Node000001_Node000004"><a xlink:title=" ">
<path fill="none" stroke="#63b8ff" d="M41.2,-184.65C54.36,-190.13 71.83,-197.42 86.46,-203.52"/>
<polygon fill="#63b8ff" stroke="#63b8ff" points="85,-206.71 95.57,-207.32 87.69,-200.24 85,-206.71"/>
</a>
</g>
</g>
<!-- Node5 -->
<g id="Node000005" class="node">
<title>Node5</title>
<g id="a_Node000005"><a xlink:href="fs_8c.html#a791c8dff05a93ea82bde76fc7c4a94ca" target="_top" xlink:title="Создаёт нужные папки">
<polygon fill="white" stroke="#666666" points="141.5,-186.75 90.25,-186.75 90.25,-166 141.5,-166 141.5,-186.75"/>
<text text-anchor="middle" x="115.88" y="-173.25" font-family="Helvetica,sans-Serif" font-size="10.00">initDirs</text>
</a>
</g>
</g>
<!-- Node1&#45;&gt;Node5 -->
<g id="edge4_Node000001_Node000005" class="edge">
<title>Node1&#45;&gt;Node5</title>
<g id="a_edge4_Node000001_Node000005"><a xlink:title=" ">
<path fill="none" stroke="#63b8ff" d="M41.2,-176.38C52.12,-176.38 66.01,-176.38 78.78,-176.38"/>
<polygon fill="#63b8ff" stroke="#63b8ff" points="78.56,-179.88 88.56,-176.38 78.56,-172.88 78.56,-179.88"/>
</a>
</g>
</g>
<!-- Node7 -->
<g id="Node000007" class="node">
<title>Node7</title>
<g id="a_Node000007"><a xlink:href="cfg_8c.html#ad73952ea092a41b4806ab170eb62f548" target="_top" xlink:title="Загружает ini в переменную config.">
<polygon fill="white" stroke="#666666" points="140.38,-147.75 91.38,-147.75 91.38,-127 140.38,-127 140.38,-147.75"/>
<text text-anchor="middle" x="115.88" y="-134.25" font-family="Helvetica,sans-Serif" font-size="10.00">loadIni</text>
</a>
</g>
</g>
<!-- Node1&#45;&gt;Node7 -->
<g id="edge6_Node000001_Node000007" class="edge">
<title>Node1&#45;&gt;Node7</title>
<g id="a_edge6_Node000001_Node000007"><a xlink:title=" ">
<path fill="none" stroke="#63b8ff" d="M41.2,-168.1C52.71,-163.31 67.51,-157.13 80.83,-151.58"/>
<polygon fill="#63b8ff" stroke="#63b8ff" points="81.82,-154.95 89.7,-147.87 79.13,-148.49 81.82,-154.95"/>
</a>
</g>
</g>
<!-- Node16 -->
<g id="Node000016" class="node">
<title>Node16</title>
<g id="a_Node000016"><a xlink:href="user_8c.html#a6ba0075fa588e1e916fae184c13aedb2" target="_top" xlink:title="Показывает главное меню и копирует выбор юзера в указатель">
<polygon fill="white" stroke="#666666" points="137.75,-108.75 94,-108.75 94,-88 137.75,-88 137.75,-108.75"/>
<text text-anchor="middle" x="115.88" y="-95.25" font-family="Helvetica,sans-Serif" font-size="10.00">menu</text>
</a>
</g>
</g>
<!-- Node1&#45;&gt;Node16 -->
<g id="edge15_Node000001_Node000016" class="edge">
<title>Node1&#45;&gt;Node16</title>
<g id="a_edge15_Node000001_Node000016"><a xlink:title=" ">
<path fill="none" stroke="#63b8ff" d="M29.89,-165.52C40.06,-153.03 58.07,-132.45 76.75,-118.38 78.92,-116.74 81.23,-115.17 83.62,-113.68"/>
<polygon fill="#63b8ff" stroke="#63b8ff" points="85.29,-116.75 92.24,-108.75 81.82,-110.67 85.29,-116.75"/>
</a>
</g>
</g>
<!-- Node17 -->
<g id="Node000017" class="node">
<title>Node17</title>
<g id="a_Node000017"><a xlink:href="yt__dlp_8c.html#ad12a3554ed1a8bd9992ac6c7ae709bdd" target="_top" xlink:title="Скачка url с запрошенным режимом">
<polygon fill="white" stroke="#666666" points="138.88,-59.75 92.88,-59.75 92.88,-39 138.88,-39 138.88,-59.75"/>
<text text-anchor="middle" x="115.88" y="-46.25" font-family="Helvetica,sans-Serif" font-size="10.00">yt_dlp</text>
</a>
</g>
</g>
<!-- Node1&#45;&gt;Node17 -->
<g id="edge16_Node000001_Node000017" class="edge">
<title>Node1&#45;&gt;Node17</title>
<g id="a_edge16_Node000001_Node000017"><a xlink:title=" ">
<path fill="none" stroke="#63b8ff" d="M25.85,-165.62C34.04,-146.78 52.82,-107.13 76.75,-79.38 80.57,-74.94 85.12,-70.71 89.73,-66.89"/>
<polygon fill="#63b8ff" stroke="#63b8ff" points="91.52,-69.93 97.29,-61.04 87.24,-64.39 91.52,-69.93"/>
</a>
</g>
</g>
<!-- Node6 -->
<g id="Node000006" class="node">
<title>Node6</title>
<g id="a_Node000006"><a xlink:href="fs_8c.html#ad434ffce2667f992ccfb4b3c200ecd0d" target="_top" xlink:title="Создаёт папку, если её ещё нет">
<polygon fill="white" stroke="#666666" points="276,-205.75 220.25,-205.75 220.25,-185 276,-185 276,-205.75"/>
<text text-anchor="middle" x="248.12" y="-192.25" font-family="Helvetica,sans-Serif" font-size="10.00">mkdir_p</text>
</a>
</g>
</g>
<!-- Node5&#45;&gt;Node6 -->
<g id="edge5_Node000005_Node000006" class="edge">
<title>Node5&#45;&gt;Node6</title>
<g id="a_edge5_Node000005_Node000006"><a xlink:title=" ">
<path fill="none" stroke="#63b8ff" d="M141.99,-180.04C160.83,-182.79 186.95,-186.6 208.45,-189.73"/>
<polygon fill="#63b8ff" stroke="#63b8ff" points="207.94,-193.2 218.34,-191.18 208.95,-186.27 207.94,-193.2"/>
</a>
</g>
</g>
<!-- Node8 -->
<g id="Node000008" class="node">
<title>Node8</title>
<g id="a_Node000008"><a xlink:href="cfg_8c.html#a802ab649b7fede02c3ecbf5723fcfb8b" target="_top" xlink:title=" ">
<polygon fill="white" stroke="#666666" points="277.12,-166.75 219.12,-166.75 219.12,-146 277.12,-146 277.12,-166.75"/>
<text text-anchor="middle" x="248.12" y="-153.25" font-family="Helvetica,sans-Serif" font-size="10.00">analyser</text>
</a>
</g>
</g>
<!-- Node7&#45;&gt;Node8 -->
<g id="edge7_Node000007_Node000008" class="edge">
<title>Node7&#45;&gt;Node8</title>
<g id="a_edge7_Node000007_Node000008"><a xlink:title=" ">
<path fill="none" stroke="#63b8ff" d="M140.76,-140.86C159.44,-143.58 185.8,-147.43 207.61,-150.61"/>
<polygon fill="#63b8ff" stroke="#63b8ff" points="206.95,-154.05 217.35,-152.03 207.96,-147.13 206.95,-154.05"/>
</a>
</g>
</g>
<!-- Node9 -->
<g id="Node000009" class="node">
<title>Node9</title>
<g id="a_Node000009"><a xlink:href="ini_8c.html#a2fab292681265b7774e2a2885abb758c" target="_top" xlink:title=" ">
<polygon fill="white" stroke="#666666" points="278.25,-127.75 218,-127.75 218,-107 278.25,-107 278.25,-127.75"/>
<text text-anchor="middle" x="248.12" y="-114.25" font-family="Helvetica,sans-Serif" font-size="10.00">ini_parse</text>
</a>
</g>
</g>
<!-- Node7&#45;&gt;Node9 -->
<g id="edge8_Node000007_Node000009" class="edge">
<title>Node7&#45;&gt;Node9</title>
<g id="a_edge8_Node000007_Node000009"><a xlink:title=" ">
<path fill="none" stroke="#63b8ff" d="M140.76,-133.71C159.19,-130.88 185.1,-126.9 206.73,-123.58"/>
<polygon fill="#63b8ff" stroke="#63b8ff" points="207.07,-127.07 216.42,-122.09 206,-120.15 207.07,-127.07"/>
</a>
</g>
</g>
<!-- Node10 -->
<g id="Node000010" class="node">
<title>Node10</title>
<g id="a_Node000010"><a xlink:href="ini_8c.html#a876bf8b62ade275320db827b929f9289" target="_top" xlink:title=" ">
<polygon fill="white" stroke="#666666" points="442,-137.75 361.5,-137.75 361.5,-117 442,-117 442,-137.75"/>
<text text-anchor="middle" x="401.75" y="-124.25" font-family="Helvetica,sans-Serif" font-size="10.00">ini_parse_file</text>
</a>
</g>
</g>
<!-- Node9&#45;&gt;Node10 -->
<g id="edge9_Node000009_Node000010" class="edge">
<title>Node9&#45;&gt;Node10</title>
<g id="a_edge9_Node000009_Node000010"><a xlink:title=" ">
<path fill="none" stroke="#63b8ff" d="M278.72,-119.33C298.94,-120.66 326.25,-122.46 349.91,-124.02"/>
<polygon fill="#63b8ff" stroke="#63b8ff" points="349.46,-127.5 359.67,-124.67 349.93,-120.52 349.46,-127.5"/>
</a>
</g>
</g>
<!-- Node11 -->
<g id="Node000011" class="node">
<title>Node11</title>
<g id="a_Node000011"><a xlink:href="ini_8c.html#ad8b766ac18397b0b262559203ea7f602" target="_top" xlink:title=" ">
<polygon fill="white" stroke="#666666" points="598.25,-137.75 498.25,-137.75 498.25,-117 598.25,-117 598.25,-137.75"/>
<text text-anchor="middle" x="548.25" y="-124.25" font-family="Helvetica,sans-Serif" font-size="10.00">ini_parse_stream</text>
</a>
</g>
</g>
<!-- Node10&#45;&gt;Node11 -->
<g id="edge10_Node000010_Node000011" class="edge">
<title>Node10&#45;&gt;Node11</title>
<g id="a_edge10_Node000010_Node000011"><a xlink:title=" ">
<path fill="none" stroke="#63b8ff" d="M442.24,-127.38C455.95,-127.38 471.67,-127.38 486.69,-127.38"/>
<polygon fill="#63b8ff" stroke="#63b8ff" points="486.49,-130.88 496.49,-127.38 486.49,-123.88 486.49,-130.88"/>
</a>
</g>
</g>
<!-- Node12 -->
<g id="Node000012" class="node">
<title>Node12</title>
<g id="a_Node000012"><a xlink:href="ini_8c.html#a94d886b4c60efdbc34fafd51d6fa6aef" target="_top" xlink:title=" ">
<polygon fill="white" stroke="#666666" points="783.75,-196.75 634.25,-196.75 634.25,-176 783.75,-176 783.75,-196.75"/>
<text text-anchor="middle" x="709" y="-183.25" font-family="Helvetica,sans-Serif" font-size="10.00">ini_find_chars_or_comment</text>
</a>
</g>
</g>
<!-- Node11&#45;&gt;Node12 -->
<g id="edge11_Node000011_Node000012" class="edge">
<title>Node11&#45;&gt;Node12</title>
<g id="a_edge11_Node000011_Node000012"><a xlink:title=" ">
<path fill="none" stroke="#63b8ff" d="M570.15,-138.14C587.11,-146.59 611.81,-158.25 634.25,-166.38 640.24,-168.55 646.58,-170.61 652.93,-172.52"/>
<polygon fill="#63b8ff" stroke="#63b8ff" points="651.53,-175.76 662.11,-175.18 653.48,-169.03 651.53,-175.76"/>
</a>
</g>
</g>
<!-- Node13 -->
<g id="Node000013" class="node">
<title>Node13</title>
<g id="a_Node000013"><a xlink:href="ini_8c.html#a3dcb94a4fb0053e4c85ee6fa56cb48b5" target="_top" xlink:title=" ">
<polygon fill="white" stroke="#666666" points="737.25,-157.75 680.75,-157.75 680.75,-137 737.25,-137 737.25,-157.75"/>
<text text-anchor="middle" x="709" y="-144.25" font-family="Helvetica,sans-Serif" font-size="10.00">ini_lskip</text>
</a>
</g>
</g>
<!-- Node11&#45;&gt;Node13 -->
<g id="edge12_Node000011_Node000013" class="edge">
<title>Node11&#45;&gt;Node13</title>
<g id="a_edge12_Node000011_Node000013"><a xlink:title=" ">
<path fill="none" stroke="#63b8ff" d="M598.61,-133.59C621.34,-136.46 647.92,-139.81 669.19,-142.49"/>
<polygon fill="#63b8ff" stroke="#63b8ff" points="668.54,-145.93 678.9,-143.71 669.42,-138.99 668.54,-145.93"/>
</a>
</g>
</g>
<!-- Node14 -->
<g id="Node000014" class="node">
<title>Node14</title>
<g id="a_Node000014"><a xlink:href="ini_8c.html#a6720662d19174eab055f3a2d3ec5825c" target="_top" xlink:title=" ">
<polygon fill="white" stroke="#666666" points="738.38,-118.75 679.62,-118.75 679.62,-98 738.38,-98 738.38,-118.75"/>
<text text-anchor="middle" x="709" y="-105.25" font-family="Helvetica,sans-Serif" font-size="10.00">ini_rstrip</text>
</a>
</g>
</g>
<!-- Node11&#45;&gt;Node14 -->
<g id="edge13_Node000011_Node000014" class="edge">
<title>Node11&#45;&gt;Node14</title>
<g id="a_edge13_Node000011_Node000014"><a xlink:title=" ">
<path fill="none" stroke="#63b8ff" d="M598.61,-121.47C621.03,-118.78 647.21,-115.65 668.33,-113.12"/>
<polygon fill="#63b8ff" stroke="#63b8ff" points="668.47,-116.63 677.98,-111.97 667.64,-109.68 668.47,-116.63"/>
</a>
</g>
</g>
<!-- Node15 -->
<g id="Node000015" class="node">
<title>Node15</title>
<g id="a_Node000015"><a xlink:href="ini_8c.html#a167d3a11167d87db33c4d770f698367f" target="_top" xlink:title=" ">
<polygon fill="white" stroke="#666666" points="746.62,-79.75 671.38,-79.75 671.38,-59 746.62,-59 746.62,-79.75"/>
<text text-anchor="middle" x="709" y="-66.25" font-family="Helvetica,sans-Serif" font-size="10.00">ini_strncpy0</text>
</a>
</g>
</g>
<!-- Node11&#45;&gt;Node15 -->
<g id="edge14_Node000011_Node000015" class="edge">
<title>Node11&#45;&gt;Node15</title>
<g id="a_edge14_Node000011_Node000015"><a xlink:title=" ">
<path fill="none" stroke="#63b8ff" d="M570.88,-116.58C587.84,-108.39 612.17,-97.25 634.25,-89.38 642.42,-86.46 651.22,-83.73 659.8,-81.28"/>
<polygon fill="#63b8ff" stroke="#63b8ff" points="660.72,-84.66 669.43,-78.63 658.86,-77.91 660.72,-84.66"/>
</a>
</g>
</g>
<!-- Node18 -->
<g id="Node000018" class="node">
<title>Node18</title>
<g id="a_Node000018"><a xlink:href="yt__dlp_8c.html#aac411bed2012a2feac84bce1d514d1c7" target="_top" xlink:title="Получение и обработка ID видео из плейлиста">
<polygon fill="white" stroke="#666666" points="305.25,-59.75 191,-59.75 191,-39 305.25,-39 305.25,-59.75"/>
<text text-anchor="middle" x="248.12" y="-46.25" font-family="Helvetica,sans-Serif" font-size="10.00">process_playlist_ids</text>
</a>
</g>
</g>
<!-- Node17&#45;&gt;Node18 -->
<g id="edge17_Node000017_Node000018" class="edge">
<title>Node17&#45;&gt;Node18</title>
<g id="a_edge17_Node000017_Node000018"><a xlink:title=" ">
<path fill="none" stroke="#63b8ff" d="M139.27,-49.38C150.57,-49.38 164.95,-49.38 179.49,-49.38"/>
<polygon fill="#63b8ff" stroke="#63b8ff" points="179.08,-52.88 189.08,-49.38 179.08,-45.88 179.08,-52.88"/>
</a>
</g>
</g>
<!-- Node22 -->
<g id="Node000022" class="node">
<title>Node22</title>
<g id="a_Node000022"><a xlink:href="yt__dlp_8c.html#ae0f89d7d0a43f9be78538dafce7b4e3a" target="_top" xlink:title="Обёртка вокруг консольной команды yt&#45;dlp.">
<polygon fill="white" stroke="#666666" points="435.25,-20.75 368.25,-20.75 368.25,0 435.25,0 435.25,-20.75"/>
<text text-anchor="middle" x="401.75" y="-7.25" font-family="Helvetica,sans-Serif" font-size="10.00">run_yt_dlp</text>
</a>
</g>
</g>
<!-- Node17&#45;&gt;Node22 -->
<g id="edge23_Node000017_Node000022" class="edge">
<title>Node17&#45;&gt;Node22</title>
<g id="a_edge23_Node000017_Node000022"><a xlink:title=" ">
<path fill="none" stroke="#63b8ff" d="M139.06,-42.72C153.69,-38.58 173.33,-33.46 191,-30.38 247.65,-20.48 313.83,-15.19 356.47,-12.59"/>
<polygon fill="#63b8ff" stroke="#63b8ff" points="356.55,-16.09 366.33,-12.01 356.14,-9.1 356.55,-16.09"/>
</a>
</g>
</g>
<!-- Node19 -->
<g id="Node000019" class="node">
<title>Node19</title>
<g id="a_Node000019"><a xlink:href="fs_8c.html#a65ecb49246f4d74a183116704b7968a0" target="_top" xlink:title="Проверка, есть ли ID видео в логе">
<polygon fill="white" stroke="#666666" points="462.25,-98.75 341.25,-98.75 341.25,-78 462.25,-78 462.25,-98.75"/>
<text text-anchor="middle" x="401.75" y="-85.25" font-family="Helvetica,sans-Serif" font-size="10.00">is_video_downloaded</text>
</a>
</g>
</g>
<!-- Node18&#45;&gt;Node19 -->
<g id="edge18_Node000018_Node000019" class="edge">
<title>Node18&#45;&gt;Node19</title>
<g id="a_edge18_Node000018_Node000019"><a xlink:title=" ">
<path fill="none" stroke="#63b8ff" d="M291.36,-60.24C308.7,-64.7 328.99,-69.92 347.34,-74.64"/>
<polygon fill="#63b8ff" stroke="#63b8ff" points="346.46,-78.02 357.01,-77.12 348.2,-71.24 346.46,-78.02"/>
</a>
</g>
</g>
<!-- Node21 -->
<g id="Node000021" class="node">
<title>Node21</title>
<g id="a_Node000021"><a xlink:href="fs_8c.html#ac7135dd56474a60b51b7121ced937914" target="_top" xlink:title="Запись ID видео в лог">
<polygon fill="white" stroke="#666666" points="440.5,-59.75 363,-59.75 363,-39 440.5,-39 440.5,-59.75"/>
<text text-anchor="middle" x="401.75" y="-46.25" font-family="Helvetica,sans-Serif" font-size="10.00">log_video_id</text>
</a>
</g>
</g>
<!-- Node18&#45;&gt;Node21 -->
<g id="edge20_Node000018_Node000021" class="edge">
<title>Node18&#45;&gt;Node21</title>
<g id="a_edge20_Node000018_Node000021"><a xlink:title=" ">
<path fill="none" stroke="#63b8ff" d="M305.58,-49.38C320.6,-49.38 336.7,-49.38 351.31,-49.38"/>
<polygon fill="#63b8ff" stroke="#63b8ff" points="351.14,-52.88 361.14,-49.38 351.14,-45.88 351.14,-52.88"/>
</a>
</g>
</g>
<!-- Node18&#45;&gt;Node22 -->
<g id="edge22_Node000018_Node000022" class="edge">
<title>Node18&#45;&gt;Node22</title>
<g id="a_edge22_Node000018_Node000022"><a xlink:title=" ">
<path fill="none" stroke="#63b8ff" d="M291.36,-38.51C311.77,-33.26 336.24,-26.97 356.86,-21.66"/>
<polygon fill="#63b8ff" stroke="#63b8ff" points="357.59,-25.09 366.4,-19.21 355.84,-18.31 357.59,-25.09"/>
</a>
</g>
</g>
<!-- Node20 -->
<g id="Node000020" class="node">
<title>Node20</title>
<g id="a_Node000020"><a xlink:href="fs_8c.html#a4a32ecc47e89ae484b2b1cbec95cfdf0" target="_top" xlink:title="Возвращает указатель на путь к DRAY_LOG.">
<polygon fill="white" stroke="#666666" points="586.25,-79.75 510.25,-79.75 510.25,-59 586.25,-59 586.25,-79.75"/>
<text text-anchor="middle" x="548.25" y="-66.25" font-family="Helvetica,sans-Serif" font-size="10.00">drayLogPath</text>
</a>
</g>
</g>
<!-- Node19&#45;&gt;Node20 -->
<g id="edge19_Node000019_Node000020" class="edge">
<title>Node19&#45;&gt;Node20</title>
<g id="a_edge19_Node000019_Node000020"><a xlink:title=" ">
<path fill="none" stroke="#63b8ff" d="M462.36,-80.54C474.49,-78.94 487.1,-77.28 498.79,-75.75"/>
<polygon fill="#63b8ff" stroke="#63b8ff" points="499.15,-79.23 508.61,-74.46 498.24,-72.29 499.15,-79.23"/>
</a>
</g>
</g>
<!-- Node21&#45;&gt;Node20 -->
<g id="edge21_Node000021_Node000020" class="edge">
<title>Node21&#45;&gt;Node20</title>
<g id="a_edge21_Node000021_Node000020"><a xlink:title=" ">
<path fill="none" stroke="#63b8ff" d="M440.72,-54.63C458.37,-57.07 479.59,-60.01 498.42,-62.62"/>
<polygon fill="#63b8ff" stroke="#63b8ff" points="497.9,-66.08 508.29,-63.98 498.86,-59.14 497.9,-66.08"/>
</a>
</g>
</g>
</g>
</svg>
