<?xml version="1.0" encoding="UTF-8" standalone="no"?>
<!DOCTYPE svg PUBLIC "-//W3C//DTD SVG 1.1//EN"
 "http://www.w3.org/Graphics/SVG/1.1/DTD/svg11.dtd">
<!-- Generated by graphviz version 12.2.1 (0)
 -->
<!-- Title: main Pages: 1 -->
<svg width="555pt" height="184pt"
 viewBox="0.00 0.00 555.25 183.75" xmlns="http://www.w3.org/2000/svg" xmlns:xlink="http://www.w3.org/1999/xlink">
<g id="graph0" class="graph" transform="scale(1 1) rotate(0) translate(4 179.75)">
<title>main</title>
<!-- Node1 -->
<g id="Node000001" class="node">
<title>Node1</title>
<g id="a_Node000001"><a xlink:title=" ">
<polygon fill="#999999" stroke="#666666" points="40.75,-116.75 0,-116.75 0,-96 40.75,-96 40.75,-116.75"/>
<text text-anchor="middle" x="20.38" y="-103.25" font-family="Helvetica,sans-Serif" font-size="10.00">main</text>
</a>
</g>
</g>
<!-- Node2 -->
<g id="Node000002" class="node">
<title>Node2</title>
<g id="a_Node000002"><a xlink:href="user_8c.html#affafc76072e99451fd0ed4d9798d82f9" target="_top" xlink:title="Вытряхивает url с юзера">
<polygon fill="white" stroke="#666666" points="125.38,-175.75 79.38,-175.75 79.38,-155 125.38,-155 125.38,-175.75"/>
<text text-anchor="middle" x="102.38" y="-162.25" font-family="Helvetica,sans-Serif" font-size="10.00">getUrl</text>
</a>
</g>
</g>
<!-- Node1&#45;&gt;Node2 -->
<g id="edge1_Node000001_Node000002" class="edge">
<title>Node1&#45;&gt;Node2</title>
<g id="a_edge1_Node000001_Node000002"><a xlink:title=" ">
<path fill="none" stroke="#63b8ff" d="M36.05,-117.2C47.66,-125.76 64.12,-137.9 77.61,-147.85"/>
<polygon fill="#63b8ff" stroke="#63b8ff" points="75.45,-150.61 85.58,-153.72 79.61,-144.97 75.45,-150.61"/>
</a>
</g>
</g>
<!-- Node3 -->
<g id="Node000003" class="node">
<title>Node3</title>
<g id="a_Node000003"><a xlink:href="fs_8c.html#a791c8dff05a93ea82bde76fc7c4a94ca" target="_top" xlink:title="Создаёт нужные папки">
<polygon fill="white" stroke="#666666" points="128,-136.75 76.75,-136.75 76.75,-116 128,-116 128,-136.75"/>
<text text-anchor="middle" x="102.38" y="-123.25" font-family="Helvetica,sans-Serif" font-size="10.00">initDirs</text>
</a>
</g>
</g>
<!-- Node1&#45;&gt;Node3 -->
<g id="edge2_Node000001_Node000003" class="edge">
<title>Node1&#45;&gt;Node3</title>
<g id="a_edge2_Node000001_Node000003"><a xlink:title=" ">
<path fill="none" stroke="#63b8ff" d="M41.15,-111.32C48.47,-113.15 57.01,-115.28 65.32,-117.36"/>
<polygon fill="#63b8ff" stroke="#63b8ff" points="64.36,-120.73 74.91,-119.76 66.06,-113.94 64.36,-120.73"/>
</a>
</g>
</g>
<!-- Node5 -->
<g id="Node000005" class="node">
<title>Node5</title>
<g id="a_Node000005"><a xlink:href="user_8c.html#a6ba0075fa588e1e916fae184c13aedb2" target="_top" xlink:title="Показывает главное меню">
<polygon fill="white" stroke="#666666" points="124.25,-97.75 80.5,-97.75 80.5,-77 124.25,-77 124.25,-97.75"/>
<text text-anchor="middle" x="102.38" y="-84.25" font-family="Helvetica,sans-Serif" font-size="10.00">menu</text>
</a>
</g>
</g>
<!-- Node1&#45;&gt;Node5 -->
<g id="edge4_Node000001_Node000005" class="edge">
<title>Node1&#45;&gt;Node5</title>
<g id="a_edge4_Node000001_Node000005"><a xlink:title=" ">
<path fill="none" stroke="#63b8ff" d="M41.15,-101.68C49.57,-99.68 59.62,-97.29 69.06,-95.05"/>
<polygon fill="#63b8ff" stroke="#63b8ff" points="69.75,-98.48 78.67,-92.77 68.14,-91.67 69.75,-98.48"/>
</a>
</g>
</g>
<!-- Node6 -->
<g id="Node000006" class="node">
<title>Node6</title>
<g id="a_Node000006"><a xlink:href="yt__dlp_8c.html#ad12a3554ed1a8bd9992ac6c7ae709bdd" target="_top" xlink:title="Скачка url с запрошенным режимом">
<polygon fill="white" stroke="#666666" points="125.38,-58.75 79.38,-58.75 79.38,-38 125.38,-38 125.38,-58.75"/>
<text text-anchor="middle" x="102.38" y="-45.25" font-family="Helvetica,sans-Serif" font-size="10.00">yt_dlp</text>
</a>
</g>
</g>
<!-- Node1&#45;&gt;Node6 -->
<g id="edge5_Node000001_Node000006" class="edge">
<title>Node1&#45;&gt;Node6</title>
<g id="a_edge5_Node000001_Node000006"><a xlink:title=" ">
<path fill="none" stroke="#63b8ff" d="M36.05,-95.74C47.59,-87.37 63.91,-75.53 77.36,-65.79"/>
<polygon fill="#63b8ff" stroke="#63b8ff" points="79.26,-68.73 85.3,-60.03 75.15,-63.07 79.26,-68.73"/>
</a>
</g>
</g>
<!-- Node4 -->
<g id="Node000004" class="node">
<title>Node4</title>
<g id="a_Node000004"><a xlink:href="fs_8c.html#ad434ffce2667f992ccfb4b3c200ecd0d" target="_top" xlink:title="Создаёт папку, если её ещё нет">
<polygon fill="white" stroke="#666666" points="249,-136.75 193.25,-136.75 193.25,-116 249,-116 249,-136.75"/>
<text text-anchor="middle" x="221.12" y="-123.25" font-family="Helvetica,sans-Serif" font-size="10.00">mkdir_p</text>
</a>
</g>
</g>
<!-- Node3&#45;&gt;Node4 -->
<g id="edge3_Node000003_Node000004" class="edge">
<title>Node3&#45;&gt;Node4</title>
<g id="a_edge3_Node000003_Node000004"><a xlink:title=" ">
<path fill="none" stroke="#63b8ff" d="M128.42,-126.38C143.96,-126.38 164.23,-126.38 181.76,-126.38"/>
<polygon fill="#63b8ff" stroke="#63b8ff" points="181.57,-129.88 191.57,-126.38 181.57,-122.88 181.57,-129.88"/>
</a>
</g>
</g>
<!-- Node7 -->
<g id="Node000007" class="node">
<title>Node7</title>
<g id="a_Node000007"><a xlink:href="yt__dlp_8c.html#a305bdfc3745e089080b81d7383a9e375" target="_top" xlink:title="Подготавливает опции yt&#45;dlp под режим">
<polygon fill="white" stroke="#666666" points="248.25,-97.75 194,-97.75 194,-77 248.25,-77 248.25,-97.75"/>
<text text-anchor="middle" x="221.12" y="-84.25" font-family="Helvetica,sans-Serif" font-size="10.00">getOpts</text>
</a>
</g>
</g>
<!-- Node6&#45;&gt;Node7 -->
<g id="edge6_Node000006_Node000007" class="edge">
<title>Node6&#45;&gt;Node7</title>
<g id="a_edge6_Node000006_Node000007"><a xlink:title=" ">
<path fill="none" stroke="#63b8ff" d="M125.61,-55.8C141.87,-61.23 164.3,-68.73 183.22,-75.05"/>
<polygon fill="#63b8ff" stroke="#63b8ff" points="181.86,-78.28 192.46,-78.13 184.08,-71.64 181.86,-78.28"/>
</a>
</g>
</g>
<!-- Node8 -->
<g id="Node000008" class="node">
<title>Node8</title>
<g id="a_Node000008"><a xlink:href="yt__dlp_8c.html#aac411bed2012a2feac84bce1d514d1c7" target="_top" xlink:title="Получение и обработка ID видео из плейлиста">
<polygon fill="white" stroke="#666666" points="278.25,-58.75 164,-58.75 164,-38 278.25,-38 278.25,-58.75"/>
<text text-anchor="middle" x="221.12" y="-45.25" font-family="Helvetica,sans-Serif" font-size="10.00">process_playlist_ids</text>
</a>
</g>
</g>
<!-- Node6&#45;&gt;Node8 -->
<g id="edge7_Node000006_Node000008" class="edge">
<title>Node6&#45;&gt;Node8</title>
<g id="a_edge7_Node000006_Node000008"><a xlink:title=" ">
<path fill="none" stroke="#63b8ff" d="M125.61,-48.38C133.41,-48.38 142.63,-48.38 152.2,-48.38"/>
<polygon fill="#63b8ff" stroke="#63b8ff" points="152.01,-51.88 162.01,-48.38 152.01,-44.88 152.01,-51.88"/>
</a>
</g>
</g>
<!-- Node12 -->
<g id="Node000012" class="node">
<title>Node12</title>
<g id="a_Node000012"><a xlink:href="yt__dlp_8c.html#ae0f89d7d0a43f9be78538dafce7b4e3a" target="_top" xlink:title="Обёртка вокруг консольной команды yt&#45;dlp.">
<polygon fill="white" stroke="#666666" points="408.25,-20.75 341.25,-20.75 341.25,0 408.25,0 408.25,-20.75"/>
<text text-anchor="middle" x="374.75" y="-7.25" font-family="Helvetica,sans-Serif" font-size="10.00">run_yt_dlp</text>
</a>
</g>
</g>
<!-- Node6&#45;&gt;Node12 -->
<g id="edge13_Node000006_Node000012" class="edge">
<title>Node6&#45;&gt;Node12</title>
<g id="a_edge13_Node000006_Node000012"><a xlink:title=" ">
<path fill="none" stroke="#63b8ff" d="M125.82,-40.08C137.12,-36.23 151.13,-31.94 164,-29.38 220.54,-18.09 287,-13.5 329.71,-11.64"/>
<polygon fill="#63b8ff" stroke="#63b8ff" points="329.74,-15.14 339.59,-11.24 329.46,-8.14 329.74,-15.14"/>
</a>
</g>
</g>
<!-- Node9 -->
<g id="Node000009" class="node">
<title>Node9</title>
<g id="a_Node000009"><a xlink:href="fs_8c.html#a65ecb49246f4d74a183116704b7968a0" target="_top" xlink:title="Проверка, есть ли ID видео в логе">
<polygon fill="white" stroke="#666666" points="435.25,-98.75 314.25,-98.75 314.25,-78 435.25,-78 435.25,-98.75"/>
<text text-anchor="middle" x="374.75" y="-85.25" font-family="Helvetica,sans-Serif" font-size="10.00">is_video_downloaded</text>
</a>
</g>
</g>
<!-- Node8&#45;&gt;Node9 -->
<g id="edge8_Node000008_Node000009" class="edge">
<title>Node8&#45;&gt;Node9</title>
<g id="a_edge8_Node000008_Node000009"><a xlink:title=" ">
<path fill="none" stroke="#63b8ff" d="M263.16,-59.2C281.19,-63.96 302.58,-69.6 321.72,-74.65"/>
<polygon fill="#63b8ff" stroke="#63b8ff" points="320.66,-77.99 331.22,-77.16 322.45,-71.22 320.66,-77.99"/>
</a>
</g>
</g>
<!-- Node11 -->
<g id="Node000011" class="node">
<title>Node11</title>
<g id="a_Node000011"><a xlink:href="fs_8c.html#ac7135dd56474a60b51b7121ced937914" target="_top" xlink:title="Запись ID видео в лог">
<polygon fill="white" stroke="#666666" points="413.5,-59.75 336,-59.75 336,-39 413.5,-39 413.5,-59.75"/>
<text text-anchor="middle" x="374.75" y="-46.25" font-family="Helvetica,sans-Serif" font-size="10.00">log_video_id</text>
</a>
</g>
</g>
<!-- Node8&#45;&gt;Node11 -->
<g id="edge10_Node000008_Node000011" class="edge">
<title>Node8&#45;&gt;Node11</title>
<g id="a_edge10_Node000008_Node000011"><a xlink:title=" ">
<path fill="none" stroke="#63b8ff" d="M278.58,-48.75C293.6,-48.85 309.7,-48.95 324.31,-49.05"/>
<polygon fill="#63b8ff" stroke="#63b8ff" points="324.12,-52.55 334.14,-49.11 324.16,-45.55 324.12,-52.55"/>
</a>
</g>
</g>
<!-- Node8&#45;&gt;Node12 -->
<g id="edge12_Node000008_Node000012" class="edge">
<title>Node8&#45;&gt;Node12</title>
<g id="a_edge12_Node000008_Node000012"><a xlink:title=" ">
<path fill="none" stroke="#63b8ff" d="M265.17,-37.59C285.56,-32.48 309.86,-26.39 330.3,-21.26"/>
<polygon fill="#63b8ff" stroke="#63b8ff" points="330.89,-24.72 339.74,-18.9 329.19,-17.93 330.89,-24.72"/>
</a>
</g>
</g>
<!-- Node10 -->
<g id="Node000010" class="node">
<title>Node10</title>
<g id="a_Node000010"><a xlink:href="fs_8c.html#a4a32ecc47e89ae484b2b1cbec95cfdf0" target="_top" xlink:title="Вычисляет путь к DRAY_LOG.">
<polygon fill="white" stroke="#666666" points="547.25,-78.75 471.25,-78.75 471.25,-58 547.25,-58 547.25,-78.75"/>
<text text-anchor="middle" x="509.25" y="-65.25" font-family="Helvetica,sans-Serif" font-size="10.00">drayLogPath</text>
</a>
</g>
</g>
<!-- Node9&#45;&gt;Node10 -->
<g id="edge9_Node000009_Node000010" class="edge">
<title>Node9&#45;&gt;Node10</title>
<g id="a_edge9_Node000009_Node000010"><a xlink:title=" ">
<path fill="none" stroke="#63b8ff" d="M435.41,-79.37C443.53,-78.14 451.79,-76.9 459.68,-75.71"/>
<polygon fill="#63b8ff" stroke="#63b8ff" points="460.07,-79.19 469.44,-74.23 459.03,-72.27 460.07,-79.19"/>
</a>
</g>
</g>
<!-- Node11&#45;&gt;Node10 -->
<g id="edge11_Node000011_Node000010" class="edge">
<title>Node11&#45;&gt;Node10</title>
<g id="a_edge11_Node000011_Node000010"><a xlink:title=" ">
<path fill="none" stroke="#63b8ff" d="M413.72,-54.82C428.1,-56.88 444.67,-59.26 459.88,-61.44"/>
<polygon fill="#63b8ff" stroke="#63b8ff" points="459.3,-64.89 469.69,-62.85 460.29,-57.96 459.3,-64.89"/>
</a>
</g>
</g>
</g>
</svg>
