<?xml version="1.0" encoding="UTF-8" standalone="no"?>
<!DOCTYPE svg PUBLIC "-//W3C//DTD SVG 1.1//EN"
 "http://www.w3.org/Graphics/SVG/1.1/DTD/svg11.dtd">
<!-- Generated by graphviz version 12.2.1 (0)
 -->
<!-- Title: src/main.c Pages: 1 -->
<svg width="420pt" height="199pt"
 viewBox="0.00 0.00 419.50 199.00" xmlns="http://www.w3.org/2000/svg" xmlns:xlink="http://www.w3.org/1999/xlink">
<g id="graph0" class="graph" transform="scale(1 1) rotate(0) translate(4 195)">
<title>src/main.c</title>
<!-- Node1 -->
<g id="Node000001" class="node">
<title>Node1</title>
<g id="a_Node000001"><a xlink:title="Прога для комфортного кача с YouTube.">
<polygon fill="#999999" stroke="#666666" points="200.25,-191 134,-191 134,-170.25 200.25,-170.25 200.25,-191"/>
<text text-anchor="middle" x="167.12" y="-177.5" font-family="Helvetica,sans-Serif" font-size="10.00">src/main.c</text>
</a>
</g>
</g>
<!-- Node2 -->
<g id="Node000002" class="node">
<title>Node2</title>
<g id="a_Node000002"><a xlink:href="fs_8h.html" target="_top" xlink:title="Модуль для работы с файловой системой">
<polygon fill="white" stroke="#666666" points="218.12,-77.5 184.12,-77.5 184.12,-56.75 218.12,-56.75 218.12,-77.5"/>
<text text-anchor="middle" x="201.12" y="-64" font-family="Helvetica,sans-Serif" font-size="10.00">fs.h</text>
</a>
</g>
</g>
<!-- Node1&#45;&gt;Node2 -->
<g id="edge1_Node000001_Node000002" class="edge">
<title>Node1&#45;&gt;Node2</title>
<g id="a_edge1_Node000001_Node000002"><a xlink:title=" ">
<path fill="none" stroke="#63b8ff" d="M170.09,-169.76C173.98,-156.83 181.03,-133.46 187.12,-113.5 189.59,-105.43 192.32,-96.56 194.72,-88.81"/>
<polygon fill="#63b8ff" stroke="#63b8ff" points="198.05,-89.89 197.66,-79.3 191.36,-87.82 198.05,-89.89"/>
</a>
</g>
</g>
<!-- Node9 -->
<g id="Node000009" class="node">
<title>Node9</title>
<g id="a_Node000009"><a xlink:href="user_8h.html" target="_top" xlink:title="Модуль для работы с юзером">
<polygon fill="white" stroke="#666666" points="89.75,-77.5 44.5,-77.5 44.5,-56.75 89.75,-56.75 89.75,-77.5"/>
<text text-anchor="middle" x="67.12" y="-64" font-family="Helvetica,sans-Serif" font-size="10.00">user.h</text>
</a>
</g>
</g>
<!-- Node1&#45;&gt;Node9 -->
<g id="edge8_Node000001_Node000009" class="edge">
<title>Node1&#45;&gt;Node9</title>
<g id="a_edge8_Node000001_Node000009"><a xlink:title=" ">
<path fill="none" stroke="#63b8ff" d="M158.6,-170.12C142,-151.61 105.11,-110.47 83.59,-86.48"/>
<polygon fill="#63b8ff" stroke="#63b8ff" points="86.21,-84.16 76.92,-79.05 81,-88.83 86.21,-84.16"/>
</a>
</g>
</g>
<!-- Node10 -->
<g id="Node000010" class="node">
<title>Node10</title>
<g id="a_Node000010"><a xlink:href="yt__dlp_8h.html" target="_top" xlink:title="Модуль для работы с yt&#45;dlp.">
<polygon fill="white" stroke="#666666" points="250.62,-134.25 195.62,-134.25 195.62,-113.5 250.62,-113.5 250.62,-134.25"/>
<text text-anchor="middle" x="223.12" y="-120.75" font-family="Helvetica,sans-Serif" font-size="10.00">yt_dlp.h</text>
</a>
</g>
</g>
<!-- Node1&#45;&gt;Node10 -->
<g id="edge11_Node000001_Node000010" class="edge">
<title>Node1&#45;&gt;Node10</title>
<g id="a_edge11_Node000001_Node000010"><a xlink:title=" ">
<path fill="none" stroke="#63b8ff" d="M177.14,-169.84C184.86,-162.28 195.75,-151.64 205,-142.6"/>
<polygon fill="#63b8ff" stroke="#63b8ff" points="207.41,-145.13 212.12,-135.64 202.52,-140.12 207.41,-145.13"/>
</a>
</g>
</g>
<!-- Node3 -->
<g id="Node000003" class="node">
<title>Node3</title>
<g id="a_Node000003"><a xlink:title=" ">
<polygon fill="#e0e0e0" stroke="#999999" points="271.38,-20.75 220.88,-20.75 220.88,0 271.38,0 271.38,-20.75"/>
<text text-anchor="middle" x="246.12" y="-7.25" font-family="Helvetica,sans-Serif" font-size="10.00">errno.h</text>
</a>
</g>
</g>
<!-- Node2&#45;&gt;Node3 -->
<g id="edge2_Node000002_Node000003" class="edge">
<title>Node2&#45;&gt;Node3</title>
<g id="a_edge2_Node000002_Node000003"><a xlink:title=" ">
<path fill="none" stroke="#63b8ff" d="M209.17,-56.34C215.19,-49.02 223.59,-38.79 230.87,-29.94"/>
<polygon fill="#63b8ff" stroke="#63b8ff" points="233.54,-32.2 237.19,-22.25 228.13,-27.75 233.54,-32.2"/>
</a>
</g>
</g>
<!-- Node4 -->
<g id="Node000004" class="node">
<title>Node4</title>
<g id="a_Node000004"><a xlink:title=" ">
<polygon fill="#e0e0e0" stroke="#999999" points="121.62,-20.75 72.62,-20.75 72.62,0 121.62,0 121.62,-20.75"/>
<text text-anchor="middle" x="97.12" y="-7.25" font-family="Helvetica,sans-Serif" font-size="10.00">stdio.h</text>
</a>
</g>
</g>
<!-- Node2&#45;&gt;Node4 -->
<g id="edge3_Node000002_Node000004" class="edge">
<title>Node2&#45;&gt;Node4</title>
<g id="a_edge3_Node000002_Node000004"><a xlink:title=" ">
<path fill="none" stroke="#63b8ff" d="M183.95,-57.08C168.16,-48.77 144.43,-36.28 125.76,-26.45"/>
<polygon fill="#63b8ff" stroke="#63b8ff" points="127.55,-23.44 117.07,-21.87 124.29,-29.63 127.55,-23.44"/>
</a>
</g>
</g>
<!-- Node5 -->
<g id="Node000005" class="node">
<title>Node5</title>
<g id="a_Node000005"><a xlink:title=" ">
<polygon fill="#e0e0e0" stroke="#999999" points="341.12,-20.75 289.12,-20.75 289.12,0 341.12,0 341.12,-20.75"/>
<text text-anchor="middle" x="315.12" y="-7.25" font-family="Helvetica,sans-Serif" font-size="10.00">stdlib.h</text>
</a>
</g>
</g>
<!-- Node2&#45;&gt;Node5 -->
<g id="edge4_Node000002_Node000005" class="edge">
<title>Node2&#45;&gt;Node5</title>
<g id="a_edge4_Node000002_Node000005"><a xlink:title=" ">
<path fill="none" stroke="#63b8ff" d="M218.44,-57.81C236.02,-49.36 263.61,-36.12 284.82,-25.93"/>
<polygon fill="#63b8ff" stroke="#63b8ff" points="286.09,-29.2 293.59,-21.72 283.06,-22.89 286.09,-29.2"/>
</a>
</g>
</g>
<!-- Node6 -->
<g id="Node000006" class="node">
<title>Node6</title>
<g id="a_Node000006"><a xlink:title=" ">
<polygon fill="#e0e0e0" stroke="#999999" points="411.5,-20.75 358.75,-20.75 358.75,0 411.5,0 411.5,-20.75"/>
<text text-anchor="middle" x="385.12" y="-7.25" font-family="Helvetica,sans-Serif" font-size="10.00">string.h</text>
</a>
</g>
</g>
<!-- Node2&#45;&gt;Node6 -->
<g id="edge5_Node000002_Node000006" class="edge">
<title>Node2&#45;&gt;Node6</title>
<g id="a_edge5_Node000002_Node000006"><a xlink:title=" ">
<path fill="none" stroke="#63b8ff" d="M218.44,-60.97C247.75,-52.25 307.81,-34.38 347.26,-22.64"/>
<polygon fill="#63b8ff" stroke="#63b8ff" points="348.25,-26 356.84,-19.79 346.26,-19.29 348.25,-26"/>
</a>
</g>
</g>
<!-- Node7 -->
<g id="Node000007" class="node">
<title>Node7</title>
<g id="a_Node000007"><a xlink:title=" ">
<polygon fill="#e0e0e0" stroke="#999999" points="202.75,-20.75 139.5,-20.75 139.5,0 202.75,0 202.75,-20.75"/>
<text text-anchor="middle" x="171.12" y="-7.25" font-family="Helvetica,sans-Serif" font-size="10.00">sys/stat.h</text>
</a>
</g>
</g>
<!-- Node2&#45;&gt;Node7 -->
<g id="edge6_Node000002_Node000007" class="edge">
<title>Node2&#45;&gt;Node7</title>
<g id="a_edge6_Node000002_Node000007"><a xlink:title=" ">
<path fill="none" stroke="#63b8ff" d="M195.76,-56.34C191.92,-49.33 186.62,-39.66 181.92,-31.08"/>
<polygon fill="#63b8ff" stroke="#63b8ff" points="185.04,-29.49 177.17,-22.41 178.91,-32.86 185.04,-29.49"/>
</a>
</g>
</g>
<!-- Node8 -->
<g id="Node000008" class="node">
<title>Node8</title>
<g id="a_Node000008"><a xlink:href="config_8h.html" target="_top" xlink:title="Конфигурация">
<polygon fill="white" stroke="#666666" points="54.25,-20.75 0,-20.75 0,0 54.25,0 54.25,-20.75"/>
<text text-anchor="middle" x="27.12" y="-7.25" font-family="Helvetica,sans-Serif" font-size="10.00">config.h</text>
</a>
</g>
</g>
<!-- Node2&#45;&gt;Node8 -->
<g id="edge7_Node000002_Node000008" class="edge">
<title>Node2&#45;&gt;Node8</title>
<g id="a_edge7_Node000002_Node000008"><a xlink:title=" ">
<path fill="none" stroke="#63b8ff" d="M183.81,-60.68C156.38,-52.05 102.31,-35.03 65.44,-23.43"/>
<polygon fill="#63b8ff" stroke="#63b8ff" points="66.63,-20.14 56.04,-20.47 64.53,-26.81 66.63,-20.14"/>
</a>
</g>
</g>
<!-- Node9&#45;&gt;Node4 -->
<g id="edge9_Node000009_Node000004" class="edge">
<title>Node9&#45;&gt;Node4</title>
<g id="a_edge9_Node000009_Node000004"><a xlink:title=" ">
<path fill="none" stroke="#63b8ff" d="M72.49,-56.34C76.33,-49.33 81.63,-39.66 86.33,-31.08"/>
<polygon fill="#63b8ff" stroke="#63b8ff" points="89.34,-32.86 91.08,-22.41 83.21,-29.49 89.34,-32.86"/>
</a>
</g>
</g>
<!-- Node9&#45;&gt;Node8 -->
<g id="edge10_Node000009_Node000008" class="edge">
<title>Node9&#45;&gt;Node8</title>
<g id="a_edge10_Node000009_Node000008"><a xlink:title=" ">
<path fill="none" stroke="#63b8ff" d="M59.97,-56.34C54.68,-49.1 47.31,-39.01 40.9,-30.22"/>
<polygon fill="#63b8ff" stroke="#63b8ff" points="43.83,-28.31 35.11,-22.3 38.18,-32.44 43.83,-28.31"/>
</a>
</g>
</g>
<!-- Node10&#45;&gt;Node2 -->
<g id="edge16_Node000010_Node000002" class="edge">
<title>Node10&#45;&gt;Node2</title>
<g id="a_edge16_Node000010_Node000002"><a xlink:title=" ">
<path fill="none" stroke="#63b8ff" d="M219.19,-113.09C216.44,-106.24 212.66,-96.84 209.27,-88.4"/>
<polygon fill="#63b8ff" stroke="#63b8ff" points="212.56,-87.21 205.59,-79.23 206.07,-89.82 212.56,-87.21"/>
</a>
</g>
</g>
<!-- Node10&#45;&gt;Node4 -->
<g id="edge12_Node000010_Node000004" class="edge">
<title>Node10&#45;&gt;Node4</title>
<g id="a_edge12_Node000010_Node000004"><a xlink:title=" ">
<path fill="none" stroke="#63b8ff" d="M212.38,-113.37C191.19,-94.62 143.74,-52.63 116.8,-28.78"/>
<polygon fill="#63b8ff" stroke="#63b8ff" points="119.14,-26.18 109.33,-22.18 114.5,-31.43 119.14,-26.18"/>
</a>
</g>
</g>
<!-- Node10&#45;&gt;Node5 -->
<g id="edge13_Node000010_Node000005" class="edge">
<title>Node10&#45;&gt;Node5</title>
<g id="a_edge13_Node000010_Node000005"><a xlink:title=" ">
<path fill="none" stroke="#63b8ff" d="M229.35,-113.09C237.93,-99.86 254.16,-75.72 270.12,-56.75 278.29,-47.05 288.13,-36.96 296.53,-28.77"/>
<polygon fill="#63b8ff" stroke="#63b8ff" points="298.73,-31.51 303.53,-22.07 293.89,-26.46 298.73,-31.51"/>
</a>
</g>
</g>
<!-- Node10&#45;&gt;Node6 -->
<g id="edge14_Node000010_Node000006" class="edge">
<title>Node10&#45;&gt;Node6</title>
<g id="a_edge14_Node000010_Node000006"><a xlink:title=" ">
<path fill="none" stroke="#63b8ff" d="M233.92,-113.04C249.01,-99.52 277.56,-74.83 304.12,-56.75 320.47,-45.62 339.76,-34.74 355.4,-26.42"/>
<polygon fill="#63b8ff" stroke="#63b8ff" points="357,-29.54 364.24,-21.8 353.75,-23.34 357,-29.54"/>
</a>
</g>
</g>
<!-- Node10&#45;&gt;Node8 -->
<g id="edge17_Node000010_Node000008" class="edge">
<title>Node10&#45;&gt;Node8</title>
<g id="a_edge17_Node000010_Node000008"><a xlink:title=" ">
<path fill="none" stroke="#63b8ff" d="M206.07,-113.18C171.97,-93.78 95.14,-50.06 54.12,-26.73"/>
<polygon fill="#63b8ff" stroke="#63b8ff" points="56.01,-23.78 45.59,-21.88 52.55,-29.87 56.01,-23.78"/>
</a>
</g>
</g>
<!-- Node11 -->
<g id="Node000011" class="node">
<title>Node11</title>
<g id="a_Node000011"><a xlink:title=" ">
<polygon fill="#e0e0e0" stroke="#999999" points="367.62,-77.5 312.62,-77.5 312.62,-56.75 367.62,-56.75 367.62,-77.5"/>
<text text-anchor="middle" x="340.12" y="-64" font-family="Helvetica,sans-Serif" font-size="10.00">unistd.h</text>
</a>
</g>
</g>
<!-- Node10&#45;&gt;Node11 -->
<g id="edge15_Node000010_Node000011" class="edge">
<title>Node10&#45;&gt;Node11</title>
<g id="a_edge15_Node000010_Node000011"><a xlink:title=" ">
<path fill="none" stroke="#63b8ff" d="M244.04,-113.09C262.09,-104.64 288.43,-92.32 308.96,-82.71"/>
<polygon fill="#63b8ff" stroke="#63b8ff" points="310.44,-85.88 318.02,-78.47 307.48,-79.54 310.44,-85.88"/>
</a>
</g>
</g>
</g>
</svg>
