<?xml version="1.0" encoding="UTF-8" standalone="no"?>
<!DOCTYPE svg PUBLIC "-//W3C//DTD SVG 1.1//EN"
 "http://www.w3.org/Graphics/SVG/1.1/DTD/svg11.dtd">
<!-- Generated by graphviz version 12.2.1 (0)
 -->
<!-- Title: src/main.c Pages: 1 -->
<svg width="573pt" height="199pt"
 viewBox="0.00 0.00 573.38 199.00" xmlns="http://www.w3.org/2000/svg" xmlns:xlink="http://www.w3.org/1999/xlink">
<g id="graph0" class="graph" transform="scale(1 1) rotate(0) translate(4 195)">
<title>src/main.c</title>
<!-- Node1 -->
<g id="Node000001" class="node">
<title>Node1</title>
<g id="a_Node000001"><a xlink:title="Прога для комфортного кача с YouTube.">
<polygon fill="#999999" stroke="#666666" points="304.38,-191 238.12,-191 238.12,-170.25 304.38,-170.25 304.38,-191"/>
<text text-anchor="middle" x="271.25" y="-177.5" font-family="Helvetica,sans-Serif" font-size="10.00">src/main.c</text>
</a>
</g>
</g>
<!-- Node2 -->
<g id="Node000002" class="node">
<title>Node2</title>
<g id="a_Node000002"><a xlink:title=" ">
<polygon fill="#e0e0e0" stroke="#999999" points="202.75,-20.75 153.75,-20.75 153.75,0 202.75,0 202.75,-20.75"/>
<text text-anchor="middle" x="178.25" y="-7.25" font-family="Helvetica,sans-Serif" font-size="10.00">stdio.h</text>
</a>
</g>
</g>
<!-- Node1&#45;&gt;Node2 -->
<g id="edge1_Node000001_Node000002" class="edge">
<title>Node1&#45;&gt;Node2</title>
<g id="a_edge1_Node000001_Node000002"><a xlink:title=" ">
<path fill="none" stroke="#63b8ff" d="M265.98,-170.1C251.22,-143.39 209.2,-67.37 189.15,-31.1"/>
<polygon fill="#63b8ff" stroke="#63b8ff" points="192.32,-29.6 184.42,-22.54 186.2,-32.99 192.32,-29.6"/>
</a>
</g>
</g>
<!-- Node3 -->
<g id="Node000003" class="node">
<title>Node3</title>
<g id="a_Node000003"><a xlink:title=" ">
<polygon fill="#e0e0e0" stroke="#999999" points="273.62,-20.75 220.88,-20.75 220.88,0 273.62,0 273.62,-20.75"/>
<text text-anchor="middle" x="247.25" y="-7.25" font-family="Helvetica,sans-Serif" font-size="10.00">string.h</text>
</a>
</g>
</g>
<!-- Node1&#45;&gt;Node3 -->
<g id="edge2_Node000001_Node000003" class="edge">
<title>Node1&#45;&gt;Node3</title>
<g id="a_edge2_Node000001_Node000003"><a xlink:title=" ">
<path fill="none" stroke="#63b8ff" d="M269.89,-170.1C266.13,-143.73 255.52,-69.33 250.27,-32.53"/>
<polygon fill="#63b8ff" stroke="#63b8ff" points="253.74,-32.12 248.87,-22.72 246.82,-33.11 253.74,-32.12"/>
</a>
</g>
</g>
<!-- Node4 -->
<g id="Node000004" class="node">
<title>Node4</title>
<g id="a_Node000004"><a xlink:href="config_8h.html" target="_top" xlink:title="Конфигурация">
<polygon fill="white" stroke="#666666" points="565.38,-20.75 511.12,-20.75 511.12,0 565.38,0 565.38,-20.75"/>
<text text-anchor="middle" x="538.25" y="-7.25" font-family="Helvetica,sans-Serif" font-size="10.00">config.h</text>
</a>
</g>
</g>
<!-- Node1&#45;&gt;Node4 -->
<g id="edge3_Node000001_Node000004" class="edge">
<title>Node1&#45;&gt;Node4</title>
<g id="a_edge3_Node000001_Node000004"><a xlink:title=" ">
<path fill="none" stroke="#63b8ff" d="M304.68,-171.47C351.63,-158.55 437.45,-129.36 492.25,-77.5 506.82,-63.71 519.5,-44.62 527.84,-30.49"/>
<polygon fill="#63b8ff" stroke="#63b8ff" points="530.69,-32.56 532.58,-22.14 524.6,-29.11 530.69,-32.56"/>
</a>
</g>
</g>
<!-- Node5 -->
<g id="Node000005" class="node">
<title>Node5</title>
<g id="a_Node000005"><a xlink:href="fs_8h.html" target="_top" xlink:title="Модуль для работы с файловой системой">
<polygon fill="white" stroke="#666666" points="455.25,-77.5 421.25,-77.5 421.25,-56.75 455.25,-56.75 455.25,-77.5"/>
<text text-anchor="middle" x="438.25" y="-64" font-family="Helvetica,sans-Serif" font-size="10.00">fs.h</text>
</a>
</g>
</g>
<!-- Node1&#45;&gt;Node5 -->
<g id="edge4_Node000001_Node000005" class="edge">
<title>Node1&#45;&gt;Node5</title>
<g id="a_edge4_Node000001_Node000005"><a xlink:title=" ">
<path fill="none" stroke="#63b8ff" d="M301.24,-169.91C322.69,-162.16 351.64,-150 374.25,-134.25 393.61,-120.77 411.93,-100.84 423.97,-86.39"/>
<polygon fill="#63b8ff" stroke="#63b8ff" points="426.39,-88.95 429.96,-78.98 420.95,-84.55 426.39,-88.95"/>
</a>
</g>
</g>
<!-- Node9 -->
<g id="Node000009" class="node">
<title>Node9</title>
<g id="a_Node000009"><a xlink:href="user_8h.html" target="_top" xlink:title="Модуль для работы с юзером">
<polygon fill="white" stroke="#666666" points="138.88,-77.5 93.62,-77.5 93.62,-56.75 138.88,-56.75 138.88,-77.5"/>
<text text-anchor="middle" x="116.25" y="-64" font-family="Helvetica,sans-Serif" font-size="10.00">user.h</text>
</a>
</g>
</g>
<!-- Node1&#45;&gt;Node9 -->
<g id="edge11_Node000001_Node000009" class="edge">
<title>Node1&#45;&gt;Node9</title>
<g id="a_edge11_Node000001_Node000009"><a xlink:title=" ">
<path fill="none" stroke="#63b8ff" d="M237.77,-173.25C212.21,-166.96 177.39,-155.16 153.25,-134.25 138.97,-121.88 129.07,-102.58 123.13,-88.02"/>
<polygon fill="#63b8ff" stroke="#63b8ff" points="126.53,-87.12 119.73,-78.99 119.98,-89.59 126.53,-87.12"/>
</a>
</g>
</g>
<!-- Node12 -->
<g id="Node000012" class="node">
<title>Node12</title>
<g id="a_Node000012"><a xlink:href="yt__dlp_8h.html" target="_top" xlink:title="Модуль для работы с yt&#45;dlp.">
<polygon fill="white" stroke="#666666" points="364.75,-134.25 309.75,-134.25 309.75,-113.5 364.75,-113.5 364.75,-134.25"/>
<text text-anchor="middle" x="337.25" y="-120.75" font-family="Helvetica,sans-Serif" font-size="10.00">yt_dlp.h</text>
</a>
</g>
</g>
<!-- Node1&#45;&gt;Node12 -->
<g id="edge17_Node000001_Node000012" class="edge">
<title>Node1&#45;&gt;Node12</title>
<g id="a_edge17_Node000001_Node000012"><a xlink:title=" ">
<path fill="none" stroke="#63b8ff" d="M283.05,-169.84C292.43,-162.05 305.79,-150.97 316.89,-141.76"/>
<polygon fill="#63b8ff" stroke="#63b8ff" points="318.93,-144.62 324.39,-135.54 314.46,-139.24 318.93,-144.62"/>
</a>
</g>
</g>
<!-- Node5&#45;&gt;Node2 -->
<g id="edge6_Node000005_Node000002" class="edge">
<title>Node5&#45;&gt;Node2</title>
<g id="a_edge6_Node000005_Node000002"><a xlink:title=" ">
<path fill="none" stroke="#63b8ff" d="M420.86,-63.07C384.48,-56.58 297.45,-40.59 214.26,-21.09"/>
<polygon fill="#63b8ff" stroke="#63b8ff" points="215.09,-17.69 204.55,-18.79 213.48,-24.5 215.09,-17.69"/>
</a>
</g>
</g>
<!-- Node5&#45;&gt;Node3 -->
<g id="edge8_Node000005_Node000003" class="edge">
<title>Node5&#45;&gt;Node3</title>
<g id="a_edge8_Node000005_Node000003"><a xlink:title=" ">
<path fill="none" stroke="#63b8ff" d="M420.96,-61.17C390.41,-52.41 326.21,-34.01 284.99,-22.19"/>
<polygon fill="#63b8ff" stroke="#63b8ff" points="286.06,-18.86 275.48,-19.47 284.13,-25.59 286.06,-18.86"/>
</a>
</g>
</g>
<!-- Node5&#45;&gt;Node4 -->
<g id="edge10_Node000005_Node000004" class="edge">
<title>Node5&#45;&gt;Node4</title>
<g id="a_edge10_Node000005_Node000004"><a xlink:title=" ">
<path fill="none" stroke="#63b8ff" d="M455.67,-56.59C470.82,-48.29 493.05,-36.12 510.63,-26.49"/>
<polygon fill="#63b8ff" stroke="#63b8ff" points="511.94,-29.77 519.03,-21.9 508.58,-23.63 511.94,-29.77"/>
</a>
</g>
</g>
<!-- Node6 -->
<g id="Node000006" class="node">
<title>Node6</title>
<g id="a_Node000006"><a xlink:title=" ">
<polygon fill="#e0e0e0" stroke="#999999" points="411.5,-20.75 361,-20.75 361,0 411.5,0 411.5,-20.75"/>
<text text-anchor="middle" x="386.25" y="-7.25" font-family="Helvetica,sans-Serif" font-size="10.00">errno.h</text>
</a>
</g>
</g>
<!-- Node5&#45;&gt;Node6 -->
<g id="edge5_Node000005_Node000006" class="edge">
<title>Node5&#45;&gt;Node6</title>
<g id="a_edge5_Node000005_Node000006"><a xlink:title=" ">
<path fill="none" stroke="#63b8ff" d="M428.95,-56.34C421.85,-48.86 411.88,-38.36 403.35,-29.38"/>
<polygon fill="#63b8ff" stroke="#63b8ff" points="405.93,-27.02 396.51,-22.18 400.86,-31.84 405.93,-27.02"/>
</a>
</g>
</g>
<!-- Node7 -->
<g id="Node000007" class="node">
<title>Node7</title>
<g id="a_Node000007"><a xlink:title=" ">
<polygon fill="#e0e0e0" stroke="#999999" points="343.25,-20.75 291.25,-20.75 291.25,0 343.25,0 343.25,-20.75"/>
<text text-anchor="middle" x="317.25" y="-7.25" font-family="Helvetica,sans-Serif" font-size="10.00">stdlib.h</text>
</a>
</g>
</g>
<!-- Node5&#45;&gt;Node7 -->
<g id="edge7_Node000005_Node000007" class="edge">
<title>Node5&#45;&gt;Node7</title>
<g id="a_edge7_Node000005_Node000007"><a xlink:title=" ">
<path fill="none" stroke="#63b8ff" d="M420.91,-58.28C402.3,-49.86 372.3,-36.29 349.36,-25.9"/>
<polygon fill="#63b8ff" stroke="#63b8ff" points="350.99,-22.8 340.44,-21.87 348.11,-29.18 350.99,-22.8"/>
</a>
</g>
</g>
<!-- Node8 -->
<g id="Node000008" class="node">
<title>Node8</title>
<g id="a_Node000008"><a xlink:title=" ">
<polygon fill="#e0e0e0" stroke="#999999" points="492.88,-20.75 429.62,-20.75 429.62,0 492.88,0 492.88,-20.75"/>
<text text-anchor="middle" x="461.25" y="-7.25" font-family="Helvetica,sans-Serif" font-size="10.00">sys/stat.h</text>
</a>
</g>
</g>
<!-- Node5&#45;&gt;Node8 -->
<g id="edge9_Node000005_Node000008" class="edge">
<title>Node5&#45;&gt;Node8</title>
<g id="a_edge9_Node000005_Node000008"><a xlink:title=" ">
<path fill="none" stroke="#63b8ff" d="M442.36,-56.34C445.24,-49.49 449.19,-40.09 452.73,-31.65"/>
<polygon fill="#63b8ff" stroke="#63b8ff" points="455.94,-33.05 456.59,-22.47 449.49,-30.34 455.94,-33.05"/>
</a>
</g>
</g>
<!-- Node9&#45;&gt;Node2 -->
<g id="edge14_Node000009_Node000002" class="edge">
<title>Node9&#45;&gt;Node2</title>
<g id="a_edge14_Node000009_Node000002"><a xlink:title=" ">
<path fill="none" stroke="#63b8ff" d="M127.33,-56.34C136.06,-48.63 148.44,-37.7 158.81,-28.54"/>
<polygon fill="#63b8ff" stroke="#63b8ff" points="160.95,-31.32 166.13,-22.08 156.31,-26.08 160.95,-31.32"/>
</a>
</g>
</g>
<!-- Node9&#45;&gt;Node3 -->
<g id="edge15_Node000009_Node000003" class="edge">
<title>Node9&#45;&gt;Node3</title>
<g id="a_edge15_Node000009_Node000003"><a xlink:title=" ">
<path fill="none" stroke="#63b8ff" d="M139.37,-56.46C159.91,-47.88 190.21,-35.22 213.47,-25.49"/>
<polygon fill="#63b8ff" stroke="#63b8ff" points="214.65,-28.79 222.53,-21.71 211.95,-22.34 214.65,-28.79"/>
</a>
</g>
</g>
<!-- Node9&#45;&gt;Node4 -->
<g id="edge16_Node000009_Node000004" class="edge">
<title>Node9&#45;&gt;Node4</title>
<g id="a_edge16_Node000009_Node000004"><a xlink:title=" ">
<path fill="none" stroke="#63b8ff" d="M139.04,-64.55C197.42,-60.28 357.25,-47.13 499.72,-21"/>
<polygon fill="#63b8ff" stroke="#63b8ff" points="500.14,-24.48 509.33,-19.21 498.86,-17.6 500.14,-24.48"/>
</a>
</g>
</g>
<!-- Node10 -->
<g id="Node000010" class="node">
<title>Node10</title>
<g id="a_Node000010"><a xlink:title=" ">
<polygon fill="#e0e0e0" stroke="#999999" points="56.5,-20.75 0,-20.75 0,0 56.5,0 56.5,-20.75"/>
<text text-anchor="middle" x="28.25" y="-7.25" font-family="Helvetica,sans-Serif" font-size="10.00">getopt.h</text>
</a>
</g>
</g>
<!-- Node9&#45;&gt;Node10 -->
<g id="edge12_Node000009_Node000010" class="edge">
<title>Node9&#45;&gt;Node10</title>
<g id="a_edge12_Node000009_Node000010"><a xlink:title=" ">
<path fill="none" stroke="#63b8ff" d="M100.52,-56.34C87.38,-48.16 68.41,-36.36 53.2,-26.9"/>
<polygon fill="#63b8ff" stroke="#63b8ff" points="55.47,-24.19 45.13,-21.88 51.77,-30.13 55.47,-24.19"/>
</a>
</g>
</g>
<!-- Node11 -->
<g id="Node000011" class="node">
<title>Node11</title>
<g id="a_Node000011"><a xlink:title=" ">
<polygon fill="#e0e0e0" stroke="#999999" points="135.75,-20.75 74.75,-20.75 74.75,0 135.75,0 135.75,-20.75"/>
<text text-anchor="middle" x="105.25" y="-7.25" font-family="Helvetica,sans-Serif" font-size="10.00">stdbool.h</text>
</a>
</g>
</g>
<!-- Node9&#45;&gt;Node11 -->
<g id="edge13_Node000009_Node000011" class="edge">
<title>Node9&#45;&gt;Node11</title>
<g id="a_edge13_Node000009_Node000011"><a xlink:title=" ">
<path fill="none" stroke="#63b8ff" d="M114.28,-56.34C112.94,-49.64 111.1,-40.51 109.44,-32.23"/>
<polygon fill="#63b8ff" stroke="#63b8ff" points="112.9,-31.68 107.5,-22.56 106.04,-33.06 112.9,-31.68"/>
</a>
</g>
</g>
<!-- Node12&#45;&gt;Node2 -->
<g id="edge18_Node000012_Node000002" class="edge">
<title>Node12&#45;&gt;Node2</title>
<g id="a_edge18_Node000012_Node000002"><a xlink:title=" ">
<path fill="none" stroke="#63b8ff" d="M323.42,-113.18C296.05,-93.98 234.74,-50.99 201.22,-27.48"/>
<polygon fill="#63b8ff" stroke="#63b8ff" points="203.6,-24.88 193.4,-22 199.58,-30.61 203.6,-24.88"/>
</a>
</g>
</g>
<!-- Node12&#45;&gt;Node3 -->
<g id="edge20_Node000012_Node000003" class="edge">
<title>Node12&#45;&gt;Node3</title>
<g id="a_edge20_Node000012_Node000003"><a xlink:title=" ">
<path fill="none" stroke="#63b8ff" d="M329.58,-113.37C314.71,-94.95 281.73,-54.09 262.32,-30.05"/>
<polygon fill="#63b8ff" stroke="#63b8ff" points="265.12,-27.94 256.11,-22.35 259.67,-32.33 265.12,-27.94"/>
</a>
</g>
</g>
<!-- Node12&#45;&gt;Node4 -->
<g id="edge23_Node000012_Node000004" class="edge">
<title>Node12&#45;&gt;Node4</title>
<g id="a_edge23_Node000012_Node000004"><a xlink:title=" ">
<path fill="none" stroke="#63b8ff" d="M365.11,-116.26C391.78,-109.17 432.55,-96.34 464.25,-77.5 486.33,-64.38 507.78,-44.12 521.86,-29.48"/>
<polygon fill="#63b8ff" stroke="#63b8ff" points="524.29,-32.01 528.57,-22.31 519.18,-27.22 524.29,-32.01"/>
</a>
</g>
</g>
<!-- Node12&#45;&gt;Node5 -->
<g id="edge22_Node000012_Node000005" class="edge">
<title>Node12&#45;&gt;Node5</title>
<g id="a_edge22_Node000012_Node000005"><a xlink:title=" ">
<path fill="none" stroke="#63b8ff" d="M355.31,-113.09C370.86,-104.65 393.55,-92.36 411.26,-82.76"/>
<polygon fill="#63b8ff" stroke="#63b8ff" points="412.57,-86.03 419.69,-78.18 409.23,-79.87 412.57,-86.03"/>
</a>
</g>
</g>
<!-- Node12&#45;&gt;Node7 -->
<g id="edge19_Node000012_Node000007" class="edge">
<title>Node12&#45;&gt;Node7</title>
<g id="a_edge19_Node000012_Node000007"><a xlink:title=" ">
<path fill="none" stroke="#63b8ff" d="M349.27,-113.21C363.53,-100.51 384.19,-77.37 374.25,-56.75 368.4,-44.62 357.57,-34.74 346.9,-27.33"/>
<polygon fill="#63b8ff" stroke="#63b8ff" points="348.89,-24.45 338.58,-22.03 345.14,-30.35 348.89,-24.45"/>
</a>
</g>
</g>
<!-- Node13 -->
<g id="Node000013" class="node">
<title>Node13</title>
<g id="a_Node000013"><a xlink:title=" ">
<polygon fill="#e0e0e0" stroke="#999999" points="364.75,-77.5 309.75,-77.5 309.75,-56.75 364.75,-56.75 364.75,-77.5"/>
<text text-anchor="middle" x="337.25" y="-64" font-family="Helvetica,sans-Serif" font-size="10.00">unistd.h</text>
</a>
</g>
</g>
<!-- Node12&#45;&gt;Node13 -->
<g id="edge21_Node000012_Node000013" class="edge">
<title>Node12&#45;&gt;Node13</title>
<g id="a_edge21_Node000012_Node000013"><a xlink:title=" ">
<path fill="none" stroke="#63b8ff" d="M337.25,-113.09C337.25,-106.47 337.25,-97.47 337.25,-89.27"/>
<polygon fill="#63b8ff" stroke="#63b8ff" points="340.75,-89.34 337.25,-79.34 333.75,-89.34 340.75,-89.34"/>
</a>
</g>
</g>
</g>
</svg>
