<?xml version="1.0" encoding="UTF-8" standalone="no"?>
<!DOCTYPE svg PUBLIC "-//W3C//DTD SVG 1.1//EN"
 "http://www.w3.org/Graphics/SVG/1.1/DTD/svg11.dtd">
<!-- Generated by graphviz version 12.2.1 (0)
 -->
<!-- Title: main Pages: 1 -->
<svg width="582pt" height="224pt"
 viewBox="0.00 0.00 582.25 223.75" xmlns="http://www.w3.org/2000/svg" xmlns:xlink="http://www.w3.org/1999/xlink">
<g id="graph0" class="graph" transform="scale(1 1) rotate(0) translate(4 219.75)">
<title>main</title>
<!-- Node1 -->
<g id="Node000001" class="node">
<title>Node1</title>
<g id="a_Node000001"><a xlink:title="Точка входа в программу">
<polygon fill="#999999" stroke="#666666" points="40.75,-117.75 0,-117.75 0,-97 40.75,-97 40.75,-117.75"/>
<text text-anchor="middle" x="20.38" y="-104.25" font-family="Helvetica,sans-Serif" font-size="10.00">main</text>
</a>
</g>
</g>
<!-- Node2 -->
<g id="Node000002" class="node">
<title>Node2</title>
<g id="a_Node000002"><a xlink:href="user_8c.html#a69a84096e4cee2cfde630466c3613075" target="_top" xlink:title="Анализирует опции командной строки">
<polygon fill="white" stroke="#666666" points="155,-215.75 76.75,-215.75 76.75,-195 155,-195 155,-215.75"/>
<text text-anchor="middle" x="115.88" y="-202.25" font-family="Helvetica,sans-Serif" font-size="10.00">getTermOpts</text>
</a>
</g>
</g>
<!-- Node1&#45;&gt;Node2 -->
<g id="edge1_Node000001_Node000002" class="edge">
<title>Node1&#45;&gt;Node2</title>
<g id="a_edge1_Node000001_Node000002"><a xlink:title=" ">
<path fill="none" stroke="#63b8ff" d="M26.88,-118.17C35.6,-134.45 53.99,-165.48 76.75,-185.38 78.02,-186.48 79.35,-187.55 80.74,-188.57"/>
<polygon fill="#63b8ff" stroke="#63b8ff" points="78.79,-191.48 89.1,-193.91 82.55,-185.58 78.79,-191.48"/>
</a>
</g>
</g>
<!-- Node3 -->
<g id="Node000003" class="node">
<title>Node3</title>
<g id="a_Node000003"><a xlink:href="user_8c.html#a2177eed449119b221fef82c0ffb9784f" target="_top" xlink:title="Вытряхивает url с юзера и сохраняет его в указатель">
<polygon fill="white" stroke="#666666" points="138.88,-176.75 92.88,-176.75 92.88,-156 138.88,-156 138.88,-176.75"/>
<text text-anchor="middle" x="115.88" y="-163.25" font-family="Helvetica,sans-Serif" font-size="10.00">getUrl</text>
</a>
</g>
</g>
<!-- Node1&#45;&gt;Node3 -->
<g id="edge2_Node000001_Node000003" class="edge">
<title>Node1&#45;&gt;Node3</title>
<g id="a_edge2_Node000001_Node000003"><a xlink:title=" ">
<path fill="none" stroke="#63b8ff" d="M35.6,-118.17C46.59,-126.31 62.3,-137.55 76.75,-146.38 78.87,-147.67 81.09,-148.97 83.34,-150.25"/>
<polygon fill="#63b8ff" stroke="#63b8ff" points="81.44,-153.2 91.9,-154.92 84.8,-147.06 81.44,-153.2"/>
</a>
</g>
</g>
<!-- Node4 -->
<g id="Node000004" class="node">
<title>Node4</title>
<g id="a_Node000004"><a xlink:href="user_8c.html#a97ee70a8770dc30d06c744b24eb2fcfc" target="_top" xlink:title="Выводит хэлп">
<polygon fill="white" stroke="#666666" points="134.38,-137.75 97.38,-137.75 97.38,-117 134.38,-117 134.38,-137.75"/>
<text text-anchor="middle" x="115.88" y="-124.25" font-family="Helvetica,sans-Serif" font-size="10.00">help</text>
</a>
</g>
</g>
<!-- Node1&#45;&gt;Node4 -->
<g id="edge3_Node000001_Node000004" class="edge">
<title>Node1&#45;&gt;Node4</title>
<g id="a_edge3_Node000001_Node000004"><a xlink:title=" ">
<path fill="none" stroke="#63b8ff" d="M41.2,-111.62C54.23,-114.4 71.49,-118.09 86.03,-121.2"/>
<polygon fill="#63b8ff" stroke="#63b8ff" points="84.98,-124.56 95.49,-123.23 86.44,-117.71 84.98,-124.56"/>
</a>
</g>
</g>
<!-- Node5 -->
<g id="Node000005" class="node">
<title>Node5</title>
<g id="a_Node000005"><a xlink:href="fs_8c.html#a791c8dff05a93ea82bde76fc7c4a94ca" target="_top" xlink:title="Создаёт нужные папки">
<polygon fill="white" stroke="#666666" points="141.5,-98.75 90.25,-98.75 90.25,-78 141.5,-78 141.5,-98.75"/>
<text text-anchor="middle" x="115.88" y="-85.25" font-family="Helvetica,sans-Serif" font-size="10.00">initDirs</text>
</a>
</g>
</g>
<!-- Node1&#45;&gt;Node5 -->
<g id="edge4_Node000001_Node000005" class="edge">
<title>Node1&#45;&gt;Node5</title>
<g id="a_edge4_Node000001_Node000005"><a xlink:title=" ">
<path fill="none" stroke="#63b8ff" d="M41.2,-103.35C52.23,-101.1 66.29,-98.25 79.17,-95.63"/>
<polygon fill="#63b8ff" stroke="#63b8ff" points="79.49,-99.14 88.59,-93.72 78.09,-92.28 79.49,-99.14"/>
</a>
</g>
</g>
<!-- Node7 -->
<g id="Node000007" class="node">
<title>Node7</title>
<g id="a_Node000007"><a xlink:href="user_8c.html#a22e29e963f6ee6c7281bfd2e401d4793" target="_top" xlink:title="Показывает главное меню и копирует выбор юзера в указатель">
<polygon fill="white" stroke="#666666" points="137.75,-59.75 94,-59.75 94,-39 137.75,-39 137.75,-59.75"/>
<text text-anchor="middle" x="115.88" y="-46.25" font-family="Helvetica,sans-Serif" font-size="10.00">menu</text>
</a>
</g>
</g>
<!-- Node1&#45;&gt;Node7 -->
<g id="edge6_Node000001_Node000007" class="edge">
<title>Node1&#45;&gt;Node7</title>
<g id="a_edge6_Node000001_Node000007"><a xlink:title=" ">
<path fill="none" stroke="#63b8ff" d="M36.1,-96.56C47.08,-88.68 62.57,-77.92 76.75,-69.38 79.02,-68.01 81.39,-66.64 83.79,-65.29"/>
<polygon fill="#63b8ff" stroke="#63b8ff" points="85.2,-68.5 92.32,-60.66 81.86,-62.35 85.2,-68.5"/>
</a>
</g>
</g>
<!-- Node8 -->
<g id="Node000008" class="node">
<title>Node8</title>
<g id="a_Node000008"><a xlink:href="yt__dlp_8c.html#ad12a3554ed1a8bd9992ac6c7ae709bdd" target="_top" xlink:title="Скачка url с запрошенным режимом">
<polygon fill="white" stroke="#666666" points="138.88,-20.75 92.88,-20.75 92.88,0 138.88,0 138.88,-20.75"/>
<text text-anchor="middle" x="115.88" y="-7.25" font-family="Helvetica,sans-Serif" font-size="10.00">yt_dlp</text>
</a>
</g>
</g>
<!-- Node1&#45;&gt;Node8 -->
<g id="edge7_Node000001_Node000008" class="edge">
<title>Node1&#45;&gt;Node8</title>
<g id="a_edge7_Node000001_Node000008"><a xlink:title=" ">
<path fill="none" stroke="#63b8ff" d="M26.91,-96.72C35.68,-80.66 54.13,-50.03 76.75,-30.38 78.63,-28.74 80.67,-27.2 82.79,-25.74"/>
<polygon fill="#63b8ff" stroke="#63b8ff" points="84.33,-28.9 91.09,-20.74 80.72,-22.9 84.33,-28.9"/>
</a>
</g>
</g>
<!-- Node6 -->
<g id="Node000006" class="node">
<title>Node6</title>
<g id="a_Node000006"><a xlink:href="fs_8c.html#ad434ffce2667f992ccfb4b3c200ecd0d" target="_top" xlink:title="Создаёт папку, если её ещё нет">
<polygon fill="white" stroke="#666666" points="276,-98.75 220.25,-98.75 220.25,-78 276,-78 276,-98.75"/>
<text text-anchor="middle" x="248.12" y="-85.25" font-family="Helvetica,sans-Serif" font-size="10.00">mkdir_p</text>
</a>
</g>
</g>
<!-- Node5&#45;&gt;Node6 -->
<g id="edge5_Node000005_Node000006" class="edge">
<title>Node5&#45;&gt;Node6</title>
<g id="a_edge5_Node000005_Node000006"><a xlink:title=" ">
<path fill="none" stroke="#63b8ff" d="M141.99,-88.38C160.83,-88.38 186.95,-88.38 208.45,-88.38"/>
<polygon fill="#63b8ff" stroke="#63b8ff" points="208.33,-91.88 218.33,-88.38 208.33,-84.88 208.33,-91.88"/>
</a>
</g>
</g>
<!-- Node9 -->
<g id="Node000009" class="node">
<title>Node9</title>
<g id="a_Node000009"><a xlink:href="yt__dlp_8c.html#aac411bed2012a2feac84bce1d514d1c7" target="_top" xlink:title="Получение и обработка ID видео из плейлиста">
<polygon fill="white" stroke="#666666" points="305.25,-59.75 191,-59.75 191,-39 305.25,-39 305.25,-59.75"/>
<text text-anchor="middle" x="248.12" y="-46.25" font-family="Helvetica,sans-Serif" font-size="10.00">process_playlist_ids</text>
</a>
</g>
</g>
<!-- Node8&#45;&gt;Node9 -->
<g id="edge8_Node000008_Node000009" class="edge">
<title>Node8&#45;&gt;Node9</title>
<g id="a_edge8_Node000008_Node000009"><a xlink:title=" ">
<path fill="none" stroke="#63b8ff" d="M139.27,-17.08C155.97,-22.08 179.4,-29.1 200.16,-35.31"/>
<polygon fill="#63b8ff" stroke="#63b8ff" points="199,-38.62 209.58,-38.13 201.01,-31.91 199,-38.62"/>
</a>
</g>
</g>
<!-- Node13 -->
<g id="Node000013" class="node">
<title>Node13</title>
<g id="a_Node000013"><a xlink:href="yt__dlp_8c.html#ae0f89d7d0a43f9be78538dafce7b4e3a" target="_top" xlink:title="Обёртка вокруг консольной команды yt&#45;dlp.">
<polygon fill="white" stroke="#666666" points="435.25,-20.75 368.25,-20.75 368.25,0 435.25,0 435.25,-20.75"/>
<text text-anchor="middle" x="401.75" y="-7.25" font-family="Helvetica,sans-Serif" font-size="10.00">run_yt_dlp</text>
</a>
</g>
</g>
<!-- Node8&#45;&gt;Node13 -->
<g id="edge14_Node000008_Node000013" class="edge">
<title>Node8&#45;&gt;Node13</title>
<g id="a_edge14_Node000008_Node000013"><a xlink:title=" ">
<path fill="none" stroke="#63b8ff" d="M139.15,-10.38C185.93,-10.38 295.15,-10.38 356.65,-10.38"/>
<polygon fill="#63b8ff" stroke="#63b8ff" points="356.4,-13.88 366.4,-10.38 356.4,-6.88 356.4,-13.88"/>
</a>
</g>
</g>
<!-- Node10 -->
<g id="Node000010" class="node">
<title>Node10</title>
<g id="a_Node000010"><a xlink:href="fs_8c.html#a65ecb49246f4d74a183116704b7968a0" target="_top" xlink:title="Проверка, есть ли ID видео в логе">
<polygon fill="white" stroke="#666666" points="462.25,-98.75 341.25,-98.75 341.25,-78 462.25,-78 462.25,-98.75"/>
<text text-anchor="middle" x="401.75" y="-85.25" font-family="Helvetica,sans-Serif" font-size="10.00">is_video_downloaded</text>
</a>
</g>
</g>
<!-- Node9&#45;&gt;Node10 -->
<g id="edge9_Node000009_Node000010" class="edge">
<title>Node9&#45;&gt;Node10</title>
<g id="a_edge9_Node000009_Node000010"><a xlink:title=" ">
<path fill="none" stroke="#63b8ff" d="M291.36,-60.24C308.7,-64.7 328.99,-69.92 347.34,-74.64"/>
<polygon fill="#63b8ff" stroke="#63b8ff" points="346.46,-78.02 357.01,-77.12 348.2,-71.24 346.46,-78.02"/>
</a>
</g>
</g>
<!-- Node12 -->
<g id="Node000012" class="node">
<title>Node12</title>
<g id="a_Node000012"><a xlink:href="fs_8c.html#ac7135dd56474a60b51b7121ced937914" target="_top" xlink:title="Запись ID видео в лог">
<polygon fill="white" stroke="#666666" points="440.5,-59.75 363,-59.75 363,-39 440.5,-39 440.5,-59.75"/>
<text text-anchor="middle" x="401.75" y="-46.25" font-family="Helvetica,sans-Serif" font-size="10.00">log_video_id</text>
</a>
</g>
</g>
<!-- Node9&#45;&gt;Node12 -->
<g id="edge11_Node000009_Node000012" class="edge">
<title>Node9&#45;&gt;Node12</title>
<g id="a_edge11_Node000009_Node000012"><a xlink:title=" ">
<path fill="none" stroke="#63b8ff" d="M305.58,-49.38C320.6,-49.38 336.7,-49.38 351.31,-49.38"/>
<polygon fill="#63b8ff" stroke="#63b8ff" points="351.14,-52.88 361.14,-49.38 351.14,-45.88 351.14,-52.88"/>
</a>
</g>
</g>
<!-- Node9&#45;&gt;Node13 -->
<g id="edge13_Node000009_Node000013" class="edge">
<title>Node9&#45;&gt;Node13</title>
<g id="a_edge13_Node000009_Node000013"><a xlink:title=" ">
<path fill="none" stroke="#63b8ff" d="M291.36,-38.51C311.77,-33.26 336.24,-26.97 356.86,-21.66"/>
<polygon fill="#63b8ff" stroke="#63b8ff" points="357.59,-25.09 366.4,-19.21 355.84,-18.31 357.59,-25.09"/>
</a>
</g>
</g>
<!-- Node11 -->
<g id="Node000011" class="node">
<title>Node11</title>
<g id="a_Node000011"><a xlink:href="fs_8c.html#a19ed4f16202168c3c0808762ce2fdf42" target="_top" xlink:title="Вычисляет путь к DRAY_LOG и копирует его в указатель">
<polygon fill="white" stroke="#666666" points="574.25,-78.75 498.25,-78.75 498.25,-58 574.25,-58 574.25,-78.75"/>
<text text-anchor="middle" x="536.25" y="-65.25" font-family="Helvetica,sans-Serif" font-size="10.00">drayLogPath</text>
</a>
</g>
</g>
<!-- Node10&#45;&gt;Node11 -->
<g id="edge10_Node000010_Node000011" class="edge">
<title>Node10&#45;&gt;Node11</title>
<g id="a_edge10_Node000010_Node000011"><a xlink:title=" ">
<path fill="none" stroke="#63b8ff" d="M462.41,-79.37C470.53,-78.14 478.79,-76.9 486.68,-75.71"/>
<polygon fill="#63b8ff" stroke="#63b8ff" points="487.07,-79.19 496.44,-74.23 486.03,-72.27 487.07,-79.19"/>
</a>
</g>
</g>
<!-- Node12&#45;&gt;Node11 -->
<g id="edge12_Node000012_Node000011" class="edge">
<title>Node12&#45;&gt;Node11</title>
<g id="a_edge12_Node000012_Node000011"><a xlink:title=" ">
<path fill="none" stroke="#63b8ff" d="M440.72,-54.82C455.1,-56.88 471.67,-59.26 486.88,-61.44"/>
<polygon fill="#63b8ff" stroke="#63b8ff" points="486.3,-64.89 496.69,-62.85 487.29,-57.96 486.3,-64.89"/>
</a>
</g>
</g>
</g>
</svg>
