<?xml version="1.0" encoding="UTF-8" standalone="no"?>
<!DOCTYPE svg PUBLIC "-//W3C//DTD SVG 1.1//EN"
 "http://www.w3.org/Graphics/SVG/1.1/DTD/svg11.dtd">
<!-- Generated by graphviz version 12.2.1 (0)
 -->
<!-- Title: src/main.c Pages: 1 -->
<svg width="591pt" height="313pt"
 viewBox="0.00 0.00 591.12 312.50" xmlns="http://www.w3.org/2000/svg" xmlns:xlink="http://www.w3.org/1999/xlink">
<g id="graph0" class="graph" transform="scale(1 1) rotate(0) translate(4 308.5)">
<title>src/main.c</title>
<!-- Node1 -->
<g id="Node000001" class="node">
<title>Node1</title>
<g id="a_Node000001"><a xlink:title="Прога для комфортного кача с YouTube.">
<polygon fill="#999999" stroke="#666666" points="303.12,-304.5 236.88,-304.5 236.88,-283.75 303.12,-283.75 303.12,-304.5"/>
<text text-anchor="middle" x="270" y="-291" font-family="Helvetica,sans-Serif" font-size="10.00">src/main.c</text>
</a>
</g>
</g>
<!-- Node2 -->
<g id="Node000002" class="node">
<title>Node2</title>
<g id="a_Node000002"><a xlink:href="config_8h.html" target="_top" xlink:title="Константы">
<polygon fill="white" stroke="#666666" points="583.12,-77.5 528.88,-77.5 528.88,-56.75 583.12,-56.75 583.12,-77.5"/>
<text text-anchor="middle" x="556" y="-64" font-family="Helvetica,sans-Serif" font-size="10.00">config.h</text>
</a>
</g>
</g>
<!-- Node1&#45;&gt;Node2 -->
<g id="edge1_Node000001_Node000002" class="edge">
<title>Node1&#45;&gt;Node2</title>
<g id="a_edge1_Node000001_Node000002"><a xlink:title=" ">
<path fill="none" stroke="#63b8ff" d="M284.12,-283.4C297.18,-274.34 317.07,-260.37 334,-247.75 399.62,-198.85 415.72,-186.14 479,-134.25 498.93,-117.9 521.23,-98.65 536.68,-85.14"/>
<polygon fill="#63b8ff" stroke="#63b8ff" points="538.56,-88.14 543.78,-78.92 533.95,-82.88 538.56,-88.14"/>
</a>
</g>
</g>
<!-- Node3 -->
<g id="Node000003" class="node">
<title>Node3</title>
<g id="a_Node000003"><a xlink:href="cfg_8h.html" target="_top" xlink:title="Анализирует конфигурацию в config.ini.">
<polygon fill="white" stroke="#666666" points="364,-134.25 324,-134.25 324,-113.5 364,-113.5 364,-134.25"/>
<text text-anchor="middle" x="344" y="-120.75" font-family="Helvetica,sans-Serif" font-size="10.00">cfg.h</text>
</a>
</g>
</g>
<!-- Node1&#45;&gt;Node3 -->
<g id="edge2_Node000001_Node000003" class="edge">
<title>Node1&#45;&gt;Node3</title>
<g id="a_edge2_Node000001_Node000003"><a xlink:title=" ">
<path fill="none" stroke="#63b8ff" d="M280.62,-283.39C298.07,-266.56 332.19,-230.09 345,-191 349.77,-176.45 349.3,-159.11 347.75,-145.84"/>
<polygon fill="#63b8ff" stroke="#63b8ff" points="351.23,-145.46 346.3,-136.08 344.31,-146.49 351.23,-145.46"/>
</a>
</g>
</g>
<!-- Node6 -->
<g id="Node000006" class="node">
<title>Node6</title>
<g id="a_Node000006"><a xlink:title=" ">
<polygon fill="#e0e0e0" stroke="#999999" points="189.5,-20.75 140.5,-20.75 140.5,0 189.5,0 189.5,-20.75"/>
<text text-anchor="middle" x="165" y="-7.25" font-family="Helvetica,sans-Serif" font-size="10.00">stdio.h</text>
</a>
</g>
</g>
<!-- Node1&#45;&gt;Node6 -->
<g id="edge30_Node000001_Node000006" class="edge">
<title>Node1&#45;&gt;Node6</title>
<g id="a_edge30_Node000001_Node000006"><a xlink:title=" ">
<path fill="none" stroke="#63b8ff" d="M236.62,-294.01C164.38,-294.03 0,-282.93 0,-181.62 0,-181.62 0,-181.62 0,-122.88 0,-60.94 80.79,-31.09 129.31,-18.74"/>
<polygon fill="#63b8ff" stroke="#63b8ff" points="129.92,-22.2 138.83,-16.46 128.29,-15.39 129.92,-22.2"/>
</a>
</g>
</g>
<!-- Node10 -->
<g id="Node000010" class="node">
<title>Node10</title>
<g id="a_Node000010"><a xlink:href="fs_8h.html" target="_top" xlink:title="Модуль для работы с файловой системой">
<polygon fill="white" stroke="#666666" points="317,-191 283,-191 283,-170.25 317,-170.25 317,-191"/>
<text text-anchor="middle" x="300" y="-177.5" font-family="Helvetica,sans-Serif" font-size="10.00">fs.h</text>
</a>
</g>
</g>
<!-- Node1&#45;&gt;Node10 -->
<g id="edge11_Node000001_Node000010" class="edge">
<title>Node1&#45;&gt;Node10</title>
<g id="a_edge11_Node000001_Node000010"><a xlink:title=" ">
<path fill="none" stroke="#63b8ff" d="M272.56,-283.62C277.38,-265.69 287.93,-226.5 294.45,-202.26"/>
<polygon fill="#63b8ff" stroke="#63b8ff" points="297.75,-203.45 296.97,-192.89 290.99,-201.63 297.75,-203.45"/>
</a>
</g>
</g>
<!-- Node11 -->
<g id="Node000011" class="node">
<title>Node11</title>
<g id="a_Node000011"><a xlink:href="user_8h.html" target="_top" xlink:title="Модуль для работы с юзером">
<polygon fill="white" stroke="#666666" points="152.62,-134.25 107.38,-134.25 107.38,-113.5 152.62,-113.5 152.62,-134.25"/>
<text text-anchor="middle" x="130" y="-120.75" font-family="Helvetica,sans-Serif" font-size="10.00">user.h</text>
</a>
</g>
</g>
<!-- Node1&#45;&gt;Node11 -->
<g id="edge17_Node000001_Node000011" class="edge">
<title>Node1&#45;&gt;Node11</title>
<g id="a_edge17_Node000001_Node000011"><a xlink:title=" ">
<path fill="none" stroke="#63b8ff" d="M250.7,-283.37C236.06,-275.29 216.12,-262.72 202,-247.75 172.43,-216.4 149.75,-170.78 138.28,-144.85"/>
<polygon fill="#63b8ff" stroke="#63b8ff" points="141.58,-143.65 134.42,-135.84 135.14,-146.41 141.58,-143.65"/>
</a>
</g>
</g>
<!-- Node12 -->
<g id="Node000012" class="node">
<title>Node12</title>
<g id="a_Node000012"><a xlink:href="yt__dlp_8h.html" target="_top" xlink:title="Модуль для работы с yt&#45;dlp.">
<polygon fill="white" stroke="#666666" points="266.5,-247.75 211.5,-247.75 211.5,-227 266.5,-227 266.5,-247.75"/>
<text text-anchor="middle" x="239" y="-234.25" font-family="Helvetica,sans-Serif" font-size="10.00">yt_dlp.h</text>
</a>
</g>
</g>
<!-- Node1&#45;&gt;Node12 -->
<g id="edge22_Node000001_Node000012" class="edge">
<title>Node1&#45;&gt;Node12</title>
<g id="a_edge22_Node000001_Node000012"><a xlink:title=" ">
<path fill="none" stroke="#63b8ff" d="M264.46,-283.34C260.49,-276.33 255.01,-266.66 250.16,-258.08"/>
<polygon fill="#63b8ff" stroke="#63b8ff" points="253.21,-256.37 245.24,-249.4 247.12,-259.82 253.21,-256.37"/>
</a>
</g>
</g>
<!-- Node3&#45;&gt;Node2 -->
<g id="edge8_Node000003_Node000002" class="edge">
<title>Node3&#45;&gt;Node2</title>
<g id="a_edge8_Node000003_Node000002"><a xlink:title=" ">
<path fill="none" stroke="#63b8ff" d="M364.48,-117.16C368.93,-115.94 373.62,-114.66 378,-113.5 425.98,-100.77 481.42,-86.75 517.51,-77.71"/>
<polygon fill="#63b8ff" stroke="#63b8ff" points="518.19,-81.14 527.04,-75.32 516.49,-74.35 518.19,-81.14"/>
</a>
</g>
</g>
<!-- Node4 -->
<g id="Node000004" class="node">
<title>Node4</title>
<g id="a_Node000004"><a xlink:title=" ">
<polygon fill="#e0e0e0" stroke="#999999" points="398.5,-77.5 337.5,-77.5 337.5,-56.75 398.5,-56.75 398.5,-77.5"/>
<text text-anchor="middle" x="368" y="-64" font-family="Helvetica,sans-Serif" font-size="10.00">stdbool.h</text>
</a>
</g>
</g>
<!-- Node3&#45;&gt;Node4 -->
<g id="edge3_Node000003_Node000004" class="edge">
<title>Node3&#45;&gt;Node4</title>
<g id="a_edge3_Node000003_Node000004"><a xlink:title=" ">
<path fill="none" stroke="#63b8ff" d="M348.29,-113.09C351.33,-106.16 355.51,-96.62 359.24,-88.11"/>
<polygon fill="#63b8ff" stroke="#63b8ff" points="362.33,-89.78 363.14,-79.21 355.92,-86.97 362.33,-89.78"/>
</a>
</g>
</g>
<!-- Node5 -->
<g id="Node000005" class="node">
<title>Node5</title>
<g id="a_Node000005"><a xlink:title=" ">
<polygon fill="#e0e0e0" stroke="#999999" points="473.25,-77.5 416.75,-77.5 416.75,-56.75 473.25,-56.75 473.25,-77.5"/>
<text text-anchor="middle" x="445" y="-64" font-family="Helvetica,sans-Serif" font-size="10.00">getopt.h</text>
</a>
</g>
</g>
<!-- Node3&#45;&gt;Node5 -->
<g id="edge4_Node000003_Node000005" class="edge">
<title>Node3&#45;&gt;Node5</title>
<g id="a_edge4_Node000003_Node000005"><a xlink:title=" ">
<path fill="none" stroke="#63b8ff" d="M362.06,-113.09C377.42,-104.76 399.74,-92.66 417.36,-83.11"/>
<polygon fill="#63b8ff" stroke="#63b8ff" points="418.65,-86.39 425.77,-78.55 415.31,-80.24 418.65,-86.39"/>
</a>
</g>
</g>
<!-- Node3&#45;&gt;Node6 -->
<g id="edge5_Node000003_Node000006" class="edge">
<title>Node3&#45;&gt;Node6</title>
<g id="a_edge5_Node000003_Node000006"><a xlink:title=" ">
<path fill="none" stroke="#63b8ff" d="M364.31,-116.88C401.81,-105.72 478.43,-82.43 482,-77.5 487.41,-70.03 488.04,-63.72 482,-56.75 445.96,-15.18 276.18,-10.77 200.99,-10.9"/>
<polygon fill="#63b8ff" stroke="#63b8ff" points="201.27,-7.4 191.28,-10.95 201.3,-14.4 201.27,-7.4"/>
</a>
</g>
</g>
<!-- Node7 -->
<g id="Node000007" class="node">
<title>Node7</title>
<g id="a_Node000007"><a xlink:title=" ">
<polygon fill="#e0e0e0" stroke="#999999" points="156,-77.5 104,-77.5 104,-56.75 156,-56.75 156,-77.5"/>
<text text-anchor="middle" x="130" y="-64" font-family="Helvetica,sans-Serif" font-size="10.00">stdlib.h</text>
</a>
</g>
</g>
<!-- Node3&#45;&gt;Node7 -->
<g id="edge6_Node000003_Node000007" class="edge">
<title>Node3&#45;&gt;Node7</title>
<g id="a_edge6_Node000003_Node000007"><a xlink:title=" ">
<path fill="none" stroke="#63b8ff" d="M323.58,-117.79C292.13,-109.95 229.72,-94.3 167.21,-78.05"/>
<polygon fill="#63b8ff" stroke="#63b8ff" points="168.39,-74.74 157.83,-75.61 166.62,-81.52 168.39,-74.74"/>
</a>
</g>
</g>
<!-- Node8 -->
<g id="Node000008" class="node">
<title>Node8</title>
<g id="a_Node000008"><a xlink:title=" ">
<polygon fill="#e0e0e0" stroke="#999999" points="226.38,-77.5 173.62,-77.5 173.62,-56.75 226.38,-56.75 226.38,-77.5"/>
<text text-anchor="middle" x="200" y="-64" font-family="Helvetica,sans-Serif" font-size="10.00">string.h</text>
</a>
</g>
</g>
<!-- Node3&#45;&gt;Node8 -->
<g id="edge7_Node000003_Node000008" class="edge">
<title>Node3&#45;&gt;Node8</title>
<g id="a_edge7_Node000003_Node000008"><a xlink:title=" ">
<path fill="none" stroke="#63b8ff" d="M323.67,-115.15C301.02,-106.53 263.94,-92.44 236.28,-81.92"/>
<polygon fill="#63b8ff" stroke="#63b8ff" points="237.82,-78.76 227.23,-78.48 235.34,-85.3 237.82,-78.76"/>
</a>
</g>
</g>
<!-- Node9 -->
<g id="Node000009" class="node">
<title>Node9</title>
<g id="a_Node000009"><a xlink:href="ini_8h.html" target="_top" xlink:title=" ">
<polygon fill="white" stroke="#666666" points="319.5,-77.5 282.5,-77.5 282.5,-56.75 319.5,-56.75 319.5,-77.5"/>
<text text-anchor="middle" x="301" y="-64" font-family="Helvetica,sans-Serif" font-size="10.00">ini.h</text>
</a>
</g>
</g>
<!-- Node3&#45;&gt;Node9 -->
<g id="edge9_Node000003_Node000009" class="edge">
<title>Node3&#45;&gt;Node9</title>
<g id="a_edge9_Node000003_Node000009"><a xlink:title=" ">
<path fill="none" stroke="#63b8ff" d="M336.31,-113.09C330.56,-105.77 322.53,-95.54 315.58,-86.69"/>
<polygon fill="#63b8ff" stroke="#63b8ff" points="318.49,-84.72 309.56,-79.02 312.98,-89.05 318.49,-84.72"/>
</a>
</g>
</g>
<!-- Node9&#45;&gt;Node6 -->
<g id="edge10_Node000009_Node000006" class="edge">
<title>Node9&#45;&gt;Node6</title>
<g id="a_edge10_Node000009_Node000006"><a xlink:title=" ">
<path fill="none" stroke="#63b8ff" d="M282.09,-58.51C260.89,-49.98 226.05,-35.95 199.88,-25.42"/>
<polygon fill="#63b8ff" stroke="#63b8ff" points="201.24,-22.19 190.66,-21.7 198.63,-28.69 201.24,-22.19"/>
</a>
</g>
</g>
<!-- Node10&#45;&gt;Node2 -->
<g id="edge16_Node000010_Node000002" class="edge">
<title>Node10&#45;&gt;Node2</title>
<g id="a_edge16_Node000010_Node000002"><a xlink:title=" ">
<path fill="none" stroke="#63b8ff" d="M314.87,-169.83C336.45,-155.91 378.04,-130.26 416,-113.5 449.43,-98.74 489.2,-86.31 517.79,-78.21"/>
<polygon fill="#63b8ff" stroke="#63b8ff" points="518.4,-81.68 527.09,-75.63 516.52,-74.94 518.4,-81.68"/>
</a>
</g>
</g>
<!-- Node10&#45;&gt;Node3 -->
<g id="edge15_Node000010_Node000003" class="edge">
<title>Node10&#45;&gt;Node3</title>
<g id="a_edge15_Node000010_Node000003"><a xlink:title=" ">
<path fill="none" stroke="#63b8ff" d="M307.87,-169.84C313.75,-162.52 321.97,-152.29 329.08,-143.44"/>
<polygon fill="#63b8ff" stroke="#63b8ff" points="331.72,-145.75 335.25,-135.76 326.26,-141.36 331.72,-145.75"/>
</a>
</g>
</g>
<!-- Node10&#45;&gt;Node6 -->
<g id="edge12_Node000010_Node000006" class="edge">
<title>Node10&#45;&gt;Node6</title>
<g id="a_edge12_Node000010_Node000006"><a xlink:title=" ">
<path fill="none" stroke="#63b8ff" d="M296.82,-170C289.14,-147.88 267.75,-92.53 235,-56.75 223.86,-44.58 208.77,-34.25 195.45,-26.54"/>
<polygon fill="#63b8ff" stroke="#63b8ff" points="197.48,-23.66 187.03,-21.89 194.09,-29.79 197.48,-23.66"/>
</a>
</g>
</g>
<!-- Node10&#45;&gt;Node7 -->
<g id="edge13_Node000010_Node000007" class="edge">
<title>Node10&#45;&gt;Node7</title>
<g id="a_edge13_Node000010_Node000007"><a xlink:title=" ">
<path fill="none" stroke="#63b8ff" d="M285.21,-169.93C255.82,-150.65 189.84,-107.37 154.1,-83.93"/>
<polygon fill="#63b8ff" stroke="#63b8ff" points="156.42,-81.27 146.14,-78.71 152.58,-87.12 156.42,-81.27"/>
</a>
</g>
</g>
<!-- Node10&#45;&gt;Node8 -->
<g id="edge14_Node000010_Node000008" class="edge">
<title>Node10&#45;&gt;Node8</title>
<g id="a_edge14_Node000010_Node000008"><a xlink:title=" ">
<path fill="none" stroke="#63b8ff" d="M291.47,-170.12C274.88,-151.61 237.98,-110.47 216.46,-86.48"/>
<polygon fill="#63b8ff" stroke="#63b8ff" points="219.08,-84.16 209.8,-79.05 213.87,-88.83 219.08,-84.16"/>
</a>
</g>
</g>
<!-- Node11&#45;&gt;Node2 -->
<g id="edge21_Node000011_Node000002" class="edge">
<title>Node11&#45;&gt;Node2</title>
<g id="a_edge21_Node000011_Node000002"><a xlink:title=" ">
<path fill="none" stroke="#63b8ff" d="M152.9,-119.93C222.22,-111.02 430.28,-84.28 517.19,-73.11"/>
<polygon fill="#63b8ff" stroke="#63b8ff" points="517.41,-76.61 526.88,-71.87 516.52,-69.67 517.41,-76.61"/>
</a>
</g>
</g>
<!-- Node11&#45;&gt;Node6 -->
<g id="edge18_Node000011_Node000006" class="edge">
<title>Node11&#45;&gt;Node6</title>
<g id="a_edge18_Node000011_Node000006"><a xlink:title=" ">
<path fill="none" stroke="#63b8ff" d="M118.68,-113.42C104.72,-100.56 84.08,-76.84 95,-56.75 102.61,-42.76 116.59,-32.41 130.08,-25.16"/>
<polygon fill="#63b8ff" stroke="#63b8ff" points="131.38,-28.43 138.82,-20.88 128.3,-22.14 131.38,-28.43"/>
</a>
</g>
</g>
<!-- Node11&#45;&gt;Node7 -->
<g id="edge19_Node000011_Node000007" class="edge">
<title>Node11&#45;&gt;Node7</title>
<g id="a_edge19_Node000011_Node000007"><a xlink:title=" ">
<path fill="none" stroke="#63b8ff" d="M130,-113.09C130,-106.47 130,-97.47 130,-89.27"/>
<polygon fill="#63b8ff" stroke="#63b8ff" points="133.5,-89.34 130,-79.34 126.5,-89.34 133.5,-89.34"/>
</a>
</g>
</g>
<!-- Node11&#45;&gt;Node8 -->
<g id="edge20_Node000011_Node000008" class="edge">
<title>Node11&#45;&gt;Node8</title>
<g id="a_edge20_Node000011_Node000008"><a xlink:title=" ">
<path fill="none" stroke="#63b8ff" d="M142.51,-113.09C152.57,-105.22 166.91,-94 178.76,-84.74"/>
<polygon fill="#63b8ff" stroke="#63b8ff" points="180.68,-87.68 186.4,-78.76 176.37,-82.16 180.68,-87.68"/>
</a>
</g>
</g>
<!-- Node12&#45;&gt;Node2 -->
<g id="edge28_Node000012_Node000002" class="edge">
<title>Node12&#45;&gt;Node2</title>
<g id="a_edge28_Node000012_Node000002"><a xlink:title=" ">
<path fill="none" stroke="#63b8ff" d="M264.24,-226.59C285.97,-217.93 317.99,-204.58 345,-191 414.36,-156.13 492.46,-108.27 531.31,-83.85"/>
<polygon fill="#63b8ff" stroke="#63b8ff" points="532.88,-86.99 539.46,-78.7 529.14,-81.07 532.88,-86.99"/>
</a>
</g>
</g>
<!-- Node12&#45;&gt;Node3 -->
<g id="edge27_Node000012_Node000003" class="edge">
<title>Node12&#45;&gt;Node3</title>
<g id="a_edge27_Node000012_Node000003"><a xlink:title=" ">
<path fill="none" stroke="#63b8ff" d="M266.78,-228.46C286.07,-221.57 310.94,-209.71 326,-191 336.39,-178.1 340.8,-159.67 342.67,-145.55"/>
<polygon fill="#63b8ff" stroke="#63b8ff" points="346.11,-146.28 343.59,-135.99 339.14,-145.61 346.11,-146.28"/>
</a>
</g>
</g>
<!-- Node12&#45;&gt;Node6 -->
<g id="edge23_Node000012_Node000006" class="edge">
<title>Node12&#45;&gt;Node6</title>
<g id="a_edge23_Node000012_Node000006"><a xlink:title=" ">
<path fill="none" stroke="#63b8ff" d="M211.08,-231.28C185.4,-225.37 147.54,-213.42 122,-191 100.4,-172.04 98.84,-161.9 91,-134.25 81.59,-101.09 70.9,-86.68 88,-56.75 97.01,-40.99 113.86,-30.16 129.52,-23.04"/>
<polygon fill="#63b8ff" stroke="#63b8ff" points="130.74,-26.32 138.65,-19.27 128.07,-19.85 130.74,-26.32"/>
</a>
</g>
</g>
<!-- Node12&#45;&gt;Node7 -->
<g id="edge24_Node000012_Node000007" class="edge">
<title>Node12&#45;&gt;Node7</title>
<g id="a_edge24_Node000012_Node000007"><a xlink:title=" ">
<path fill="none" stroke="#63b8ff" d="M213.38,-226.57C179.76,-212.13 122.19,-181.63 98,-134.25 89.71,-118.01 100.66,-99.28 111.95,-85.91"/>
<polygon fill="#63b8ff" stroke="#63b8ff" points="114.37,-88.45 118.56,-78.72 109.22,-83.71 114.37,-88.45"/>
</a>
</g>
</g>
<!-- Node12&#45;&gt;Node8 -->
<g id="edge25_Node000012_Node000008" class="edge">
<title>Node12&#45;&gt;Node8</title>
<g id="a_edge25_Node000012_Node000008"><a xlink:title=" ">
<path fill="none" stroke="#63b8ff" d="M226.89,-226.66C217.54,-218.33 205.34,-205.41 200,-191 187.38,-156.95 191.54,-113.85 195.75,-88.79"/>
<polygon fill="#63b8ff" stroke="#63b8ff" points="199.14,-89.73 197.53,-79.26 192.25,-88.44 199.14,-89.73"/>
</a>
</g>
</g>
<!-- Node12&#45;&gt;Node10 -->
<g id="edge29_Node000012_Node000010" class="edge">
<title>Node12&#45;&gt;Node10</title>
<g id="a_edge29_Node000012_Node000010"><a xlink:title=" ">
<path fill="none" stroke="#63b8ff" d="M249.91,-226.59C258.49,-218.88 270.67,-207.95 280.88,-198.79"/>
<polygon fill="#63b8ff" stroke="#63b8ff" points="282.96,-201.62 288.06,-192.34 278.28,-196.41 282.96,-201.62"/>
</a>
</g>
</g>
<!-- Node13 -->
<g id="Node000013" class="node">
<title>Node13</title>
<g id="a_Node000013"><a xlink:title=" ">
<polygon fill="#e0e0e0" stroke="#999999" points="264.5,-191 209.5,-191 209.5,-170.25 264.5,-170.25 264.5,-191"/>
<text text-anchor="middle" x="237" y="-177.5" font-family="Helvetica,sans-Serif" font-size="10.00">unistd.h</text>
</a>
</g>
</g>
<!-- Node12&#45;&gt;Node13 -->
<g id="edge26_Node000012_Node000013" class="edge">
<title>Node12&#45;&gt;Node13</title>
<g id="a_edge26_Node000012_Node000013"><a xlink:title=" ">
<path fill="none" stroke="#63b8ff" d="M238.64,-226.59C238.4,-219.97 238.07,-210.97 237.77,-202.77"/>
<polygon fill="#63b8ff" stroke="#63b8ff" points="241.27,-202.71 237.41,-192.84 234.28,-202.96 241.27,-202.71"/>
</a>
</g>
</g>
</g>
</svg>
