<?xml version="1.0" encoding="UTF-8" standalone="no"?>
<!DOCTYPE svg PUBLIC "-//W3C//DTD SVG 1.1//EN"
 "http://www.w3.org/Graphics/SVG/1.1/DTD/svg11.dtd">
<!-- Generated by graphviz version 12.2.1 (0)
 -->
<!-- Title: src/user.h Pages: 1 -->
<svg width="271pt" height="86pt"
 viewBox="0.00 0.00 270.62 85.50" xmlns="http://www.w3.org/2000/svg" xmlns:xlink="http://www.w3.org/1999/xlink">
<g id="graph0" class="graph" transform="scale(1 1) rotate(0) translate(4 81.5)">
<title>src/user.h</title>
<!-- Node1 -->
<g id="Node000001" class="node">
<title>Node1</title>
<g id="a_Node000001"><a xlink:title="Модуль для работы с юзером">
<polygon fill="#999999" stroke="#666666" points="159.75,-77.5 97.25,-77.5 97.25,-56.75 159.75,-56.75 159.75,-77.5"/>
<text text-anchor="middle" x="128.5" y="-64" font-family="Helvetica,sans-Serif" font-size="10.00">src/user.h</text>
</a>
</g>
</g>
<!-- Node2 -->
<g id="Node000002" class="node">
<title>Node2</title>
<g id="a_Node000002"><a xlink:title=" ">
<polygon fill="#e0e0e0" stroke="#999999" points="49,-20.75 0,-20.75 0,0 49,0 49,-20.75"/>
<text text-anchor="middle" x="24.5" y="-7.25" font-family="Helvetica,sans-Serif" font-size="10.00">stdio.h</text>
</a>
</g>
</g>
<!-- Node1&#45;&gt;Node2 -->
<g id="edge1_Node000001_Node000002" class="edge">
<title>Node1&#45;&gt;Node2</title>
<g id="a_edge1_Node000001_Node000002"><a xlink:title=" ">
<path fill="none" stroke="#63b8ff" d="M109.91,-56.34C94.08,-48.01 71.1,-35.91 52.96,-26.36"/>
<polygon fill="#63b8ff" stroke="#63b8ff" points="54.75,-23.34 44.27,-21.78 51.49,-29.54 54.75,-23.34"/>
</a>
</g>
</g>
<!-- Node3 -->
<g id="Node000003" class="node">
<title>Node3</title>
<g id="a_Node000003"><a xlink:title=" ">
<polygon fill="#e0e0e0" stroke="#999999" points="119.5,-20.75 67.5,-20.75 67.5,0 119.5,0 119.5,-20.75"/>
<text text-anchor="middle" x="93.5" y="-7.25" font-family="Helvetica,sans-Serif" font-size="10.00">stdlib.h</text>
</a>
</g>
</g>
<!-- Node1&#45;&gt;Node3 -->
<g id="edge2_Node000001_Node000003" class="edge">
<title>Node1&#45;&gt;Node3</title>
<g id="a_edge2_Node000001_Node000003"><a xlink:title=" ">
<path fill="none" stroke="#63b8ff" d="M122.24,-56.34C117.66,-49.17 111.3,-39.23 105.73,-30.51"/>
<polygon fill="#63b8ff" stroke="#63b8ff" points="108.85,-28.89 100.52,-22.35 102.96,-32.66 108.85,-28.89"/>
</a>
</g>
</g>
<!-- Node4 -->
<g id="Node000004" class="node">
<title>Node4</title>
<g id="a_Node000004"><a xlink:title=" ">
<polygon fill="#e0e0e0" stroke="#999999" points="189.88,-20.75 137.12,-20.75 137.12,0 189.88,0 189.88,-20.75"/>
<text text-anchor="middle" x="163.5" y="-7.25" font-family="Helvetica,sans-Serif" font-size="10.00">string.h</text>
</a>
</g>
</g>
<!-- Node1&#45;&gt;Node4 -->
<g id="edge3_Node000001_Node000004" class="edge">
<title>Node1&#45;&gt;Node4</title>
<g id="a_edge3_Node000001_Node000004"><a xlink:title=" ">
<path fill="none" stroke="#63b8ff" d="M134.76,-56.34C139.34,-49.17 145.7,-39.23 151.27,-30.51"/>
<polygon fill="#63b8ff" stroke="#63b8ff" points="154.04,-32.66 156.48,-22.35 148.15,-28.89 154.04,-32.66"/>
</a>
</g>
</g>
<!-- Node5 -->
<g id="Node000005" class="node">
<title>Node5</title>
<g id="a_Node000005"><a xlink:href="config_8h.html" target="_top" xlink:title="Константы">
<polygon fill="white" stroke="#666666" points="262.62,-20.75 208.38,-20.75 208.38,0 262.62,0 262.62,-20.75"/>
<text text-anchor="middle" x="235.5" y="-7.25" font-family="Helvetica,sans-Serif" font-size="10.00">config.h</text>
</a>
</g>
</g>
<!-- Node1&#45;&gt;Node5 -->
<g id="edge4_Node000001_Node000005" class="edge">
<title>Node1&#45;&gt;Node5</title>
<g id="a_edge4_Node000001_Node000005"><a xlink:title=" ">
<path fill="none" stroke="#63b8ff" d="M147.63,-56.34C163.99,-47.97 187.78,-35.79 206.48,-26.22"/>
<polygon fill="#63b8ff" stroke="#63b8ff" points="207.88,-29.44 215.19,-21.77 204.69,-23.21 207.88,-29.44"/>
</a>
</g>
</g>
</g>
</svg>
