<?xml version="1.0" encoding="UTF-8" standalone="no"?>
<!DOCTYPE svg PUBLIC "-//W3C//DTD SVG 1.1//EN"
 "http://www.w3.org/Graphics/SVG/1.1/DTD/svg11.dtd">
<!-- Generated by graphviz version 12.2.1 (0)
 -->
<!-- Title: src/user.h Pages: 1 -->
<svg width="154pt" height="86pt"
 viewBox="0.00 0.00 154.00 85.50" xmlns="http://www.w3.org/2000/svg" xmlns:xlink="http://www.w3.org/1999/xlink">
<g id="graph0" class="graph" transform="scale(1 1) rotate(0) translate(4 81.5)">
<title>src/user.h</title>
<!-- Node1 -->
<g id="Node000001" class="node">
<title>Node1</title>
<g id="a_Node000001"><a xlink:title=" ">
<polygon fill="#999999" stroke="#666666" points="105.38,-77.5 42.88,-77.5 42.88,-56.75 105.38,-56.75 105.38,-77.5"/>
<text text-anchor="middle" x="74.12" y="-64" font-family="Helvetica,sans-Serif" font-size="10.00">src/user.h</text>
</a>
</g>
</g>
<!-- Node2 -->
<g id="Node000002" class="node">
<title>Node2</title>
<g id="a_Node000002"><a xlink:href="main_8c.html" target="_top" xlink:title=" ">
<polygon fill="white" stroke="#666666" points="66.25,-20.75 0,-20.75 0,0 66.25,0 66.25,-20.75"/>
<text text-anchor="middle" x="33.12" y="-7.25" font-family="Helvetica,sans-Serif" font-size="10.00">src/main.c</text>
</a>
</g>
</g>
<!-- Node1&#45;&gt;Node2 -->
<g id="edge1_Node000001_Node000002" class="edge">
<title>Node1&#45;&gt;Node2</title>
<g id="a_edge1_Node000001_Node000002"><a xlink:title=" ">
<path fill="none" stroke="#63b8ff" d="M59.93,-47.17C53.35,-38.38 45.8,-28.3 40.39,-21.08"/>
<polygon fill="#63b8ff" stroke="#63b8ff" points="57.09,-49.22 65.89,-55.13 62.7,-45.02 57.09,-49.22"/>
</a>
</g>
</g>
<!-- Node3 -->
<g id="Node000003" class="node">
<title>Node3</title>
<g id="a_Node000003"><a xlink:href="user_8c.html" target="_top" xlink:title=" ">
<polygon fill="white" stroke="#666666" points="146,-20.75 84.25,-20.75 84.25,0 146,0 146,-20.75"/>
<text text-anchor="middle" x="115.12" y="-7.25" font-family="Helvetica,sans-Serif" font-size="10.00">src/user.c</text>
</a>
</g>
</g>
<!-- Node1&#45;&gt;Node3 -->
<g id="edge2_Node000001_Node000003" class="edge">
<title>Node1&#45;&gt;Node3</title>
<g id="a_edge2_Node000001_Node000003"><a xlink:title=" ">
<path fill="none" stroke="#63b8ff" d="M88.32,-47.17C94.9,-38.38 102.45,-28.3 107.86,-21.08"/>
<polygon fill="#63b8ff" stroke="#63b8ff" points="85.55,-45.02 82.36,-55.13 91.16,-49.22 85.55,-45.02"/>
</a>
</g>
</g>
</g>
</svg>
