<?xml version="1.0" encoding="UTF-8" standalone="no"?>
<!DOCTYPE svg PUBLIC "-//W3C//DTD SVG 1.1//EN"
 "http://www.w3.org/Graphics/SVG/1.1/DTD/svg11.dtd">
<!-- Generated by graphviz version 12.2.1 (0)
 -->
<!-- Title: src/user.h Pages: 1 -->
<svg width="354pt" height="86pt"
 viewBox="0.00 0.00 354.38 85.50" xmlns="http://www.w3.org/2000/svg" xmlns:xlink="http://www.w3.org/1999/xlink">
<g id="graph0" class="graph" transform="scale(1 1) rotate(0) translate(4 81.5)">
<title>src/user.h</title>
<!-- Node1 -->
<g id="Node000001" class="node">
<title>Node1</title>
<g id="a_Node000001"><a xlink:title="Модуль для работы с юзером">
<polygon fill="#999999" stroke="#666666" points="209.5,-77.5 147,-77.5 147,-56.75 209.5,-56.75 209.5,-77.5"/>
<text text-anchor="middle" x="178.25" y="-64" font-family="Helvetica,sans-Serif" font-size="10.00">src/user.h</text>
</a>
</g>
</g>
<!-- Node2 -->
<g id="Node000002" class="node">
<title>Node2</title>
<g id="a_Node000002"><a xlink:title=" ">
<polygon fill="#e0e0e0" stroke="#999999" points="56.5,-20.75 0,-20.75 0,0 56.5,0 56.5,-20.75"/>
<text text-anchor="middle" x="28.25" y="-7.25" font-family="Helvetica,sans-Serif" font-size="10.00">getopt.h</text>
</a>
</g>
</g>
<!-- Node1&#45;&gt;Node2 -->
<g id="edge1_Node000001_Node000002" class="edge">
<title>Node1&#45;&gt;Node2</title>
<g id="a_edge1_Node000001_Node000002"><a xlink:title=" ">
<path fill="none" stroke="#63b8ff" d="M151.43,-56.34C127.51,-47.61 92.25,-34.73 65.57,-25"/>
<polygon fill="#63b8ff" stroke="#63b8ff" points="67.1,-21.83 56.51,-21.69 64.7,-28.41 67.1,-21.83"/>
</a>
</g>
</g>
<!-- Node3 -->
<g id="Node000003" class="node">
<title>Node3</title>
<g id="a_Node000003"><a xlink:title=" ">
<polygon fill="#e0e0e0" stroke="#999999" points="135.75,-20.75 74.75,-20.75 74.75,0 135.75,0 135.75,-20.75"/>
<text text-anchor="middle" x="105.25" y="-7.25" font-family="Helvetica,sans-Serif" font-size="10.00">stdbool.h</text>
</a>
</g>
</g>
<!-- Node1&#45;&gt;Node3 -->
<g id="edge2_Node000001_Node000003" class="edge">
<title>Node1&#45;&gt;Node3</title>
<g id="a_edge2_Node000001_Node000003"><a xlink:title=" ">
<path fill="none" stroke="#63b8ff" d="M165.2,-56.34C154.61,-48.4 139.46,-37.03 127.03,-27.71"/>
<polygon fill="#63b8ff" stroke="#63b8ff" points="129.5,-25.19 119.4,-21.99 125.3,-30.79 129.5,-25.19"/>
</a>
</g>
</g>
<!-- Node4 -->
<g id="Node000004" class="node">
<title>Node4</title>
<g id="a_Node000004"><a xlink:title=" ">
<polygon fill="#e0e0e0" stroke="#999999" points="202.75,-20.75 153.75,-20.75 153.75,0 202.75,0 202.75,-20.75"/>
<text text-anchor="middle" x="178.25" y="-7.25" font-family="Helvetica,sans-Serif" font-size="10.00">stdio.h</text>
</a>
</g>
</g>
<!-- Node1&#45;&gt;Node4 -->
<g id="edge3_Node000001_Node000004" class="edge">
<title>Node1&#45;&gt;Node4</title>
<g id="a_edge3_Node000001_Node000004"><a xlink:title=" ">
<path fill="none" stroke="#63b8ff" d="M178.25,-56.34C178.25,-49.72 178.25,-40.72 178.25,-32.52"/>
<polygon fill="#63b8ff" stroke="#63b8ff" points="181.75,-32.59 178.25,-22.59 174.75,-32.59 181.75,-32.59"/>
</a>
</g>
</g>
<!-- Node5 -->
<g id="Node000005" class="node">
<title>Node5</title>
<g id="a_Node000005"><a xlink:title=" ">
<polygon fill="#e0e0e0" stroke="#999999" points="273.62,-20.75 220.88,-20.75 220.88,0 273.62,0 273.62,-20.75"/>
<text text-anchor="middle" x="247.25" y="-7.25" font-family="Helvetica,sans-Serif" font-size="10.00">string.h</text>
</a>
</g>
</g>
<!-- Node1&#45;&gt;Node5 -->
<g id="edge4_Node000001_Node000005" class="edge">
<title>Node1&#45;&gt;Node5</title>
<g id="a_edge4_Node000001_Node000005"><a xlink:title=" ">
<path fill="none" stroke="#63b8ff" d="M190.59,-56.34C200.5,-48.47 214.64,-37.25 226.31,-27.99"/>
<polygon fill="#63b8ff" stroke="#63b8ff" points="228.18,-30.98 233.84,-22.02 223.83,-25.49 228.18,-30.98"/>
</a>
</g>
</g>
<!-- Node6 -->
<g id="Node000006" class="node">
<title>Node6</title>
<g id="a_Node000006"><a xlink:href="config_8h.html" target="_top" xlink:title="Конфигурация">
<polygon fill="white" stroke="#666666" points="346.38,-20.75 292.12,-20.75 292.12,0 346.38,0 346.38,-20.75"/>
<text text-anchor="middle" x="319.25" y="-7.25" font-family="Helvetica,sans-Serif" font-size="10.00">config.h</text>
</a>
</g>
</g>
<!-- Node1&#45;&gt;Node6 -->
<g id="edge5_Node000001_Node000006" class="edge">
<title>Node1&#45;&gt;Node6</title>
<g id="a_edge5_Node000001_Node000006"><a xlink:title=" ">
<path fill="none" stroke="#63b8ff" d="M203.46,-56.34C225.81,-47.66 258.71,-34.88 283.73,-25.17"/>
<polygon fill="#63b8ff" stroke="#63b8ff" points="284.79,-28.51 292.85,-21.63 282.26,-21.98 284.79,-28.51"/>
</a>
</g>
</g>
</g>
</svg>
