<?xml version="1.0" encoding="UTF-8" standalone="no"?>
<!DOCTYPE svg PUBLIC "-//W3C//DTD SVG 1.1//EN"
 "http://www.w3.org/Graphics/SVG/1.1/DTD/svg11.dtd">
<!-- Generated by graphviz version 12.2.1 (0)
 -->
<!-- Title: src/user.c Pages: 1 -->
<svg width="354pt" height="142pt"
 viewBox="0.00 0.00 354.38 142.25" xmlns="http://www.w3.org/2000/svg" xmlns:xlink="http://www.w3.org/1999/xlink">
<g id="graph0" class="graph" transform="scale(1 1) rotate(0) translate(4 138.25)">
<title>src/user.c</title>
<!-- Node1 -->
<g id="Node000001" class="node">
<title>Node1</title>
<g id="a_Node000001"><a xlink:title=" ">
<polygon fill="#999999" stroke="#666666" points="209.12,-134.25 147.38,-134.25 147.38,-113.5 209.12,-113.5 209.12,-134.25"/>
<text text-anchor="middle" x="178.25" y="-120.75" font-family="Helvetica,sans-Serif" font-size="10.00">src/user.c</text>
</a>
</g>
</g>
<!-- Node2 -->
<g id="Node000002" class="node">
<title>Node2</title>
<g id="a_Node000002"><a xlink:href="user_8h.html" target="_top" xlink:title="Модуль для работы с юзером">
<polygon fill="white" stroke="#666666" points="200.88,-77.5 155.62,-77.5 155.62,-56.75 200.88,-56.75 200.88,-77.5"/>
<text text-anchor="middle" x="178.25" y="-64" font-family="Helvetica,sans-Serif" font-size="10.00">user.h</text>
</a>
</g>
</g>
<!-- Node1&#45;&gt;Node2 -->
<g id="edge1_Node000001_Node000002" class="edge">
<title>Node1&#45;&gt;Node2</title>
<g id="a_edge1_Node000001_Node000002"><a xlink:title=" ">
<path fill="none" stroke="#63b8ff" d="M178.25,-113.09C178.25,-106.47 178.25,-97.47 178.25,-89.27"/>
<polygon fill="#63b8ff" stroke="#63b8ff" points="181.75,-89.34 178.25,-79.34 174.75,-89.34 181.75,-89.34"/>
</a>
</g>
</g>
<!-- Node3 -->
<g id="Node000003" class="node">
<title>Node3</title>
<g id="a_Node000003"><a xlink:title=" ">
<polygon fill="#e0e0e0" stroke="#999999" points="56.5,-20.75 0,-20.75 0,0 56.5,0 56.5,-20.75"/>
<text text-anchor="middle" x="28.25" y="-7.25" font-family="Helvetica,sans-Serif" font-size="10.00">getopt.h</text>
</a>
</g>
</g>
<!-- Node2&#45;&gt;Node3 -->
<g id="edge2_Node000002_Node000003" class="edge">
<title>Node2&#45;&gt;Node3</title>
<g id="a_edge2_Node000002_Node000003"><a xlink:title=" ">
<path fill="none" stroke="#63b8ff" d="M155.14,-57.69C131.34,-49 93.88,-35.33 65.82,-25.09"/>
<polygon fill="#63b8ff" stroke="#63b8ff" points="67.21,-21.87 56.61,-21.73 64.81,-28.44 67.21,-21.87"/>
</a>
</g>
</g>
<!-- Node4 -->
<g id="Node000004" class="node">
<title>Node4</title>
<g id="a_Node000004"><a xlink:title=" ">
<polygon fill="#e0e0e0" stroke="#999999" points="135.75,-20.75 74.75,-20.75 74.75,0 135.75,0 135.75,-20.75"/>
<text text-anchor="middle" x="105.25" y="-7.25" font-family="Helvetica,sans-Serif" font-size="10.00">stdbool.h</text>
</a>
</g>
</g>
<!-- Node2&#45;&gt;Node4 -->
<g id="edge3_Node000002_Node000004" class="edge">
<title>Node2&#45;&gt;Node4</title>
<g id="a_edge3_Node000002_Node000004"><a xlink:title=" ">
<path fill="none" stroke="#63b8ff" d="M165.2,-56.34C154.61,-48.4 139.46,-37.03 127.03,-27.71"/>
<polygon fill="#63b8ff" stroke="#63b8ff" points="129.5,-25.19 119.4,-21.99 125.3,-30.79 129.5,-25.19"/>
</a>
</g>
</g>
<!-- Node5 -->
<g id="Node000005" class="node">
<title>Node5</title>
<g id="a_Node000005"><a xlink:title=" ">
<polygon fill="#e0e0e0" stroke="#999999" points="202.75,-20.75 153.75,-20.75 153.75,0 202.75,0 202.75,-20.75"/>
<text text-anchor="middle" x="178.25" y="-7.25" font-family="Helvetica,sans-Serif" font-size="10.00">stdio.h</text>
</a>
</g>
</g>
<!-- Node2&#45;&gt;Node5 -->
<g id="edge4_Node000002_Node000005" class="edge">
<title>Node2&#45;&gt;Node5</title>
<g id="a_edge4_Node000002_Node000005"><a xlink:title=" ">
<path fill="none" stroke="#63b8ff" d="M178.25,-56.34C178.25,-49.72 178.25,-40.72 178.25,-32.52"/>
<polygon fill="#63b8ff" stroke="#63b8ff" points="181.75,-32.59 178.25,-22.59 174.75,-32.59 181.75,-32.59"/>
</a>
</g>
</g>
<!-- Node6 -->
<g id="Node000006" class="node">
<title>Node6</title>
<g id="a_Node000006"><a xlink:title=" ">
<polygon fill="#e0e0e0" stroke="#999999" points="273.62,-20.75 220.88,-20.75 220.88,0 273.62,0 273.62,-20.75"/>
<text text-anchor="middle" x="247.25" y="-7.25" font-family="Helvetica,sans-Serif" font-size="10.00">string.h</text>
</a>
</g>
</g>
<!-- Node2&#45;&gt;Node6 -->
<g id="edge5_Node000002_Node000006" class="edge">
<title>Node2&#45;&gt;Node6</title>
<g id="a_edge5_Node000002_Node000006"><a xlink:title=" ">
<path fill="none" stroke="#63b8ff" d="M190.59,-56.34C200.5,-48.47 214.64,-37.25 226.31,-27.99"/>
<polygon fill="#63b8ff" stroke="#63b8ff" points="228.18,-30.98 233.84,-22.02 223.83,-25.49 228.18,-30.98"/>
</a>
</g>
</g>
<!-- Node7 -->
<g id="Node000007" class="node">
<title>Node7</title>
<g id="a_Node000007"><a xlink:href="config_8h.html" target="_top" xlink:title="Конфигурация">
<polygon fill="white" stroke="#666666" points="346.38,-20.75 292.12,-20.75 292.12,0 346.38,0 346.38,-20.75"/>
<text text-anchor="middle" x="319.25" y="-7.25" font-family="Helvetica,sans-Serif" font-size="10.00">config.h</text>
</a>
</g>
</g>
<!-- Node2&#45;&gt;Node7 -->
<g id="edge6_Node000002_Node000007" class="edge">
<title>Node2&#45;&gt;Node7</title>
<g id="a_edge6_Node000002_Node000007"><a xlink:title=" ">
<path fill="none" stroke="#63b8ff" d="M201.22,-57.21C223.48,-48.56 257.57,-35.33 283.4,-25.29"/>
<polygon fill="#63b8ff" stroke="#63b8ff" points="284.44,-28.65 292.5,-21.76 281.91,-22.12 284.44,-28.65"/>
</a>
</g>
</g>
</g>
</svg>
