<?xml version="1.0" encoding="UTF-8" standalone="no"?>
<!DOCTYPE svg PUBLIC "-//W3C//DTD SVG 1.1//EN"
 "http://www.w3.org/Graphics/SVG/1.1/DTD/svg11.dtd">
<!-- Generated by graphviz version 12.2.1 (0)
 -->
<!-- Title: yt_dlp Pages: 1 -->
<svg width="473pt" height="107pt"
 viewBox="0.00 0.00 473.25 106.75" xmlns="http://www.w3.org/2000/svg" xmlns:xlink="http://www.w3.org/1999/xlink">
<g id="graph0" class="graph" transform="scale(1 1) rotate(0) translate(4 102.75)">
<title>yt_dlp</title>
<!-- Node1 -->
<g id="Node000001" class="node">
<title>Node1</title>
<g id="a_Node000001"><a xlink:title="Скачка url с запрошенным режимом">
<polygon fill="#999999" stroke="#666666" points="46,-39.75 0,-39.75 0,-19 46,-19 46,-39.75"/>
<text text-anchor="middle" x="23" y="-26.25" font-family="Helvetica,sans-Serif" font-size="10.00">yt_dlp</text>
</a>
</g>
</g>
<!-- Node2 -->
<g id="Node000002" class="node">
<title>Node2</title>
<g id="a_Node000002"><a xlink:href="yt__dlp_8c.html#aac411bed2012a2feac84bce1d514d1c7" target="_top" xlink:title="Получение и обработка ID видео из плейлиста">
<polygon fill="white" stroke="#666666" points="196.25,-58.75 82,-58.75 82,-38 196.25,-38 196.25,-58.75"/>
<text text-anchor="middle" x="139.12" y="-45.25" font-family="Helvetica,sans-Serif" font-size="10.00">process_playlist_ids</text>
</a>
</g>
</g>
<!-- Node1&#45;&gt;Node2 -->
<g id="edge1_Node000001_Node000002" class="edge">
<title>Node1&#45;&gt;Node2</title>
<g id="a_edge1_Node000001_Node000002"><a xlink:title=" ">
<path fill="none" stroke="#63b8ff" d="M46.28,-33.08C53.48,-34.28 61.89,-35.68 70.63,-37.14"/>
<polygon fill="#63b8ff" stroke="#63b8ff" points="69.88,-40.56 80.32,-38.75 71.03,-33.66 69.88,-40.56"/>
</a>
</g>
</g>
<!-- Node6 -->
<g id="Node000006" class="node">
<title>Node6</title>
<g id="a_Node000006"><a xlink:href="yt__dlp_8c.html#ae0f89d7d0a43f9be78538dafce7b4e3a" target="_top" xlink:title="Обёртка вокруг консольной команды yt&#45;dlp.">
<polygon fill="white" stroke="#666666" points="326.25,-20.75 259.25,-20.75 259.25,0 326.25,0 326.25,-20.75"/>
<text text-anchor="middle" x="292.75" y="-7.25" font-family="Helvetica,sans-Serif" font-size="10.00">run_yt_dlp</text>
</a>
</g>
</g>
<!-- Node1&#45;&gt;Node6 -->
<g id="edge7_Node000001_Node000006" class="edge">
<title>Node1&#45;&gt;Node6</title>
<g id="a_edge7_Node000001_Node000006"><a xlink:title=" ">
<path fill="none" stroke="#63b8ff" d="M46.37,-27.79C90.58,-24.65 189.87,-17.6 247.68,-13.5"/>
<polygon fill="#63b8ff" stroke="#63b8ff" points="247.77,-17 257.5,-12.81 247.28,-10.02 247.77,-17"/>
</a>
</g>
</g>
<!-- Node3 -->
<g id="Node000003" class="node">
<title>Node3</title>
<g id="a_Node000003"><a xlink:href="fs_8c.html#a65ecb49246f4d74a183116704b7968a0" target="_top" xlink:title="Проверка, есть ли ID видео в логе">
<polygon fill="white" stroke="#666666" points="353.25,-98.75 232.25,-98.75 232.25,-78 353.25,-78 353.25,-98.75"/>
<text text-anchor="middle" x="292.75" y="-85.25" font-family="Helvetica,sans-Serif" font-size="10.00">is_video_downloaded</text>
</a>
</g>
</g>
<!-- Node2&#45;&gt;Node3 -->
<g id="edge2_Node000002_Node000003" class="edge">
<title>Node2&#45;&gt;Node3</title>
<g id="a_edge2_Node000002_Node000003"><a xlink:title=" ">
<path fill="none" stroke="#63b8ff" d="M181.16,-59.2C199.19,-63.96 220.58,-69.6 239.72,-74.65"/>
<polygon fill="#63b8ff" stroke="#63b8ff" points="238.66,-77.99 249.22,-77.16 240.45,-71.22 238.66,-77.99"/>
</a>
</g>
</g>
<!-- Node5 -->
<g id="Node000005" class="node">
<title>Node5</title>
<g id="a_Node000005"><a xlink:href="fs_8c.html#ac7135dd56474a60b51b7121ced937914" target="_top" xlink:title="Запись ID видео в лог">
<polygon fill="white" stroke="#666666" points="331.5,-59.75 254,-59.75 254,-39 331.5,-39 331.5,-59.75"/>
<text text-anchor="middle" x="292.75" y="-46.25" font-family="Helvetica,sans-Serif" font-size="10.00">log_video_id</text>
</a>
</g>
</g>
<!-- Node2&#45;&gt;Node5 -->
<g id="edge4_Node000002_Node000005" class="edge">
<title>Node2&#45;&gt;Node5</title>
<g id="a_edge4_Node000002_Node000005"><a xlink:title=" ">
<path fill="none" stroke="#63b8ff" d="M196.58,-48.75C211.6,-48.85 227.7,-48.95 242.31,-49.05"/>
<polygon fill="#63b8ff" stroke="#63b8ff" points="242.12,-52.55 252.14,-49.11 242.16,-45.55 242.12,-52.55"/>
</a>
</g>
</g>
<!-- Node2&#45;&gt;Node6 -->
<g id="edge6_Node000002_Node000006" class="edge">
<title>Node2&#45;&gt;Node6</title>
<g id="a_edge6_Node000002_Node000006"><a xlink:title=" ">
<path fill="none" stroke="#63b8ff" d="M183.17,-37.59C203.56,-32.48 227.86,-26.39 248.3,-21.26"/>
<polygon fill="#63b8ff" stroke="#63b8ff" points="248.89,-24.72 257.74,-18.9 247.19,-17.93 248.89,-24.72"/>
</a>
</g>
</g>
<!-- Node4 -->
<g id="Node000004" class="node">
<title>Node4</title>
<g id="a_Node000004"><a xlink:href="fs_8c.html#a4a32ecc47e89ae484b2b1cbec95cfdf0" target="_top" xlink:title="Возвращает указатель на путь к DRAY_LOG.">
<polygon fill="white" stroke="#666666" points="465.25,-78.75 389.25,-78.75 389.25,-58 465.25,-58 465.25,-78.75"/>
<text text-anchor="middle" x="427.25" y="-65.25" font-family="Helvetica,sans-Serif" font-size="10.00">drayLogPath</text>
</a>
</g>
</g>
<!-- Node3&#45;&gt;Node4 -->
<g id="edge3_Node000003_Node000004" class="edge">
<title>Node3&#45;&gt;Node4</title>
<g id="a_edge3_Node000003_Node000004"><a xlink:title=" ">
<path fill="none" stroke="#63b8ff" d="M353.41,-79.37C361.53,-78.14 369.79,-76.9 377.68,-75.71"/>
<polygon fill="#63b8ff" stroke="#63b8ff" points="378.07,-79.19 387.44,-74.23 377.03,-72.27 378.07,-79.19"/>
</a>
</g>
</g>
<!-- Node5&#45;&gt;Node4 -->
<g id="edge5_Node000005_Node000004" class="edge">
<title>Node5&#45;&gt;Node4</title>
<g id="a_edge5_Node000005_Node000004"><a xlink:title=" ">
<path fill="none" stroke="#63b8ff" d="M331.72,-54.82C346.1,-56.88 362.67,-59.26 377.88,-61.44"/>
<polygon fill="#63b8ff" stroke="#63b8ff" points="377.3,-64.89 387.69,-62.85 378.29,-57.96 377.3,-64.89"/>
</a>
</g>
</g>
</g>
</svg>
