<?xml version="1.0" encoding="UTF-8" standalone="no"?>
<!DOCTYPE svg PUBLIC "-//W3C//DTD SVG 1.1//EN"
 "http://www.w3.org/Graphics/SVG/1.1/DTD/svg11.dtd">
<!-- Generated by graphviz version 12.2.1 (0)
 -->
<!-- Title: src/yt_dlp.c Pages: 1 -->
<svg width="601pt" height="313pt"
 viewBox="0.00 0.00 600.50 312.50" xmlns="http://www.w3.org/2000/svg" xmlns:xlink="http://www.w3.org/1999/xlink">
<g id="graph0" class="graph" transform="scale(1 1) rotate(0) translate(4 308.5)">
<title>src/yt_dlp.c</title>
<!-- Node1 -->
<g id="Node000001" class="node">
<title>Node1</title>
<g id="a_Node000001"><a xlink:title=" ">
<polygon fill="#999999" stroke="#666666" points="425.75,-304.5 354.25,-304.5 354.25,-283.75 425.75,-283.75 425.75,-304.5"/>
<text text-anchor="middle" x="390" y="-291" font-family="Helvetica,sans-Serif" font-size="10.00">src/yt_dlp.c</text>
</a>
</g>
</g>
<!-- Node2 -->
<g id="Node000002" class="node">
<title>Node2</title>
<g id="a_Node000002"><a xlink:href="yt__dlp_8h.html" target="_top" xlink:title="Модуль для работы с yt&#45;dlp.">
<polygon fill="white" stroke="#666666" points="417.5,-247.75 362.5,-247.75 362.5,-227 417.5,-227 417.5,-247.75"/>
<text text-anchor="middle" x="390" y="-234.25" font-family="Helvetica,sans-Serif" font-size="10.00">yt_dlp.h</text>
</a>
</g>
</g>
<!-- Node1&#45;&gt;Node2 -->
<g id="edge1_Node000001_Node000002" class="edge">
<title>Node1&#45;&gt;Node2</title>
<g id="a_edge1_Node000001_Node000002"><a xlink:title=" ">
<path fill="none" stroke="#63b8ff" d="M390,-283.34C390,-276.72 390,-267.72 390,-259.52"/>
<polygon fill="#63b8ff" stroke="#63b8ff" points="393.5,-259.59 390,-249.59 386.5,-259.59 393.5,-259.59"/>
</a>
</g>
</g>
<!-- Node3 -->
<g id="Node000003" class="node">
<title>Node3</title>
<g id="a_Node000003"><a xlink:title=" ">
<polygon fill="#e0e0e0" stroke="#999999" points="242.5,-20.75 193.5,-20.75 193.5,0 242.5,0 242.5,-20.75"/>
<text text-anchor="middle" x="218" y="-7.25" font-family="Helvetica,sans-Serif" font-size="10.00">stdio.h</text>
</a>
</g>
</g>
<!-- Node2&#45;&gt;Node3 -->
<g id="edge2_Node000002_Node000003" class="edge">
<title>Node2&#45;&gt;Node3</title>
<g id="a_edge2_Node000002_Node000003"><a xlink:title=" ">
<path fill="none" stroke="#63b8ff" d="M403.22,-226.6C440.12,-198.18 538.44,-113.94 490,-56.75 460.15,-21.51 320.83,-13.62 253.97,-11.86"/>
<polygon fill="#63b8ff" stroke="#63b8ff" points="254.34,-8.37 244.27,-11.64 254.18,-15.37 254.34,-8.37"/>
</a>
</g>
</g>
<!-- Node4 -->
<g id="Node000004" class="node">
<title>Node4</title>
<g id="a_Node000004"><a xlink:title=" ">
<polygon fill="#e0e0e0" stroke="#999999" points="52,-77.5 0,-77.5 0,-56.75 52,-56.75 52,-77.5"/>
<text text-anchor="middle" x="26" y="-64" font-family="Helvetica,sans-Serif" font-size="10.00">stdlib.h</text>
</a>
</g>
</g>
<!-- Node2&#45;&gt;Node4 -->
<g id="edge3_Node000002_Node000004" class="edge">
<title>Node2&#45;&gt;Node4</title>
<g id="a_edge3_Node000002_Node000004"><a xlink:title=" ">
<path fill="none" stroke="#63b8ff" d="M362.45,-236.84C297.05,-236.38 131.35,-225.71 43,-134.25 31.41,-122.25 27.42,-103.45 26.19,-88.96"/>
<polygon fill="#63b8ff" stroke="#63b8ff" points="29.69,-88.96 25.75,-79.13 22.7,-89.27 29.69,-88.96"/>
</a>
</g>
</g>
<!-- Node5 -->
<g id="Node000005" class="node">
<title>Node5</title>
<g id="a_Node000005"><a xlink:title=" ">
<polygon fill="#e0e0e0" stroke="#999999" points="408.38,-77.5 355.62,-77.5 355.62,-56.75 408.38,-56.75 408.38,-77.5"/>
<text text-anchor="middle" x="382" y="-64" font-family="Helvetica,sans-Serif" font-size="10.00">string.h</text>
</a>
</g>
</g>
<!-- Node2&#45;&gt;Node5 -->
<g id="edge4_Node000002_Node000005" class="edge">
<title>Node2&#45;&gt;Node5</title>
<g id="a_edge4_Node000002_Node000005"><a xlink:title=" ">
<path fill="none" stroke="#63b8ff" d="M389.55,-226.85C388.29,-200.48 384.76,-126.08 383.01,-89.28"/>
<polygon fill="#63b8ff" stroke="#63b8ff" points="386.51,-89.3 382.54,-79.48 379.52,-89.63 386.51,-89.3"/>
</a>
</g>
</g>
<!-- Node6 -->
<g id="Node000006" class="node">
<title>Node6</title>
<g id="a_Node000006"><a xlink:title=" ">
<polygon fill="#e0e0e0" stroke="#999999" points="592.5,-191 537.5,-191 537.5,-170.25 592.5,-170.25 592.5,-191"/>
<text text-anchor="middle" x="565" y="-177.5" font-family="Helvetica,sans-Serif" font-size="10.00">unistd.h</text>
</a>
</g>
</g>
<!-- Node2&#45;&gt;Node6 -->
<g id="edge5_Node000002_Node000006" class="edge">
<title>Node2&#45;&gt;Node6</title>
<g id="a_edge5_Node000002_Node000006"><a xlink:title=" ">
<path fill="none" stroke="#63b8ff" d="M417.73,-227.7C447.08,-218.52 493.63,-203.95 526.52,-193.66"/>
<polygon fill="#63b8ff" stroke="#63b8ff" points="527.17,-197.13 535.67,-190.8 525.08,-190.45 527.17,-197.13"/>
</a>
</g>
</g>
<!-- Node7 -->
<g id="Node000007" class="node">
<title>Node7</title>
<g id="a_Node000007"><a xlink:href="cfg_8h.html" target="_top" xlink:title="Анализирует конфигурацию в config.ini.">
<polygon fill="white" stroke="#666666" points="286,-134.25 246,-134.25 246,-113.5 286,-113.5 286,-134.25"/>
<text text-anchor="middle" x="266" y="-120.75" font-family="Helvetica,sans-Serif" font-size="10.00">cfg.h</text>
</a>
</g>
</g>
<!-- Node2&#45;&gt;Node7 -->
<g id="edge6_Node000002_Node000007" class="edge">
<title>Node2&#45;&gt;Node7</title>
<g id="a_edge6_Node000002_Node000007"><a xlink:title=" ">
<path fill="none" stroke="#63b8ff" d="M379.43,-226.87C358.58,-208.12 311.88,-166.13 285.36,-142.28"/>
<polygon fill="#63b8ff" stroke="#63b8ff" points="287.8,-139.77 278.02,-135.69 283.12,-144.98 287.8,-139.77"/>
</a>
</g>
</g>
<!-- Node10 -->
<g id="Node000010" class="node">
<title>Node10</title>
<g id="a_Node000010"><a xlink:href="config_8h.html" target="_top" xlink:title="Константы">
<polygon fill="white" stroke="#666666" points="481.12,-77.5 426.88,-77.5 426.88,-56.75 481.12,-56.75 481.12,-77.5"/>
<text text-anchor="middle" x="454" y="-64" font-family="Helvetica,sans-Serif" font-size="10.00">config.h</text>
</a>
</g>
</g>
<!-- Node2&#45;&gt;Node10 -->
<g id="edge15_Node000002_Node000010" class="edge">
<title>Node2&#45;&gt;Node10</title>
<g id="a_edge15_Node000002_Node000010"><a xlink:title=" ">
<path fill="none" stroke="#63b8ff" d="M393.62,-226.85C403.74,-200.25 432.45,-124.77 446.32,-88.32"/>
<polygon fill="#63b8ff" stroke="#63b8ff" points="449.43,-89.97 449.72,-79.38 442.89,-87.48 449.43,-89.97"/>
</a>
</g>
</g>
<!-- Node12 -->
<g id="Node000012" class="node">
<title>Node12</title>
<g id="a_Node000012"><a xlink:href="fs_8h.html" target="_top" xlink:title="Модуль для работы с файловой системой">
<polygon fill="white" stroke="#666666" points="293,-191 259,-191 259,-170.25 293,-170.25 293,-191"/>
<text text-anchor="middle" x="276" y="-177.5" font-family="Helvetica,sans-Serif" font-size="10.00">fs.h</text>
</a>
</g>
</g>
<!-- Node2&#45;&gt;Node12 -->
<g id="edge16_Node000002_Node000012" class="edge">
<title>Node2&#45;&gt;Node12</title>
<g id="a_edge16_Node000002_Node000012"><a xlink:title=" ">
<path fill="none" stroke="#63b8ff" d="M369.62,-226.59C351.16,-217.72 323.82,-204.59 303.44,-194.81"/>
<polygon fill="#63b8ff" stroke="#63b8ff" points="305.12,-191.73 294.59,-190.55 302.09,-198.04 305.12,-191.73"/>
</a>
</g>
</g>
<!-- Node7&#45;&gt;Node3 -->
<g id="edge9_Node000007_Node000003" class="edge">
<title>Node7&#45;&gt;Node3</title>
<g id="a_edge9_Node000007_Node000003"><a xlink:title=" ">
<path fill="none" stroke="#63b8ff" d="M245.67,-122.5C216.04,-120.73 161.84,-112.57 137,-77.5 120.76,-54.58 153.75,-35.21 182.38,-23.47"/>
<polygon fill="#63b8ff" stroke="#63b8ff" points="183.55,-26.77 191.62,-19.9 181.03,-20.24 183.55,-26.77"/>
</a>
</g>
</g>
<!-- Node7&#45;&gt;Node4 -->
<g id="edge10_Node000007_Node000004" class="edge">
<title>Node7&#45;&gt;Node4</title>
<g id="a_edge10_Node000007_Node000004"><a xlink:title=" ">
<path fill="none" stroke="#63b8ff" d="M245.54,-118.21C205.07,-108.98 114.3,-88.27 63.05,-76.58"/>
<polygon fill="#63b8ff" stroke="#63b8ff" points="64.14,-73.24 53.62,-74.43 62.59,-80.06 64.14,-73.24"/>
</a>
</g>
</g>
<!-- Node7&#45;&gt;Node5 -->
<g id="edge11_Node000007_Node000005" class="edge">
<title>Node7&#45;&gt;Node5</title>
<g id="a_edge11_Node000007_Node000005"><a xlink:title=" ">
<path fill="none" stroke="#63b8ff" d="M286.47,-113.21C304.33,-104.78 330.52,-92.42 350.96,-82.78"/>
<polygon fill="#63b8ff" stroke="#63b8ff" points="352.42,-85.95 359.97,-78.52 349.44,-79.62 352.42,-85.95"/>
</a>
</g>
</g>
<!-- Node8 -->
<g id="Node000008" class="node">
<title>Node8</title>
<g id="a_Node000008"><a xlink:title=" ">
<polygon fill="#e0e0e0" stroke="#999999" points="207.5,-77.5 146.5,-77.5 146.5,-56.75 207.5,-56.75 207.5,-77.5"/>
<text text-anchor="middle" x="177" y="-64" font-family="Helvetica,sans-Serif" font-size="10.00">stdbool.h</text>
</a>
</g>
</g>
<!-- Node7&#45;&gt;Node8 -->
<g id="edge7_Node000007_Node000008" class="edge">
<title>Node7&#45;&gt;Node8</title>
<g id="a_edge7_Node000007_Node000008"><a xlink:title=" ">
<path fill="none" stroke="#63b8ff" d="M250.09,-113.09C236.8,-104.91 217.61,-93.11 202.23,-83.65"/>
<polygon fill="#63b8ff" stroke="#63b8ff" points="204.41,-80.88 194.06,-78.62 200.75,-86.84 204.41,-80.88"/>
</a>
</g>
</g>
<!-- Node9 -->
<g id="Node000009" class="node">
<title>Node9</title>
<g id="a_Node000009"><a xlink:title=" ">
<polygon fill="#e0e0e0" stroke="#999999" points="282.25,-77.5 225.75,-77.5 225.75,-56.75 282.25,-56.75 282.25,-77.5"/>
<text text-anchor="middle" x="254" y="-64" font-family="Helvetica,sans-Serif" font-size="10.00">getopt.h</text>
</a>
</g>
</g>
<!-- Node7&#45;&gt;Node9 -->
<g id="edge8_Node000007_Node000009" class="edge">
<title>Node7&#45;&gt;Node9</title>
<g id="a_edge8_Node000007_Node000009"><a xlink:title=" ">
<path fill="none" stroke="#63b8ff" d="M263.85,-113.09C262.39,-106.39 260.39,-97.26 258.57,-88.98"/>
<polygon fill="#63b8ff" stroke="#63b8ff" points="262.01,-88.33 256.45,-79.31 255.17,-89.82 262.01,-88.33"/>
</a>
</g>
</g>
<!-- Node7&#45;&gt;Node10 -->
<g id="edge12_Node000007_Node000010" class="edge">
<title>Node7&#45;&gt;Node10</title>
<g id="a_edge12_Node000007_Node000010"><a xlink:title=" ">
<path fill="none" stroke="#63b8ff" d="M286.48,-116.91C317.4,-107.91 376.54,-90.68 415.63,-79.3"/>
<polygon fill="#63b8ff" stroke="#63b8ff" points="416.5,-82.69 425.12,-76.53 414.54,-75.97 416.5,-82.69"/>
</a>
</g>
</g>
<!-- Node11 -->
<g id="Node000011" class="node">
<title>Node11</title>
<g id="a_Node000011"><a xlink:href="ini_8h.html" target="_top" xlink:title=" ">
<polygon fill="white" stroke="#666666" points="337.5,-77.5 300.5,-77.5 300.5,-56.75 337.5,-56.75 337.5,-77.5"/>
<text text-anchor="middle" x="319" y="-64" font-family="Helvetica,sans-Serif" font-size="10.00">ini.h</text>
</a>
</g>
</g>
<!-- Node7&#45;&gt;Node11 -->
<g id="edge13_Node000007_Node000011" class="edge">
<title>Node7&#45;&gt;Node11</title>
<g id="a_edge13_Node000007_Node000011"><a xlink:title=" ">
<path fill="none" stroke="#63b8ff" d="M275.48,-113.09C282.79,-105.53 293.09,-94.89 301.84,-85.85"/>
<polygon fill="#63b8ff" stroke="#63b8ff" points="304.11,-88.54 308.55,-78.92 299.08,-83.67 304.11,-88.54"/>
</a>
</g>
</g>
<!-- Node11&#45;&gt;Node3 -->
<g id="edge14_Node000011_Node000003" class="edge">
<title>Node11&#45;&gt;Node3</title>
<g id="a_edge14_Node000011_Node000003"><a xlink:title=" ">
<path fill="none" stroke="#63b8ff" d="M300.94,-56.34C285.58,-48.01 263.26,-35.91 245.64,-26.36"/>
<polygon fill="#63b8ff" stroke="#63b8ff" points="247.69,-23.49 237.23,-21.8 244.35,-29.64 247.69,-23.49"/>
</a>
</g>
</g>
<!-- Node12&#45;&gt;Node3 -->
<g id="edge17_Node000012_Node000003" class="edge">
<title>Node12&#45;&gt;Node3</title>
<g id="a_edge17_Node000012_Node000003"><a xlink:title=" ">
<path fill="none" stroke="#63b8ff" d="M258.72,-173.77C226.23,-161.7 156.79,-130.65 129,-77.5 114.98,-50.69 151.73,-31.87 182.19,-21.34"/>
<polygon fill="#63b8ff" stroke="#63b8ff" points="183.15,-24.71 191.59,-18.3 180.99,-18.05 183.15,-24.71"/>
</a>
</g>
</g>
<!-- Node12&#45;&gt;Node4 -->
<g id="edge18_Node000012_Node000004" class="edge">
<title>Node12&#45;&gt;Node4</title>
<g id="a_edge18_Node000012_Node000004"><a xlink:title=" ">
<path fill="none" stroke="#63b8ff" d="M258.68,-180.29C220.27,-180.89 126.57,-177.47 66,-134.25 50.16,-122.95 39.43,-103.23 33.1,-88.26"/>
<polygon fill="#63b8ff" stroke="#63b8ff" points="36.53,-87.42 29.66,-79.36 30.01,-89.95 36.53,-87.42"/>
</a>
</g>
</g>
<!-- Node12&#45;&gt;Node5 -->
<g id="edge19_Node000012_Node000005" class="edge">
<title>Node12&#45;&gt;Node5</title>
<g id="a_edge19_Node000012_Node000005"><a xlink:title=" ">
<path fill="none" stroke="#63b8ff" d="M284.78,-170.16C296.75,-157.28 318.89,-133.55 338,-113.5 346.68,-104.4 356.4,-94.36 364.49,-86.04"/>
<polygon fill="#63b8ff" stroke="#63b8ff" points="366.98,-88.5 371.45,-78.9 361.97,-83.62 366.98,-88.5"/>
</a>
</g>
</g>
<!-- Node12&#45;&gt;Node7 -->
<g id="edge20_Node000012_Node000007" class="edge">
<title>Node12&#45;&gt;Node7</title>
<g id="a_edge20_Node000012_Node000007"><a xlink:title=" ">
<path fill="none" stroke="#63b8ff" d="M274.21,-169.84C272.99,-163.14 271.32,-154.01 269.81,-145.73"/>
<polygon fill="#63b8ff" stroke="#63b8ff" points="273.28,-145.28 268.04,-136.07 266.4,-146.53 273.28,-145.28"/>
</a>
</g>
</g>
<!-- Node12&#45;&gt;Node10 -->
<g id="edge21_Node000012_Node000010" class="edge">
<title>Node12&#45;&gt;Node10</title>
<g id="a_edge21_Node000012_Node000010"><a xlink:title=" ">
<path fill="none" stroke="#63b8ff" d="M291.48,-169.93C322.26,-150.65 391.35,-107.37 428.77,-83.93"/>
<polygon fill="#63b8ff" stroke="#63b8ff" points="430.52,-86.96 437.14,-78.69 426.81,-81.03 430.52,-86.96"/>
</a>
</g>
</g>
</g>
</svg>
