<?xml version="1.0" encoding="UTF-8" standalone="no"?>
<!DOCTYPE svg PUBLIC "-//W3C//DTD SVG 1.1//EN"
 "http://www.w3.org/Graphics/SVG/1.1/DTD/svg11.dtd">
<!-- Generated by graphviz version 12.2.1 (0)
 -->
<!-- Title: run_yt_dlp Pages: 1 -->
<svg width="384pt" height="48pt"
 viewBox="0.00 0.00 384.00 47.75" xmlns="http://www.w3.org/2000/svg" xmlns:xlink="http://www.w3.org/1999/xlink">
<g id="graph0" class="graph" transform="scale(1 1) rotate(0) translate(4 43.75)">
<title>run_yt_dlp</title>
<!-- Node1 -->
<g id="Node000001" class="node">
<title>Node1</title>
<g id="a_Node000001"><a xlink:title="Обёртка вокруг консольной команды yt&#45;dlp.">
<polygon fill="#999999" stroke="#666666" points="376,-20.75 309,-20.75 309,0 376,0 376,-20.75"/>
<text text-anchor="middle" x="342.5" y="-7.25" font-family="Helvetica,sans-Serif" font-size="10.00">run_yt_dlp</text>
</a>
</g>
</g>
<!-- Node2 -->
<g id="Node000002" class="node">
<title>Node2</title>
<g id="a_Node000002"><a xlink:href="yt__dlp_8c.html#aac411bed2012a2feac84bce1d514d1c7" target="_top" xlink:title="Получение и обработка ID видео из плейлиста">
<polygon fill="white" stroke="#666666" points="273,-39.75 158.75,-39.75 158.75,-19 273,-19 273,-39.75"/>
<text text-anchor="middle" x="215.88" y="-26.25" font-family="Helvetica,sans-Serif" font-size="10.00">process_playlist_ids</text>
</a>
</g>
</g>
<!-- Node1&#45;&gt;Node2 -->
<g id="edge1_Node000001_Node000002" class="edge">
<title>Node1&#45;&gt;Node2</title>
<g id="a_edge1_Node000001_Node000002"><a xlink:title=" ">
<path fill="none" stroke="#63b8ff" d="M297.4,-17.1C289.66,-18.28 281.52,-19.52 273.5,-20.74"/>
<polygon fill="#63b8ff" stroke="#63b8ff" points="297.9,-20.56 307.26,-15.6 296.85,-13.64 297.9,-20.56"/>
</a>
</g>
</g>
<!-- Node3 -->
<g id="Node000003" class="node">
<title>Node3</title>
<g id="a_Node000003"><a xlink:href="yt__dlp_8c.html#ad12a3554ed1a8bd9992ac6c7ae709bdd" target="_top" xlink:title="Скачка url с запрошенным режимом">
<polygon fill="white" stroke="#666666" points="122.75,-20.75 76.75,-20.75 76.75,0 122.75,0 122.75,-20.75"/>
<text text-anchor="middle" x="99.75" y="-7.25" font-family="Helvetica,sans-Serif" font-size="10.00">yt_dlp</text>
</a>
</g>
</g>
<!-- Node1&#45;&gt;Node3 -->
<g id="edge4_Node000001_Node000003" class="edge">
<title>Node1&#45;&gt;Node3</title>
<g id="a_edge4_Node000001_Node000003"><a xlink:title=" ">
<path fill="none" stroke="#63b8ff" d="M297.08,-10.38C245.49,-10.38 162.41,-10.38 122.94,-10.38"/>
<polygon fill="#63b8ff" stroke="#63b8ff" points="297.02,-13.88 307.02,-10.38 297.02,-6.88 297.02,-13.88"/>
</a>
</g>
</g>
<!-- Node2&#45;&gt;Node3 -->
<g id="edge2_Node000002_Node000003" class="edge">
<title>Node2&#45;&gt;Node3</title>
<g id="a_edge2_Node000002_Node000003"><a xlink:title=" ">
<path fill="none" stroke="#63b8ff" d="M147.33,-18.13C138.62,-16.68 130.25,-15.29 123.06,-14.09"/>
<polygon fill="#63b8ff" stroke="#63b8ff" points="146.55,-21.55 156.99,-19.74 147.7,-14.64 146.55,-21.55"/>
</a>
</g>
</g>
<!-- Node4 -->
<g id="Node000004" class="node">
<title>Node4</title>
<g id="a_Node000004"><a xlink:href="main_8c.html#a0ddf1224851353fc92bfbff6f499fa97" target="_top" xlink:title="Точка входа в программу">
<polygon fill="white" stroke="#666666" points="40.75,-20.75 0,-20.75 0,0 40.75,0 40.75,-20.75"/>
<text text-anchor="middle" x="20.38" y="-7.25" font-family="Helvetica,sans-Serif" font-size="10.00">main</text>
</a>
</g>
</g>
<!-- Node3&#45;&gt;Node4 -->
<g id="edge3_Node000003_Node000004" class="edge">
<title>Node3&#45;&gt;Node4</title>
<g id="a_edge3_Node000003_Node000004"><a xlink:title=" ">
<path fill="none" stroke="#63b8ff" d="M65.12,-10.38C56.91,-10.38 48.39,-10.38 41.07,-10.38"/>
<polygon fill="#63b8ff" stroke="#63b8ff" points="64.86,-13.88 74.86,-10.38 64.86,-6.88 64.86,-13.88"/>
</a>
</g>
</g>
</g>
</svg>
