<?xml version="1.0" encoding="UTF-8" standalone="no"?>
<!DOCTYPE svg PUBLIC "-//W3C//DTD SVG 1.1//EN"
 "http://www.w3.org/Graphics/SVG/1.1/DTD/svg11.dtd">
<!-- Generated by graphviz version 12.2.1 (0)
 -->
<!-- Title: src/yt_dlp.c Pages: 1 -->
<svg width="421pt" height="199pt"
 viewBox="0.00 0.00 420.62 199.00" xmlns="http://www.w3.org/2000/svg" xmlns:xlink="http://www.w3.org/1999/xlink">
<g id="graph0" class="graph" transform="scale(1 1) rotate(0) translate(4 195)">
<title>src/yt_dlp.c</title>
<!-- Node1 -->
<g id="Node000001" class="node">
<title>Node1</title>
<g id="a_Node000001"><a xlink:title=" ">
<polygon fill="#999999" stroke="#666666" points="213.25,-191 141.75,-191 141.75,-170.25 213.25,-170.25 213.25,-191"/>
<text text-anchor="middle" x="177.5" y="-177.5" font-family="Helvetica,sans-Serif" font-size="10.00">src/yt_dlp.c</text>
</a>
</g>
</g>
<!-- Node2 -->
<g id="Node000002" class="node">
<title>Node2</title>
<g id="a_Node000002"><a xlink:href="yt__dlp_8h.html" target="_top" xlink:title=" ">
<polygon fill="white" stroke="#666666" points="205,-134.25 150,-134.25 150,-113.5 205,-113.5 205,-134.25"/>
<text text-anchor="middle" x="177.5" y="-120.75" font-family="Helvetica,sans-Serif" font-size="10.00">yt_dlp.h</text>
</a>
</g>
</g>
<!-- Node1&#45;&gt;Node2 -->
<g id="edge1_Node000001_Node000002" class="edge">
<title>Node1&#45;&gt;Node2</title>
<g id="a_edge1_Node000001_Node000002"><a xlink:title=" ">
<path fill="none" stroke="#63b8ff" d="M177.5,-169.84C177.5,-163.22 177.5,-154.22 177.5,-146.02"/>
<polygon fill="#63b8ff" stroke="#63b8ff" points="181,-146.09 177.5,-136.09 174,-146.09 181,-146.09"/>
</a>
</g>
</g>
<!-- Node3 -->
<g id="Node000003" class="node">
<title>Node3</title>
<g id="a_Node000003"><a xlink:title=" ">
<polygon fill="#e0e0e0" stroke="#999999" points="49,-20.75 0,-20.75 0,0 49,0 49,-20.75"/>
<text text-anchor="middle" x="24.5" y="-7.25" font-family="Helvetica,sans-Serif" font-size="10.00">stdio.h</text>
</a>
</g>
</g>
<!-- Node2&#45;&gt;Node3 -->
<g id="edge2_Node000002_Node000003" class="edge">
<title>Node2&#45;&gt;Node3</title>
<g id="a_edge2_Node000002_Node000003"><a xlink:title=" ">
<path fill="none" stroke="#63b8ff" d="M164.19,-113.18C137.97,-94.06 79.37,-51.36 47.02,-27.79"/>
<polygon fill="#63b8ff" stroke="#63b8ff" points="49.25,-25.08 39.11,-22.02 45.13,-30.74 49.25,-25.08"/>
</a>
</g>
</g>
<!-- Node4 -->
<g id="Node000004" class="node">
<title>Node4</title>
<g id="a_Node000004"><a xlink:title=" ">
<polygon fill="#e0e0e0" stroke="#999999" points="119.5,-20.75 67.5,-20.75 67.5,0 119.5,0 119.5,-20.75"/>
<text text-anchor="middle" x="93.5" y="-7.25" font-family="Helvetica,sans-Serif" font-size="10.00">stdlib.h</text>
</a>
</g>
</g>
<!-- Node2&#45;&gt;Node4 -->
<g id="edge3_Node000002_Node000004" class="edge">
<title>Node2&#45;&gt;Node4</title>
<g id="a_edge3_Node000002_Node000004"><a xlink:title=" ">
<path fill="none" stroke="#63b8ff" d="M170.34,-113.37C156.46,-94.95 125.68,-54.09 107.57,-30.05"/>
<polygon fill="#63b8ff" stroke="#63b8ff" points="110.61,-28.27 101.79,-22.38 105.02,-32.48 110.61,-28.27"/>
</a>
</g>
</g>
<!-- Node5 -->
<g id="Node000005" class="node">
<title>Node5</title>
<g id="a_Node000005"><a xlink:title=" ">
<polygon fill="#e0e0e0" stroke="#999999" points="189.88,-20.75 137.12,-20.75 137.12,0 189.88,0 189.88,-20.75"/>
<text text-anchor="middle" x="163.5" y="-7.25" font-family="Helvetica,sans-Serif" font-size="10.00">string.h</text>
</a>
</g>
</g>
<!-- Node2&#45;&gt;Node5 -->
<g id="edge4_Node000002_Node000005" class="edge">
<title>Node2&#45;&gt;Node5</title>
<g id="a_edge4_Node000002_Node000005"><a xlink:title=" ">
<path fill="none" stroke="#63b8ff" d="M176.31,-113.37C174.07,-95.52 169.18,-56.61 166.13,-32.34"/>
<polygon fill="#63b8ff" stroke="#63b8ff" points="169.64,-32.16 164.92,-22.68 162.69,-33.04 169.64,-32.16"/>
</a>
</g>
</g>
<!-- Node6 -->
<g id="Node000006" class="node">
<title>Node6</title>
<g id="a_Node000006"><a xlink:title=" ">
<polygon fill="#e0e0e0" stroke="#999999" points="329,-77.5 274,-77.5 274,-56.75 329,-56.75 329,-77.5"/>
<text text-anchor="middle" x="301.5" y="-64" font-family="Helvetica,sans-Serif" font-size="10.00">unistd.h</text>
</a>
</g>
</g>
<!-- Node2&#45;&gt;Node6 -->
<g id="edge5_Node000002_Node000006" class="edge">
<title>Node2&#45;&gt;Node6</title>
<g id="a_edge5_Node000002_Node000006"><a xlink:title=" ">
<path fill="none" stroke="#63b8ff" d="M199.67,-113.09C218.98,-104.56 247.22,-92.09 269.07,-82.44"/>
<polygon fill="#63b8ff" stroke="#63b8ff" points="270.4,-85.68 278.14,-78.44 267.58,-79.28 270.4,-85.68"/>
</a>
</g>
</g>
<!-- Node7 -->
<g id="Node000007" class="node">
<title>Node7</title>
<g id="a_Node000007"><a xlink:href="fs_8h.html" target="_top" xlink:title=" ">
<polygon fill="white" stroke="#666666" points="217.5,-77.5 183.5,-77.5 183.5,-56.75 217.5,-56.75 217.5,-77.5"/>
<text text-anchor="middle" x="200.5" y="-64" font-family="Helvetica,sans-Serif" font-size="10.00">fs.h</text>
</a>
</g>
</g>
<!-- Node2&#45;&gt;Node7 -->
<g id="edge6_Node000002_Node000007" class="edge">
<title>Node2&#45;&gt;Node7</title>
<g id="a_edge6_Node000002_Node000007"><a xlink:title=" ">
<path fill="none" stroke="#63b8ff" d="M181.61,-113.09C184.49,-106.24 188.44,-96.84 191.98,-88.4"/>
<polygon fill="#63b8ff" stroke="#63b8ff" points="195.19,-89.8 195.84,-79.22 188.74,-87.09 195.19,-89.8"/>
</a>
</g>
</g>
<!-- Node10 -->
<g id="Node000010" class="node">
<title>Node10</title>
<g id="a_Node000010"><a xlink:href="config_8h.html" target="_top" xlink:title=" ">
<polygon fill="white" stroke="#666666" points="412.62,-20.75 358.38,-20.75 358.38,0 412.62,0 412.62,-20.75"/>
<text text-anchor="middle" x="385.5" y="-7.25" font-family="Helvetica,sans-Serif" font-size="10.00">config.h</text>
</a>
</g>
</g>
<!-- Node2&#45;&gt;Node10 -->
<g id="edge13_Node000002_Node000010" class="edge">
<title>Node2&#45;&gt;Node10</title>
<g id="a_edge13_Node000002_Node000010"><a xlink:title=" ">
<path fill="none" stroke="#63b8ff" d="M188.46,-113C204.45,-99 235.53,-73.24 265.5,-56.75 291.61,-42.38 323.21,-30.64 347.43,-22.7"/>
<polygon fill="#63b8ff" stroke="#63b8ff" points="348.42,-26.06 356.89,-19.68 346.29,-19.39 348.42,-26.06"/>
</a>
</g>
</g>
<!-- Node7&#45;&gt;Node3 -->
<g id="edge8_Node000007_Node000003" class="edge">
<title>Node7&#45;&gt;Node3</title>
<g id="a_edge8_Node000007_Node000003"><a xlink:title=" ">
<path fill="none" stroke="#63b8ff" d="M183.3,-60.78C154.93,-51.95 97.72,-34.15 60.27,-22.5"/>
<polygon fill="#63b8ff" stroke="#63b8ff" points="61.38,-19.18 50.79,-19.55 59.3,-25.86 61.38,-19.18"/>
</a>
</g>
</g>
<!-- Node7&#45;&gt;Node4 -->
<g id="edge9_Node000007_Node000004" class="edge">
<title>Node7&#45;&gt;Node4</title>
<g id="a_edge9_Node000007_Node000004"><a xlink:title=" ">
<path fill="none" stroke="#63b8ff" d="M183.31,-57.33C166.96,-48.96 142.05,-36.21 122.6,-26.27"/>
<polygon fill="#63b8ff" stroke="#63b8ff" points="124.3,-23.2 113.8,-21.76 121.11,-29.43 124.3,-23.2"/>
</a>
</g>
</g>
<!-- Node7&#45;&gt;Node5 -->
<g id="edge10_Node000007_Node000005" class="edge">
<title>Node7&#45;&gt;Node5</title>
<g id="a_edge10_Node000007_Node000005"><a xlink:title=" ">
<path fill="none" stroke="#63b8ff" d="M193.89,-56.34C189.04,-49.17 182.32,-39.23 176.43,-30.51"/>
<polygon fill="#63b8ff" stroke="#63b8ff" points="179.4,-28.66 170.91,-22.33 173.6,-32.58 179.4,-28.66"/>
</a>
</g>
</g>
<!-- Node8 -->
<g id="Node000008" class="node">
<title>Node8</title>
<g id="a_Node000008"><a xlink:title=" ">
<polygon fill="#e0e0e0" stroke="#999999" points="258.75,-20.75 208.25,-20.75 208.25,0 258.75,0 258.75,-20.75"/>
<text text-anchor="middle" x="233.5" y="-7.25" font-family="Helvetica,sans-Serif" font-size="10.00">errno.h</text>
</a>
</g>
</g>
<!-- Node7&#45;&gt;Node8 -->
<g id="edge7_Node000007_Node000008" class="edge">
<title>Node7&#45;&gt;Node8</title>
<g id="a_edge7_Node000007_Node000008"><a xlink:title=" ">
<path fill="none" stroke="#63b8ff" d="M206.4,-56.34C210.67,-49.25 216.58,-39.44 221.8,-30.79"/>
<polygon fill="#63b8ff" stroke="#63b8ff" points="224.71,-32.75 226.87,-22.37 218.71,-29.13 224.71,-32.75"/>
</a>
</g>
</g>
<!-- Node9 -->
<g id="Node000009" class="node">
<title>Node9</title>
<g id="a_Node000009"><a xlink:title=" ">
<polygon fill="#e0e0e0" stroke="#999999" points="340.12,-20.75 276.88,-20.75 276.88,0 340.12,0 340.12,-20.75"/>
<text text-anchor="middle" x="308.5" y="-7.25" font-family="Helvetica,sans-Serif" font-size="10.00">sys/stat.h</text>
</a>
</g>
</g>
<!-- Node7&#45;&gt;Node9 -->
<g id="edge11_Node000007_Node000009" class="edge">
<title>Node7&#45;&gt;Node9</title>
<g id="a_edge11_Node000007_Node000009"><a xlink:title=" ">
<path fill="none" stroke="#63b8ff" d="M217.85,-57.33C234.35,-48.96 259.5,-36.21 279.13,-26.27"/>
<polygon fill="#63b8ff" stroke="#63b8ff" points="280.68,-29.4 288.02,-21.76 277.52,-23.16 280.68,-29.4"/>
</a>
</g>
</g>
<!-- Node7&#45;&gt;Node10 -->
<g id="edge12_Node000007_Node000010" class="edge">
<title>Node7&#45;&gt;Node10</title>
<g id="a_edge12_Node000007_Node000010"><a xlink:title=" ">
<path fill="none" stroke="#63b8ff" d="M217.87,-60.85C222.31,-59.5 227.08,-58.07 231.5,-56.75 270.87,-45 315.95,-31.74 347.12,-22.6"/>
<polygon fill="#63b8ff" stroke="#63b8ff" points="347.88,-26.03 356.49,-19.86 345.91,-19.31 347.88,-26.03"/>
</a>
</g>
</g>
</g>
</svg>
