<?xml version="1.0" encoding="UTF-8" standalone="no"?>
<!DOCTYPE svg PUBLIC "-//W3C//DTD SVG 1.1//EN"
 "http://www.w3.org/Graphics/SVG/1.1/DTD/svg11.dtd">
<!-- Generated by graphviz version 12.2.1 (0)
 -->
<!-- Title: process_playlist_ids Pages: 1 -->
<svg width="391pt" height="107pt"
 viewBox="0.00 0.00 391.25 106.75" xmlns="http://www.w3.org/2000/svg" xmlns:xlink="http://www.w3.org/1999/xlink">
<g id="graph0" class="graph" transform="scale(1 1) rotate(0) translate(4 102.75)">
<title>process_playlist_ids</title>
<!-- Node1 -->
<g id="Node000001" class="node">
<title>Node1</title>
<g id="a_Node000001"><a xlink:title="Получение и обработка ID видео из плейлиста">
<polygon fill="#999999" stroke="#666666" points="114.25,-59.75 0,-59.75 0,-39 114.25,-39 114.25,-59.75"/>
<text text-anchor="middle" x="57.12" y="-46.25" font-family="Helvetica,sans-Serif" font-size="10.00">process_playlist_ids</text>
</a>
</g>
</g>
<!-- Node2 -->
<g id="Node000002" class="node">
<title>Node2</title>
<g id="a_Node000002"><a xlink:href="fs_8c.html#a65ecb49246f4d74a183116704b7968a0" target="_top" xlink:title="Проверка, есть ли ID видео в логе">
<polygon fill="white" stroke="#666666" points="271.25,-98.75 150.25,-98.75 150.25,-78 271.25,-78 271.25,-98.75"/>
<text text-anchor="middle" x="210.75" y="-85.25" font-family="Helvetica,sans-Serif" font-size="10.00">is_video_downloaded</text>
</a>
</g>
</g>
<!-- Node1&#45;&gt;Node2 -->
<g id="edge1_Node000001_Node000002" class="edge">
<title>Node1&#45;&gt;Node2</title>
<g id="a_edge1_Node000001_Node000002"><a xlink:title=" ">
<path fill="none" stroke="#63b8ff" d="M100.36,-60.24C117.7,-64.7 137.99,-69.92 156.34,-74.64"/>
<polygon fill="#63b8ff" stroke="#63b8ff" points="155.46,-78.02 166.01,-77.12 157.2,-71.24 155.46,-78.02"/>
</a>
</g>
</g>
<!-- Node4 -->
<g id="Node000004" class="node">
<title>Node4</title>
<g id="a_Node000004"><a xlink:href="fs_8c.html#ac7135dd56474a60b51b7121ced937914" target="_top" xlink:title="Запись ID видео в лог">
<polygon fill="white" stroke="#666666" points="249.5,-59.75 172,-59.75 172,-39 249.5,-39 249.5,-59.75"/>
<text text-anchor="middle" x="210.75" y="-46.25" font-family="Helvetica,sans-Serif" font-size="10.00">log_video_id</text>
</a>
</g>
</g>
<!-- Node1&#45;&gt;Node4 -->
<g id="edge3_Node000001_Node000004" class="edge">
<title>Node1&#45;&gt;Node4</title>
<g id="a_edge3_Node000001_Node000004"><a xlink:title=" ">
<path fill="none" stroke="#63b8ff" d="M114.58,-49.38C129.6,-49.38 145.7,-49.38 160.31,-49.38"/>
<polygon fill="#63b8ff" stroke="#63b8ff" points="160.14,-52.88 170.14,-49.38 160.14,-45.88 160.14,-52.88"/>
</a>
</g>
</g>
<!-- Node5 -->
<g id="Node000005" class="node">
<title>Node5</title>
<g id="a_Node000005"><a xlink:href="yt__dlp_8c.html#ae0f89d7d0a43f9be78538dafce7b4e3a" target="_top" xlink:title="Обёртка вокруг консольной команды yt&#45;dlp.">
<polygon fill="white" stroke="#666666" points="244.25,-20.75 177.25,-20.75 177.25,0 244.25,0 244.25,-20.75"/>
<text text-anchor="middle" x="210.75" y="-7.25" font-family="Helvetica,sans-Serif" font-size="10.00">run_yt_dlp</text>
</a>
</g>
</g>
<!-- Node1&#45;&gt;Node5 -->
<g id="edge5_Node000001_Node000005" class="edge">
<title>Node1&#45;&gt;Node5</title>
<g id="a_edge5_Node000001_Node000005"><a xlink:title=" ">
<path fill="none" stroke="#63b8ff" d="M100.36,-38.51C120.77,-33.26 145.24,-26.97 165.86,-21.66"/>
<polygon fill="#63b8ff" stroke="#63b8ff" points="166.59,-25.09 175.4,-19.21 164.84,-18.31 166.59,-25.09"/>
</a>
</g>
</g>
<!-- Node3 -->
<g id="Node000003" class="node">
<title>Node3</title>
<g id="a_Node000003"><a xlink:href="fs_8c.html#a19ed4f16202168c3c0808762ce2fdf42" target="_top" xlink:title="Вычисляет путь к DRAY_LOG и копирует его в указатель">
<polygon fill="white" stroke="#666666" points="383.25,-78.75 307.25,-78.75 307.25,-58 383.25,-58 383.25,-78.75"/>
<text text-anchor="middle" x="345.25" y="-65.25" font-family="Helvetica,sans-Serif" font-size="10.00">drayLogPath</text>
</a>
</g>
</g>
<!-- Node2&#45;&gt;Node3 -->
<g id="edge2_Node000002_Node000003" class="edge">
<title>Node2&#45;&gt;Node3</title>
<g id="a_edge2_Node000002_Node000003"><a xlink:title=" ">
<path fill="none" stroke="#63b8ff" d="M271.41,-79.37C279.53,-78.14 287.79,-76.9 295.68,-75.71"/>
<polygon fill="#63b8ff" stroke="#63b8ff" points="296.07,-79.19 305.44,-74.23 295.03,-72.27 296.07,-79.19"/>
</a>
</g>
</g>
<!-- Node4&#45;&gt;Node3 -->
<g id="edge4_Node000004_Node000003" class="edge">
<title>Node4&#45;&gt;Node3</title>
<g id="a_edge4_Node000004_Node000003"><a xlink:title=" ">
<path fill="none" stroke="#63b8ff" d="M249.72,-54.82C264.1,-56.88 280.67,-59.26 295.88,-61.44"/>
<polygon fill="#63b8ff" stroke="#63b8ff" points="295.3,-64.89 305.69,-62.85 296.29,-57.96 295.3,-64.89"/>
</a>
</g>
</g>
</g>
</svg>
